<svg width="89" height="89" viewBox="0 0 89 89" fill="none" xmlns="http://www.w3.org/2000/svg">
<path d="M65.5669 8.17243C53.1553 3.03936 38.8462 7.3866 31.3872 18.5564C23.9283 29.7262 25.3966 44.6089 34.8941 54.1059C40.1797 59.3982 47.3563 62.3661 54.8359 62.3531C68.2671 62.3385 79.8183 52.8401 82.4277 39.6649C85.0372 26.4897 77.9785 13.3055 65.5669 8.17243ZM78.2279 43.8193C73.6205 54.9613 61.7827 61.2955 49.9567 58.9469C38.1307 56.5982 29.6119 46.2211 29.6119 34.1641C29.6003 27.4712 32.2558 21.0494 36.9909 16.3193C45.5062 7.78351 58.8662 6.45358 68.8972 13.143C78.9284 19.8324 82.8353 32.6773 78.2279 43.8193Z" fill="#343E48"/>
<path d="M79.0008 10.0009C66.2805 -2.71966 45.8722 -3.38732 32.3478 8.47463C18.8235 20.3366 16.8237 40.6577 27.7768 54.9282L25.1548 57.5502C24.1363 57.275 23.0481 57.5631 22.2994 58.3065L3.40311 77.2025C2.65951 77.9511 2.37138 79.0393 2.647 80.0578L1.30334 81.4015C0.468855 82.2358 0 83.3676 0 84.5476C0 85.7275 0.468855 86.8594 1.30334 87.6937L2.35175 86.6444L1.30699 87.6973C2.14113 88.5318 3.27277 89.0007 4.45273 89.0007C5.63268 89.0007 6.76433 88.5318 7.59847 87.6973L8.94247 86.3533C9.96099 86.6446 11.0574 86.3542 11.798 85.5969L30.6935 66.7012C31.4372 65.9526 31.7254 64.8644 31.4497 63.8459L34.0719 61.2237C48.3421 72.1772 68.6634 70.178 80.5257 56.6539C92.388 43.1297 91.721 22.7213 79.0008 10.0009ZM5.50079 85.6003C4.91446 86.1608 3.991 86.1608 3.4045 85.6003L3.40015 85.596V85.5953C3.12193 85.3174 2.9657 84.9403 2.9657 84.5472C2.9657 84.154 3.12193 83.7771 3.40015 83.4992L4.45308 82.4463L6.55441 84.5476L5.50079 85.6003ZM9.70119 83.4999L7.60073 81.3998L5.50166 79.3003L5.50009 79.2995L20.1974 64.6022L24.3983 68.8027L9.70119 83.4999ZM26.4953 66.7057L22.2944 62.5052L24.3961 60.4035L24.3966 60.4044L26.4964 62.5038L28.5965 64.6042L26.4953 66.7057ZM29.6444 61.4575L28.5934 60.4068L27.5427 59.356L29.6974 57.2013C30.0333 57.5676 30.3403 57.9508 30.695 58.3056C31.0497 58.6603 31.4327 58.9674 31.7989 59.3031L29.6444 61.4575ZM66.7659 62.9666C55.1166 67.7919 41.7079 65.1247 32.792 56.2087C20.6376 44.0259 20.6376 24.3038 32.792 12.121C41.7079 3.20515 55.1166 0.537992 66.7659 5.36313C78.4151 10.1884 86.0105 21.5558 86.0105 34.1648C86.0105 46.7739 78.415 58.1412 66.7659 62.9666Z" fill="#343E48"/>
<path d="M66.7323 29.6819C65.095 29.6835 63.7682 31.0105 63.7665 32.6478V40.0624H60.8006V26.7162C60.799 25.0789 59.4721 23.7521 57.8347 23.7504H53.386C51.7486 23.7519 50.4218 25.0789 50.4201 26.7162V40.0624H47.4542V20.7845C47.4527 19.1471 46.1257 17.8203 44.4883 17.8186H40.0396C38.4023 17.8202 37.0755 19.1471 37.0737 20.7845V41.5453C37.0737 42.3643 37.7376 43.0281 38.5566 43.0281H72.6636C73.4826 43.0281 74.1464 42.3643 74.1464 41.5453V32.6478C74.1449 31.0105 72.8179 29.6837 71.1806 29.6819H66.7323ZM44.4887 40.0624H40.04L40.0379 20.7847H44.4887V40.0624ZM57.8349 40.0624H53.3862L53.3841 26.7162H57.8349V40.0624ZM71.1811 40.0624H66.7323L66.7303 32.6478H71.1811V40.0624Z" fill="#343E48"/>
<path d="M69.6981 45.9941H68.2153C67.3963 45.9941 66.7324 46.6581 66.7324 47.477C66.7324 48.296 67.3963 48.9598 68.2153 48.9598H69.6981C70.5172 48.9598 71.181 48.2958 71.181 47.477C71.181 46.6581 70.5172 45.9941 69.6981 45.9941Z" fill="#343E48"/>
<path d="M56.3519 45.9941H54.8691C54.0501 45.9941 53.3862 46.6581 53.3862 47.477C53.3862 48.296 54.0501 48.9598 54.8691 48.9598H56.3519C57.1709 48.9598 57.8348 48.2958 57.8348 47.477C57.8348 46.6581 57.1709 45.9941 56.3519 45.9941Z" fill="#343E48"/>
<path d="M43.0057 45.9941H41.5229C40.7039 45.9941 40.04 46.6581 40.04 47.477C40.04 48.296 40.7039 48.9598 41.5229 48.9598H43.0057C43.8248 48.9598 44.4886 48.2958 44.4886 47.477C44.4886 46.6581 43.8248 45.9941 43.0057 45.9941Z" fill="#343E48"/>
</svg>
