<svg width="290" height="213" viewBox="0 0 290 213" fill="none" xmlns="http://www.w3.org/2000/svg">
<path d="M143.17 171.967C143.17 171.967 145.366 187.364 138.201 185.401C131.037 183.438 114.59 176.932 114.59 176.932C114.59 176.932 109.429 174.392 108.042 178.78C106.039 185.208 111.547 187.21 116.131 189.635C120.714 192.06 147.754 201.183 151.991 192.368C154.592 186.706 156.033 180.581 156.228 174.353L143.17 171.967Z" fill="#EECFB0"/>
<g style="mix-blend-mode:multiply">
<path d="M143.17 171.967C143.17 171.967 145.366 187.364 138.201 185.401C131.037 183.438 114.59 176.932 114.59 176.932C114.59 176.932 109.429 174.392 108.042 178.78C106.039 185.208 111.547 187.21 116.131 189.635C120.714 192.06 147.754 201.183 151.991 192.368C154.592 186.706 156.033 180.581 156.228 174.353L143.17 171.967Z" fill="#EECFB0"/>
</g>
<g style="mix-blend-mode:multiply">
<path d="M124.759 180.858C119.289 178.818 114.59 177.009 114.59 177.009C114.59 177.009 109.429 174.468 108.042 178.856C106.039 185.285 111.547 187.286 116.131 189.711C117.949 190.549 119.814 191.281 121.716 191.906C122.717 188.172 123.565 184.476 124.759 180.858Z" fill="#EECFB0"/>
</g>
<g style="mix-blend-mode:multiply">
<path d="M153.223 189.558C155.071 184.627 156.086 179.424 156.228 174.16L143.17 171.774C143.17 171.774 145.366 187.171 138.201 185.208C141.475 189.288 147.754 189.943 153.223 189.558Z" fill="#EECFB0"/>
</g>
<path d="M195.092 136.361L183.537 134.359V134.898C183.999 139.786 190.123 180.127 195.554 192.984L202.564 189.635C198.53 172.127 196.029 154.302 195.092 136.361Z" fill="#EECFB0"/>
<g style="mix-blend-mode:multiply">
<path d="M185.193 146.253C188.614 147.043 192.171 147.043 195.593 146.253C195.323 142.904 195.13 139.594 195.092 136.438L183.537 134.436V134.975C183.691 136.284 184.307 140.556 185.193 146.253Z" fill="#EECFB0"/>
</g>
<path d="M93.174 179.242C87.0949 183.42 81.9851 188.854 78.1906 195.178C76.0721 192.175 78.1906 188.557 87.5889 180.704C96.9873 172.852 108.928 168.541 111.008 169.965C111.18 170.07 111.336 170.199 111.47 170.35C104.8 171.958 98.5583 174.992 93.174 179.242Z" fill="#1557A1"/>
<path d="M93.1738 179.242C98.5581 174.992 104.8 171.958 111.47 170.35C114.357 173.758 116.935 177.416 119.173 181.282C117.144 182.175 115.261 183.369 113.588 184.823C114.215 185.964 114.368 187.305 114.015 188.558C113.662 189.81 112.831 190.874 111.701 191.521C110.782 191.962 109.784 192.216 108.766 192.269C107.748 192.322 106.729 192.172 105.769 191.829C102.495 191.829 99.9529 193.445 90.0539 197.757C89.1308 198.351 88.0997 198.758 87.0193 198.953C85.939 199.149 84.8306 199.13 83.7575 198.898C82.6844 198.666 81.6676 198.224 80.7653 197.599C79.8629 196.974 79.0927 196.177 78.4985 195.255C82.195 188.935 87.1981 183.475 93.1738 179.242Z" fill="#9BC325"/>
<g style="mix-blend-mode:multiply">
<path d="M93.1738 179.242C98.5581 174.992 104.8 171.958 111.47 170.35C114.357 173.758 116.935 177.416 119.173 181.282C117.144 182.175 115.261 183.369 113.588 184.823C114.215 185.964 114.368 187.305 114.015 188.558C113.662 189.81 112.831 190.874 111.701 191.521C110.782 191.962 109.784 192.216 108.766 192.269C107.748 192.322 106.729 192.172 105.769 191.829C102.495 191.829 99.9529 193.445 90.0539 197.757C89.1308 198.351 88.0997 198.758 87.0193 198.953C85.939 199.149 84.8306 199.13 83.7575 198.898C82.6844 198.666 81.6676 198.224 80.7653 197.599C79.8629 196.974 79.0927 196.177 78.4985 195.255C82.195 188.935 87.1981 183.475 93.1738 179.242Z" fill="#9BC325"/>
</g>
<path d="M83.0051 196.717C83.0051 196.717 83.5829 190.019 96.3323 184.322C101.802 181.589 83.6214 185.747 83.0051 196.717Z" fill="#9BC325"/>
<path d="M195.632 111.994C195.632 111.994 189.739 103.718 182.035 114.112C174.332 124.505 177.451 141.788 177.451 141.788C184.198 143.385 191.251 143.132 197.866 141.057C197.866 141.057 198.405 116.575 195.632 111.994Z" fill="#1E8A87"/>
<g style="mix-blend-mode:multiply" opacity="0.6">
<path d="M190.548 130.74C191.798 123.661 191.798 116.418 190.548 109.338C190.529 109.198 190.529 109.055 190.548 108.915C188.237 108.607 185.232 109.646 181.92 114.112C174.216 124.505 177.336 141.788 177.336 141.788C180.219 142.511 183.185 142.848 186.157 142.789C188.157 138.989 189.634 134.936 190.548 130.74Z" fill="#1E8A87"/>
</g>
<path d="M108.89 174.93C108.89 174.93 111.085 190.327 103.921 188.364C96.7565 186.401 80.2709 179.896 80.2709 179.896C80.2709 179.896 75.1095 177.355 73.7614 181.743C71.7584 188.172 77.2665 190.212 81.8501 192.598C86.4337 194.985 113.473 204.146 117.71 195.331C120.312 189.669 121.753 183.544 121.947 177.317L108.89 174.93Z" fill="#EECFB0"/>
<g style="mix-blend-mode:multiply">
<path d="M108.698 184.592C111.009 185.362 113.744 185.631 116.016 186.17C117.557 186.517 119.059 186.824 120.6 187.017C121.378 183.838 121.83 180.588 121.948 177.317L108.89 174.93C109.335 178.141 109.27 181.402 108.698 184.592Z" fill="#EECFB0"/>
</g>
<path d="M161.427 169.772C161.427 159.802 162.428 160.611 162.428 160.611C162.428 160.611 159.886 160.957 155.765 161.188C145.519 161.804 136.506 152.373 120.868 145.791C118.101 143.623 115.594 141.143 113.395 138.4C100.839 149.178 105.692 165.345 105.345 180.743L132.308 186.055L137.739 174.507V183.63C137.739 183.63 146.367 189.288 162.852 185.901C162.775 181.589 161.427 172.736 161.427 169.772Z" fill="#1557A1"/>
<path d="M156.652 173.891C158.204 175.455 160.067 176.675 162.122 177.471C161.775 174.276 161.429 171.235 161.429 169.772C161.429 162.074 161.968 160.842 162.237 160.649C161.66 160.649 159.31 160.957 155.766 161.188C154.869 161.266 153.967 161.266 153.07 161.188C152.561 165.727 153.847 170.286 156.652 173.891Z" fill="#FABF0C"/>
<path d="M111.894 158.494C114.991 153.869 117.005 148.607 117.787 143.097C116.323 141.557 114.667 139.633 113.396 138.324C105.692 144.945 104.614 153.721 104.806 163.036C107.613 162.362 110.11 160.762 111.894 158.494Z" fill="#FABF0C"/>
<g style="mix-blend-mode:multiply">
<path d="M132.886 168.925C142.221 171.257 151.881 172.012 161.466 171.158C161.466 170.619 161.466 170.119 161.466 169.772C161.466 162.074 162.005 160.842 162.275 160.649C161.697 160.649 159.348 160.957 155.804 161.188C145.558 161.804 136.545 152.373 120.907 145.791C118.14 143.623 115.633 141.143 113.434 138.4C109.864 141.406 107.309 145.438 106.116 149.948C108.427 158.186 126.8 167.463 132.886 168.925Z" fill="#BCBDC0"/>
</g>
<path d="M165.626 168.733C174.563 154.568 194.977 132.165 184.308 107.414C181.276 106.35 178.328 105.063 175.487 103.565C173.101 102.316 170.798 100.915 168.592 99.369C168.352 99.0936 168.057 98.8722 167.725 98.7196C167.393 98.567 167.032 98.4866 166.666 98.4837C146.368 96.9055 107.619 143.867 107.619 143.867C107.619 143.867 117.133 173.006 165.626 168.733Z" fill="#1E8A87"/>
<g style="mix-blend-mode:multiply" opacity="0.6">
<path d="M162.622 110.839C162.622 110.839 156.035 102.371 148.332 113.688C140.628 125.005 144.749 143.097 144.749 143.097C151.931 144.504 159.361 143.932 166.242 141.441C166.242 141.441 165.626 115.536 162.622 110.839Z" fill="#1E8A87"/>
</g>
<path d="M172.598 105.297C172.598 105.297 167.475 122.541 174.1 124.043C180.725 125.544 184.538 112.302 184.538 112.302L172.598 105.297Z" fill="#EECFB0"/>
<g style="mix-blend-mode:multiply">
<path d="M172.598 105.297C172.598 105.297 167.475 122.541 174.1 124.043C180.725 125.544 184.538 112.302 184.538 112.302L172.598 105.297Z" fill="#EECFB0"/>
</g>
<path d="M289.654 88.8217C292.389 74.5793 275.942 66.9192 275.942 66.9192C275.942 66.9192 278.985 45.0552 257.492 26.0397C248.994 18.4999 238.97 12.8781 228.103 9.55688C217.235 6.23571 205.78 5.29313 194.515 6.79329C195.603 4.48049 197.26 2.48081 199.33 0.980859C193.206 -0.943787 188.044 6.98575 188.044 6.98575C181.342 -0.135436 180.341 2.86701 183.23 10.4886C164.433 11.7974 147.331 29.9275 140.86 48.9815C130.807 83.1632 160.312 95.173 160.312 95.173C160.312 95.173 153.802 82.1624 157.538 71.115C151.722 71.6924 147.485 62.4156 153.879 55.7178C158.309 50.9062 170.557 55.9872 166.59 65.8799C173.97 58.2733 182.814 52.2372 192.589 48.1347C192.589 48.1347 187.12 53.6007 188.738 55.2944C190.355 56.9881 213.928 47.5958 213.928 47.5958C213.928 47.5958 206.225 53.9471 207.419 55.9103C208.613 57.8734 231.107 53.9086 231.107 53.9086C231.107 53.9086 224.829 60.9143 226.293 62.8775C227.756 64.8406 245.166 60.4139 245.166 60.4139C245.166 60.4139 240.005 73.8095 243.24 77.4278C246.476 81.0461 255.528 69.1518 255.528 69.1518C255.528 69.1518 254.988 84.549 257.492 86.5506C259.996 88.5522 265.773 78.3516 265.773 78.3516C265.583 80.3488 265.583 82.3594 265.773 84.3565C267.121 87.3975 271.666 97.0977 273.477 95.9044C279.139 90.015 275.557 78.4286 275.557 78.4286C275.557 78.4286 288.268 92.517 289.654 88.8217Z" fill="#EA8B05"/>
<path d="M265.772 78.3517C265.772 78.3517 260.033 88.7063 257.568 86.5507C255.103 84.3951 255.604 69.1519 255.604 69.1519C255.604 69.1519 246.591 81.0847 243.317 77.4279C240.043 73.771 245.242 60.414 245.242 60.414C245.242 60.414 227.871 64.8407 226.369 62.8776C224.866 60.9144 231.106 53.9087 231.106 53.9087C231.106 53.9087 208.689 57.758 207.495 55.9873C206.301 54.2166 214.004 47.6729 214.004 47.6729C214.004 47.6729 190.586 56.9496 188.814 55.3714C187.042 53.7932 192.666 48.2118 192.666 48.2118C182.863 52.3552 174.005 58.4447 166.628 66.111C170.479 56.2183 158.346 51.1372 153.917 55.9488C147.523 62.5311 151.76 71.8079 157.576 71.346C153.724 82.3935 160.349 95.4041 160.349 95.4041C164.03 103.009 168.906 109.975 174.793 116.036C207.379 142.981 231.877 126.853 236.923 116.306C241.005 107.722 243.124 104.411 252.33 99.5228C258.239 95.8349 262.783 90.3208 265.272 83.8177L265.657 84.6645C265.485 82.5616 265.524 80.4469 265.772 78.3517Z" fill="#EECFB0"/>
<path d="M207.996 88.5138C205.878 90.6309 205.03 92.902 205.993 93.5948C206.956 94.2877 209.498 93.1714 211.54 91.0543C213.581 88.9372 214.506 86.6661 213.504 85.9347C212.503 85.2034 210.192 86.3967 207.996 88.5138Z" fill="#532419"/>
<path d="M211.849 88.3598C211.271 89.0527 211.04 89.7456 211.387 89.938C211.733 90.1305 212.427 89.7456 213.004 89.0527C213.582 88.3598 213.775 87.667 213.428 87.4745C213.081 87.282 212.311 87.667 211.849 88.3598Z" fill="white"/>
<path d="M233.263 104.873C231.722 106.452 231.029 108.184 231.8 108.723C232.57 109.262 234.38 108.376 235.921 106.798C237.462 105.22 238.155 103.526 237.423 102.949C236.691 102.371 234.958 103.295 233.263 104.873Z" fill="#532419"/>
<path d="M235.96 104.796C235.536 105.297 235.382 105.797 235.613 105.951C235.844 106.105 236.422 105.951 236.846 105.297C237.269 104.642 237.424 104.257 237.192 104.103C236.961 103.949 236.422 104.296 235.96 104.796Z" fill="white"/>
<path d="M214.699 108.915C215.416 108.568 216.183 108.334 216.972 108.222C217.369 108.182 217.769 108.182 218.166 108.222C218.613 108.166 219.066 108.166 219.514 108.222C220.033 108.323 220.529 108.519 220.978 108.799C221.221 108.946 221.442 109.127 221.632 109.338V109.646C221.748 110.009 221.748 110.399 221.632 110.763C221.541 111.075 221.383 111.363 221.17 111.609C220.841 112.007 220.435 112.334 219.976 112.572C218.563 113.395 216.984 113.895 215.354 114.034L217.395 112.88C218.07 112.502 218.726 112.091 219.36 111.648C219.66 111.398 219.944 111.128 220.207 110.84C220.207 110.84 220.207 110.57 220.207 110.455V110.147C220.085 109.999 219.943 109.869 219.784 109.762C219.451 109.578 219.103 109.423 218.744 109.3C218.017 109.082 217.267 108.952 216.51 108.915C215.701 108.876 214.699 108.915 214.699 108.915Z" fill="#B28053"/>
<path d="M161.081 61.9923C160.734 60.3371 159.27 58.5664 157.229 59.0283V59.3363C159.155 59.5672 159.578 61.0299 159.732 62.7236C159.849 63.4891 159.849 64.2677 159.732 65.0332C159.732 65.6876 159.347 66.342 159.309 66.9963C159.304 67.044 159.312 67.092 159.332 67.1354C159.352 67.1789 159.383 67.2163 159.422 67.2437C159.462 67.2712 159.507 67.2877 159.555 67.2915C159.603 67.2954 159.651 67.2865 159.694 67.2658C161.504 66.6114 161.389 63.378 161.081 61.9923Z" fill="#B28053"/>
<g style="mix-blend-mode:multiply">
<path d="M204.414 97.5983C203.104 98.8685 199.522 97.4058 196.44 94.2494C193.359 91.0929 191.895 87.5131 193.205 86.2043C194.514 84.8956 198.097 86.4353 201.178 89.5917C204.259 92.7481 205.723 96.328 204.414 97.5983Z" fill="#F3BEB2"/>
</g>
<g style="mix-blend-mode:multiply">
<path d="M233.225 117.499C232.724 118.307 230.721 117.961 228.757 116.729C226.793 115.497 225.599 113.803 226.138 112.88C226.677 111.956 228.641 112.418 230.606 113.649C232.57 114.881 233.764 116.69 233.225 117.499Z" fill="#F3BEB2"/>
</g>
<g style="mix-blend-mode:multiply" opacity="0.5">
<g style="mix-blend-mode:multiply" opacity="0.5">
<path d="M273.129 69.9604C274.362 80.8539 273.976 86.0504 272.012 86.7048C270.048 87.3592 267.852 70.0373 267.852 70.0373C267.852 70.0373 262.421 80.6999 259.686 79.9685C256.952 79.2372 260.071 60.7221 260.071 60.7221C260.071 60.7221 250.789 72.7703 247.438 71.1151C244.087 69.4599 251.752 52.2151 251.752 52.2151C251.752 52.2151 237.115 61.4534 233.995 58.22C230.875 54.9866 242.97 47.6345 242.97 47.6345C242.97 47.6345 220.398 52.4076 219.011 50.8679C217.625 49.3282 231.106 41.7835 231.106 41.7835C231.106 41.7835 201.024 50.7139 199.367 47.519C197.711 44.3241 209.035 37.2029 209.035 37.2029C209.035 37.2029 185.385 44.1316 170.518 57.8351C169.478 50.4829 157.922 46.4797 150.912 55.41C143.902 64.3404 149.988 72.4624 153.608 73.5402C150.719 78.8137 135.466 64.6868 142.977 43.5157C142.194 45.2631 141.5 47.0489 140.897 48.8662C130.844 83.048 160.349 95.0577 160.349 95.0577C160.349 95.0577 153.839 82.0471 157.576 70.9997C151.759 71.5771 147.522 62.3003 153.916 55.6025C158.346 50.7909 170.595 55.8719 166.627 65.7646C174.007 58.2038 182.837 52.2078 192.588 48.1349C192.588 48.1349 187.119 53.6009 188.737 55.2946C190.354 56.9882 213.927 47.596 213.927 47.596C213.927 47.596 206.224 53.9473 207.418 55.9104C208.612 57.8736 231.106 53.9088 231.106 53.9088C231.106 53.9088 224.828 60.9145 226.291 62.8777C227.755 64.8408 245.165 60.4141 245.165 60.4141C245.165 60.4141 240.004 73.8097 243.239 77.428C246.475 81.0463 255.526 69.152 255.526 69.152C255.526 69.152 254.987 84.5492 257.491 86.5508C259.994 88.5524 265.772 78.3518 265.772 78.3518C265.582 80.349 265.582 82.3596 265.772 84.3567C267.12 87.3976 271.665 97.0979 273.476 95.9046C279.138 90.0152 275.556 78.4288 275.556 78.4288C275.556 78.4288 288.344 92.6712 289.73 88.9759C289.912 88.0113 290.002 87.0318 290 86.0504C282.774 82.6646 276.851 77.0155 273.129 69.9604Z" fill="#AE7014"/>
</g>
</g>
<path d="M224.789 80.9307C224.789 80.9307 220.668 82.8554 213.234 76.0806C213.234 76.0806 222.054 80.7383 224.789 77.2739C224.712 77.2739 227.447 79.2755 224.789 80.9307Z" fill="#AE7014"/>
<path d="M243.047 92.4785C243.047 92.4785 240.197 95.9814 247.169 101.563C247.169 101.563 242.431 94.0952 245.628 91.6702C245.628 91.6702 244.626 90.0535 243.047 92.4785Z" fill="#AE7014"/>
<path d="M205.763 125.89C205.763 125.89 211.001 116.383 202.373 120.617C193.745 124.851 203.22 132.203 205.763 125.89Z" fill="#E98890"/>
<path d="M162.275 138.593L150.72 136.553C150.72 136.553 150.72 136.745 150.72 137.092C151.182 142.019 157.614 182.436 164.586 199.104L172.059 195.255C172.059 195.255 164.74 161.92 162.275 138.593Z" fill="#EECFB0"/>
<g style="mix-blend-mode:multiply">
<path d="M152.068 145.907C155.775 145.91 159.449 145.204 162.891 143.828C162.66 142.019 162.468 140.287 162.275 138.593L150.72 136.553C150.72 136.553 150.72 136.745 150.72 137.092C150.874 138.285 151.336 141.48 152.068 145.907Z" fill="#EECFB0"/>
</g>
<path d="M53.9246 186.825C49.8791 192.977 47.1876 199.917 46.0285 207.187C42.9471 205.186 43.3708 201.105 49.3025 190.25C55.2343 179.395 64.4785 171.004 66.9437 171.504H67.5214C61.9368 175.572 57.2985 180.798 53.9246 186.825Z" fill="#1557A1"/>
<path d="M53.9239 186.825C57.3158 180.853 61.9529 175.681 67.5207 171.658C71.5802 173.708 75.4475 176.117 79.0761 178.857C77.5152 180.438 76.2152 182.257 75.2243 184.246C76.2115 185.102 76.8246 186.31 76.9325 187.612C77.0405 188.913 76.6348 190.206 75.8021 191.213C74.3899 192.704 72.4607 193.599 70.4096 193.715C67.3281 194.831 65.6334 197.372 58.0839 205.263C56.8062 207.045 54.8783 208.254 52.7164 208.629C50.5546 209.003 48.332 208.513 46.5285 207.264H46.3359C47.3906 199.992 49.9769 193.025 53.9239 186.825Z" fill="#9BC325"/>
<g style="mix-blend-mode:screen">
<path d="M50.9982 206.802C50.9982 206.802 49.0338 200.374 58.7017 190.328C62.7461 185.747 47.416 196.409 50.9982 206.802Z" fill="#FABF0C"/>
</g>
<path d="M161.543 110.224C161.543 110.224 155.303 101.486 147.138 112.457C138.972 123.427 142.516 141.711 142.516 141.711C149.629 143.421 157.074 143.154 164.047 140.941C164.047 140.941 164.432 115.074 161.543 110.224Z" fill="#34978C"/>
<path d="M181.034 62.6081C181.034 62.6081 175.526 69.1519 177.721 72.0004C179.917 74.8488 182.305 65.8415 181.034 62.6081Z" fill="#47AEE3"/>
<g style="mix-blend-mode:screen">
<path d="M179.34 66.5344C179.34 66.5344 176.913 69.4214 177.876 70.6917C178.839 71.9619 179.956 67.9587 179.34 66.5344Z" fill="#9DCBEF"/>
</g>
<path d="M207.996 204.108C206.395 203.187 205.066 201.859 204.144 200.259C202.649 198.408 200.617 197.063 198.328 196.409H197.789C197.558 197.487 197.789 205.032 196.441 204.454H196.21C196.161 204.495 196.1 204.518 196.036 204.518C195.973 204.518 195.912 204.495 195.863 204.454C195.178 203.674 194.783 202.682 194.746 201.645C194.322 197.795 192.628 192.637 195.439 189.288C199.021 184.977 205.685 186.671 209.845 189.096C210.838 189.672 211.734 190.399 212.503 191.251C212.577 191.334 212.625 191.436 212.643 191.546C212.66 191.655 212.646 191.767 212.601 191.869C212.556 191.97 212.483 192.057 212.391 192.118C212.298 192.179 212.19 192.212 212.079 192.214C210.797 192.214 209.536 191.882 208.42 191.251C209.994 192.131 211.423 193.248 212.657 194.562C214.544 196.64 213.119 197.988 211.809 196.91C210.414 195.626 208.778 194.631 206.995 193.984C206.602 193.639 206.161 193.354 205.685 193.138C206.436 193.519 207.157 193.957 207.842 194.446C209.617 195.621 210.967 197.335 211.694 199.335C211.694 199.835 211.193 200.028 210.808 199.874C209.126 198.811 207.506 197.654 205.955 196.409C205.154 195.954 204.317 195.568 203.451 195.255C204.865 196.213 206.077 197.44 207.015 198.867C207.954 200.294 208.601 201.892 208.921 203.569C209.113 204.07 208.42 204.301 207.996 204.108Z" fill="#EECFB0"/>
<path d="M178.107 194.831C180.009 195.291 181.939 195.626 183.885 195.832C186.119 195.832 184.308 198.834 182.382 198.642C180.457 198.45 178.107 194.831 178.107 194.831Z" fill="#EECFB0"/>
<g style="mix-blend-mode:multiply">
<path d="M178.107 194.831C180.009 195.291 181.939 195.626 183.885 195.832C186.119 195.832 184.308 198.834 182.382 198.642C180.457 198.45 178.107 194.831 178.107 194.831Z" fill="#EECFB0"/>
</g>
<path d="M183.037 201.799C182.074 200.682 180.418 199.682 178.723 197.949C180.032 198.527 185.117 202.876 186.426 202.761C186.966 202.761 187.928 201.375 185.386 199.143C183.704 197.883 181.955 196.713 180.148 195.64C177.811 194.191 175.179 193.283 172.444 192.984C171.081 192.765 169.686 192.845 168.356 193.217C167.026 193.589 165.793 194.245 164.741 195.139C164.196 195.831 163.841 196.654 163.713 197.525C163.584 198.396 163.687 199.285 164.009 200.105C164.531 201.849 165.721 203.316 167.322 204.185H167.591C170.095 204.955 172.175 204.878 173.792 206.957C175.41 209.035 174.139 208.881 176.027 209.69C176.527 209.882 177.144 209.266 177.067 208.65C176.681 205.148 176.373 205.071 173.407 202.799C174.331 203.168 175.231 203.592 176.104 204.07C177.914 205.148 178.492 206.418 180.379 207.303C180.803 207.303 181.92 207.303 181.535 206.302C180.862 204.505 179.634 202.968 178.029 201.914C177.298 201.452 176.527 200.952 175.68 200.49C176.188 200.572 176.69 200.688 177.182 200.836C179.468 202.23 181.565 203.912 183.422 205.84C184.886 207.111 186.157 205.571 183.037 201.799Z" fill="#EECFB0"/>
<path d="M45.2961 5.02283C66.3485 14.5145 85.1851 28.2955 100.6 45.4832C116.014 62.6709 127.667 82.8864 134.812 104.835C134.812 104.835 111.97 38.7041 45.2961 5.02283Z" fill="#A6A9AB"/>
<path d="M0 40.6669C0 40.6669 81.4266 52.2147 115.784 126.121C115.784 126.121 85.5865 61.9535 0 40.6669Z" fill="#A6A9AB"/>
<path d="M71.6433 9.7959C71.6433 9.7959 120.753 32.5067 134.812 83.6638C123.574 52.1092 101.081 25.8073 71.6433 9.7959Z" fill="#A6A9AB"/>
<path d="M109.428 213L110.507 200.836C109.178 204.746 108.808 208.918 109.428 213Z" fill="#A6A9AB"/>
<path d="M113.627 209.92L112.394 201.106C112.009 204.101 112.435 207.145 113.627 209.92Z" fill="#A6A9AB"/>
<path d="M122.64 206.61L118.211 198.912C118.995 201.818 120.521 204.471 122.64 206.61Z" fill="#A6A9AB"/>
<path d="M151.875 207.419L149.603 198.411C149.624 201.553 150.403 204.643 151.875 207.419Z" fill="#A6A9AB"/>
<path d="M154.072 204.224L151.068 198.296C151.532 200.501 152.568 202.545 154.072 204.224Z" fill="#A6A9AB"/>
<path d="M159.618 199.681L154.649 195.293C155.89 197.167 157.604 198.681 159.618 199.681Z" fill="#A6A9AB"/>
</svg>
