<svg width="90" height="90" viewBox="0 0 90 90" fill="none" xmlns="http://www.w3.org/2000/svg">
<path d="M51.7047 64.6309C51.7047 63.2106 51.2835 61.8222 50.4944 60.6413C49.7054 59.4603 48.5838 58.5399 47.2716 57.9963C45.9594 57.4528 44.5155 57.3106 43.1225 57.5877C41.7295 57.8648 40.4499 58.5487 39.4456 59.553C38.4413 60.5573 37.7574 61.8369 37.4803 63.2299C37.2032 64.6229 37.3454 66.0668 37.8889 67.379C38.4325 68.6912 39.3529 69.8128 40.5338 70.6019C41.7148 71.3909 43.1032 71.8121 44.5235 71.8121C46.4274 71.81 48.2527 71.0527 49.599 69.7064C50.9453 68.3602 51.7025 66.5348 51.7047 64.6309ZM44.5235 68.9396C43.6713 68.9396 42.8383 68.6869 42.1297 68.2135C41.4211 67.74 40.8689 67.0671 40.5427 66.2798C40.2166 65.4925 40.1313 64.6261 40.2976 63.7903C40.4638 62.9545 40.8742 62.1868 41.4768 61.5842C42.0793 60.9816 42.8471 60.5712 43.6829 60.405C44.5187 60.2387 45.385 60.3241 46.1724 60.6502C46.9597 60.9763 47.6326 61.5286 48.1061 62.2371C48.5795 62.9457 48.8322 63.7787 48.8322 64.6309C48.8309 65.7733 48.3765 66.8684 47.5687 67.6762C46.761 68.4839 45.6658 68.9383 44.5235 68.9396Z" fill="#2B3B46"/>
<path d="M50.6273 71.812H38.4193C36.6106 71.8141 34.8765 72.5335 33.5976 73.8124C32.3186 75.0914 31.5992 76.8254 31.5972 78.6342V87.6107C31.5972 87.9916 31.7485 88.3569 32.0178 88.6262C32.2872 88.8956 32.6525 89.0469 33.0334 89.0469H56.0132C56.3942 89.0469 56.7595 88.8956 57.0288 88.6262C57.2982 88.3569 57.4495 87.9916 57.4495 87.6107V78.6342C57.4474 76.8254 56.728 75.0914 55.4491 73.8124C54.1701 72.5335 52.4361 71.8141 50.6273 71.812ZM54.577 86.1744H51.7045V80.4295C51.7045 80.0485 51.5532 79.6832 51.2839 79.4139C51.0145 79.1445 50.6492 78.9932 50.2683 78.9932C49.8874 78.9932 49.5221 79.1445 49.2527 79.4139C48.9834 79.6832 48.832 80.0485 48.832 80.4295V86.1744H40.2146V80.4295C40.2146 80.0485 40.0633 79.6832 39.7939 79.4139C39.5246 79.1445 39.1593 78.9932 38.7784 78.9932C38.3975 78.9932 38.0321 79.1445 37.7628 79.4139C37.4934 79.6832 37.3421 80.0485 37.3421 80.4295V86.1744H34.4696V78.6342C34.4708 77.587 34.8873 76.5831 35.6278 75.8426C36.3682 75.1022 37.3722 74.6857 38.4193 74.6845H50.6273C51.6745 74.6857 52.6784 75.1022 53.4189 75.8426C54.1593 76.5831 54.5758 77.587 54.577 78.6342V86.1744Z" fill="#2B3B46"/>
<path d="M51.7047 7.1812C51.7047 5.7609 51.2835 4.37248 50.4944 3.19154C49.7054 2.0106 48.5838 1.09017 47.2716 0.54664C45.9594 0.0031115 44.5155 -0.1391 43.1225 0.137988C41.7295 0.415076 40.4499 1.09902 39.4456 2.10333C38.4413 3.10764 37.7574 4.3872 37.4803 5.78022C37.2032 7.17324 37.3454 8.61714 37.8889 9.92933C38.4325 11.2415 39.3529 12.3631 40.5338 13.1522C41.7148 13.9412 43.1032 14.3624 44.5235 14.3624C46.4274 14.3603 48.2527 13.603 49.599 12.2567C50.9453 10.9104 51.7025 9.08512 51.7047 7.1812ZM44.5235 11.4899C43.6713 11.4899 42.8383 11.2372 42.1297 10.7638C41.4211 10.2903 40.8689 9.61739 40.5427 8.83008C40.2166 8.04276 40.1313 7.17642 40.2976 6.34061C40.4638 5.5048 40.8742 4.73706 41.4768 4.13448C42.0793 3.53189 42.8471 3.12153 43.6829 2.95527C44.5187 2.78902 45.385 2.87435 46.1724 3.20046C46.9597 3.52658 47.6326 4.07884 48.1061 4.78741C48.5795 5.49597 48.8322 6.32902 48.8322 7.1812C48.8309 8.32354 48.3765 9.41871 47.5687 10.2265C46.761 11.0342 45.6658 11.4886 44.5235 11.4899Z" fill="#2B3B46"/>
<path d="M50.6273 14.3623H38.4193C36.6106 14.3643 34.8765 15.0838 33.5976 16.3627C32.3186 17.6417 31.5992 19.3757 31.5972 21.1844V30.1609C31.5972 30.5419 31.7485 30.9072 32.0178 31.1765C32.2872 31.4459 32.6525 31.5972 33.0334 31.5972H56.0132C56.3942 31.5972 56.7595 31.4459 57.0288 31.1765C57.2982 30.9072 57.4495 30.5419 57.4495 30.1609V21.1844C57.4474 19.3757 56.728 17.6417 55.4491 16.3627C54.1701 15.0838 52.4361 14.3643 50.6273 14.3623ZM54.577 28.7247H51.7045V22.9797C51.7045 22.5988 51.5532 22.2335 51.2839 21.9642C51.0145 21.6948 50.6492 21.5435 50.2683 21.5435C49.8874 21.5435 49.5221 21.6948 49.2527 21.9642C48.9834 22.2335 48.832 22.5988 48.832 22.9797V28.7247H40.2146V22.9797C40.2146 22.5988 40.0633 22.2335 39.7939 21.9642C39.5246 21.6948 39.1593 21.5435 38.7784 21.5435C38.3975 21.5435 38.0321 21.6948 37.7628 21.9642C37.4934 22.2335 37.3421 22.5988 37.3421 22.9797V28.7247H34.4696V21.1844C34.4708 20.1373 34.8873 19.1334 35.6278 18.3929C36.3682 17.6525 37.3722 17.236 38.4193 17.2348H50.6273C51.6745 17.236 52.6784 17.6525 53.4189 18.3929C54.1593 19.1334 54.5758 20.1373 54.577 21.1844V28.7247Z" fill="#2B3B46"/>
<path d="M20.1073 35.9061C20.1073 34.4857 19.6861 33.0973 18.897 31.9164C18.1079 30.7355 16.9864 29.815 15.6742 29.2715C14.362 28.728 12.9181 28.5858 11.5251 28.8628C10.1321 29.1399 8.85251 29.8239 7.8482 30.8282C6.84389 31.8325 6.15995 33.1121 5.88286 34.5051C5.60577 35.8981 5.74798 37.342 6.29151 38.6542C6.83504 39.9664 7.75547 41.0879 8.93642 41.877C10.1174 42.6661 11.5058 43.0873 12.9261 43.0873C14.83 43.0851 16.6553 42.3278 18.0016 40.9816C19.3479 39.6353 20.1051 37.81 20.1073 35.9061ZM12.9261 40.2148C12.0739 40.2148 11.2408 39.9621 10.5323 39.4886C9.82371 39.0152 9.27145 38.3422 8.94534 37.5549C8.61922 36.7676 8.53389 35.9013 8.70015 35.0655C8.8664 34.2297 9.27677 33.4619 9.87935 32.8593C10.4819 32.2567 11.2497 31.8464 12.0855 31.6801C12.9213 31.5139 13.7876 31.5992 14.575 31.9253C15.3623 32.2514 16.0352 32.8037 16.5086 33.5123C16.9821 34.2208 17.2348 35.0539 17.2348 35.9061C17.2335 37.0484 16.7791 38.1436 15.9713 38.9513C15.1636 39.7591 14.0684 40.2134 12.9261 40.2148Z" fill="#2B3B46"/>
<path d="M24.4161 60.322C24.797 60.322 25.1623 60.1707 25.4317 59.9014C25.701 59.632 25.8523 59.2667 25.8523 58.8858V49.9093C25.8503 48.1006 25.1309 46.3665 23.8519 45.0876C22.5729 43.8086 20.8389 43.0892 19.0302 43.0872H6.82214C5.01342 43.0892 3.27937 43.8086 2.00042 45.0876C0.721459 46.3665 0.00204324 48.1006 0 49.9093V58.8858C0 59.2667 0.151318 59.632 0.420665 59.9014C0.690012 60.1707 1.05533 60.322 1.43624 60.322H24.4161ZM2.87248 49.9093C2.87367 48.8621 3.29017 47.8582 4.03062 47.1178C4.77107 46.3773 5.77499 45.9608 6.82214 45.9596H19.0302C20.0773 45.9608 21.0812 46.3773 21.8217 47.1178C22.5621 47.8582 22.9786 48.8621 22.9798 49.9093V57.4496H20.1074V51.7046C20.1074 51.3237 19.956 50.9584 19.6867 50.689C19.4173 50.4197 19.052 50.2684 18.6711 50.2684C18.2902 50.2684 17.9249 50.4197 17.6555 50.689C17.3862 50.9584 17.2349 51.3237 17.2349 51.7046V57.4496H8.61744V51.7046C8.61744 51.3237 8.46612 50.9584 8.19677 50.689C7.92743 50.4197 7.56211 50.2684 7.1812 50.2684C6.80028 50.2684 6.43497 50.4197 6.16562 50.689C5.89628 50.9584 5.74496 51.3237 5.74496 51.7046V57.4496H2.87248V49.9093Z" fill="#2B3B46"/>
<path d="M83.3019 35.9061C83.3019 34.4857 82.8807 33.0973 82.0916 31.9164C81.3025 30.7355 80.181 29.815 78.8688 29.2715C77.5566 28.728 76.1127 28.5858 74.7197 28.8628C73.3267 29.1399 72.0471 29.8239 71.0428 30.8282C70.0385 31.8325 69.3545 33.1121 69.0774 34.5051C68.8004 35.8981 68.9426 37.342 69.4861 38.6542C70.0296 39.9664 70.9501 41.0879 72.131 41.877C73.3119 42.6661 74.7004 43.0873 76.1207 43.0873C78.0246 43.0851 79.8499 42.3278 81.1962 40.9816C82.5424 39.6353 83.2997 37.81 83.3019 35.9061ZM76.1207 40.2148C75.2685 40.2148 74.4354 39.9621 73.7269 39.4886C73.0183 39.0152 72.466 38.3422 72.1399 37.5549C71.8138 36.7676 71.7285 35.9013 71.8947 35.0655C72.061 34.2297 72.4713 33.4619 73.0739 32.8593C73.6765 32.2567 74.4443 31.8464 75.2801 31.6801C76.1159 31.5139 76.9822 31.5992 77.7695 31.9253C78.5569 32.2514 79.2298 32.8037 79.7032 33.5123C80.1767 34.2208 80.4294 35.0539 80.4294 35.9061C80.4281 37.0484 79.9737 38.1436 79.1659 38.9513C78.3582 39.7591 77.263 40.2134 76.1207 40.2148Z" fill="#2B3B46"/>
<path d="M82.2248 43.0872H70.0167C68.208 43.0892 66.474 43.8086 65.195 45.0876C63.916 46.3665 63.1966 48.1006 63.1946 49.9093V58.8858C63.1946 59.2667 63.3459 59.632 63.6152 59.9014C63.8846 60.1707 64.2499 60.322 64.6308 60.322H87.6107C87.9916 60.322 88.3569 60.1707 88.6262 59.9014C88.8956 59.632 89.0469 59.2667 89.0469 58.8858V49.9093C89.0449 48.1006 88.3254 46.3665 87.0465 45.0876C85.7675 43.8086 84.0335 43.0892 82.2248 43.0872ZM86.1744 57.4496H83.3019V51.7046C83.3019 51.3237 83.1506 50.9584 82.8813 50.689C82.6119 50.4197 82.2466 50.2684 81.8657 50.2684C81.4848 50.2684 81.1195 50.4197 80.8501 50.689C80.5808 50.9584 80.4295 51.3237 80.4295 51.7046V57.4496H71.812V51.7046C71.812 51.3237 71.6607 50.9584 71.3914 50.689C71.122 50.4197 70.7567 50.2684 70.3758 50.2684C69.9949 50.2684 69.6296 50.4197 69.3602 50.689C69.0909 50.9584 68.9395 51.3237 68.9395 51.7046V57.4496H66.0671V49.9093C66.0682 48.8621 66.4848 47.8582 67.2252 47.1178C67.9656 46.3773 68.9696 45.9608 70.0167 45.9596H82.2248C83.2719 45.9608 84.2758 46.3773 85.0163 47.1178C85.7567 47.8582 86.1732 48.8621 86.1744 49.9093V57.4496Z" fill="#2B3B46"/>
<path d="M26.6001 73.973C22.8542 71.6918 19.5778 68.7169 16.9468 65.2078C16.8335 65.057 16.6916 64.93 16.5292 64.834C16.3668 64.738 16.1871 64.6749 16.0003 64.6483C15.8135 64.6218 15.6233 64.6323 15.4406 64.6792C15.2579 64.7262 15.0862 64.8086 14.9354 64.9219C14.7845 65.0352 14.6575 65.1771 14.5615 65.3395C14.4655 65.5019 14.4024 65.6816 14.3759 65.8684C14.3493 66.0552 14.3598 66.2454 14.4068 66.4281C14.4537 66.6108 14.5362 66.7825 14.6495 66.9333C17.4988 70.7333 21.0469 73.955 25.1035 76.4254C25.4287 76.6238 25.8194 76.6848 26.1896 76.5951C26.5598 76.5054 26.8793 76.2724 27.0776 75.9472C27.276 75.6219 27.337 75.2313 27.2473 74.861C27.1577 74.4908 26.9246 74.1714 26.5994 73.973H26.6001Z" fill="#2B3B46"/>
<path d="M74.1137 64.918C73.8092 64.6892 73.4263 64.5908 73.0492 64.6444C72.6722 64.698 72.3318 64.8991 72.103 65.2036C69.4715 68.7141 66.1943 71.6902 62.4472 73.9722C62.122 74.1706 61.8889 74.49 61.7992 74.8602C61.7095 75.2304 61.7705 75.6211 61.9689 75.9463C62.1673 76.2715 62.4867 76.5046 62.8569 76.5943C63.2271 76.684 63.6178 76.6229 63.943 76.4246C68.0008 73.9533 71.5499 70.7304 74.3997 66.9289C74.513 66.7781 74.5954 66.6064 74.6424 66.4237C74.6893 66.2411 74.6998 66.0509 74.6732 65.8642C74.6467 65.6775 74.5836 65.4978 74.4876 65.3354C74.3916 65.1731 74.2646 65.0312 74.1137 64.918Z" fill="#2B3B46"/>
<path d="M56.9324 12.3543C62.9662 14.6859 68.2229 18.6667 72.1027 23.8426C72.3315 24.1471 72.6719 24.3483 73.0491 24.4019C73.4262 24.4555 73.8092 24.3571 74.1137 24.1283C74.4183 23.8995 74.6195 23.5591 74.6731 23.182C74.7267 22.8048 74.6282 22.4219 74.3994 22.1173C70.1966 16.5115 64.5026 12.2 57.9671 9.67479C57.7906 9.60398 57.6017 9.56893 57.4116 9.57168C57.2214 9.57443 57.0337 9.61493 56.8593 9.69081C56.6849 9.7667 56.5273 9.87647 56.3957 10.0137C56.264 10.151 56.161 10.3131 56.0925 10.4905C56.024 10.6679 55.9914 10.8572 55.9966 11.0473C56.0019 11.2374 56.0448 11.4246 56.123 11.598C56.2011 11.7714 56.313 11.9275 56.4519 12.0573C56.5909 12.1872 56.7543 12.2881 56.9326 12.3543H56.9324Z" fill="#2B3B46"/>
<path d="M14.9334 24.1289C15.238 24.3577 15.6209 24.4561 15.998 24.4025C16.375 24.3489 16.7154 24.1478 16.9442 23.8433C20.824 18.6675 26.0807 14.6866 32.1145 12.355C32.2928 12.2888 32.4562 12.1879 32.5952 12.0581C32.7341 11.9283 32.846 11.7721 32.9241 11.5987C33.0023 11.4253 33.0452 11.2382 33.0505 11.048C33.0557 10.8579 33.0231 10.6687 32.9546 10.4912C32.8861 10.3138 32.7831 10.1518 32.6514 10.0145C32.5198 9.8772 32.3622 9.76743 32.1878 9.69155C32.0134 9.61566 31.8257 9.57517 31.6355 9.57242C31.4454 9.56967 31.2565 9.60471 31.08 9.67552C24.5445 12.2007 18.8504 16.5123 14.6476 22.1182C14.4189 22.4228 14.3206 22.8057 14.3742 23.1828C14.4278 23.5598 14.6289 23.9002 14.9334 24.1289Z" fill="#2B3B46"/>
<path d="M44.5235 50.2685C45.6598 50.2685 46.7705 49.9316 47.7153 49.3003C48.66 48.669 49.3964 47.7718 49.8312 46.722C50.266 45.6723 50.3798 44.5172 50.1581 43.4027C49.9364 42.2883 49.3893 41.2647 48.5858 40.4612C47.7824 39.6578 46.7587 39.1106 45.6443 38.889C44.5299 38.6673 43.3748 38.7811 42.325 39.2159C41.2753 39.6507 40.378 40.387 39.7468 41.3318C39.1155 42.2766 38.7786 43.3873 38.7786 44.5235C38.7803 46.0467 39.3861 47.5069 40.4631 48.5839C41.5401 49.661 43.0004 50.2668 44.5235 50.2685ZM44.5235 41.6511C45.0917 41.6511 45.647 41.8195 46.1194 42.1352C46.5918 42.4508 46.9599 42.8994 47.1774 43.4243C47.3948 43.9492 47.4517 44.5267 47.3408 45.0839C47.23 45.6411 46.9564 46.153 46.5547 46.5547C46.153 46.9564 45.6411 47.23 45.0839 47.3408C44.5267 47.4517 43.9492 47.3948 43.4243 47.1774C42.8994 46.96 42.4508 46.5918 42.1351 46.1194C41.8195 45.647 41.651 45.0917 41.651 44.5235C41.6519 43.762 41.9549 43.0319 42.4934 42.4934C43.0319 41.9549 43.762 41.652 44.5235 41.6511Z" fill="#2B3B46"/>
</svg>
