<svg width="207" height="278" viewBox="0 0 207 278" fill="none" xmlns="http://www.w3.org/2000/svg">
<path d="M69.2226 261.61L67.8789 261.274L94.9542 155.951L96.2979 156.287L69.2226 261.61Z" fill="#AA7D5F"/>
<path d="M124.537 223.449L32.7412 191.134L33.2115 189.835L125.008 222.15L124.537 223.449Z" fill="#AA7D5F"/>
<path d="M98.7831 257.556L63.7354 154.966L65.0566 154.518L100.104 257.109L98.7831 257.556Z" fill="#AA7D5F"/>
<path d="M38.0043 233.997L37.3101 232.81L122.007 184.594L122.701 185.781L38.0043 233.997Z" fill="#AA7D5F"/>
<path d="M75.5376 207.751C75.753 206.782 76.2378 205.894 76.9361 205.189C77.6344 204.484 78.5178 203.991 79.4844 203.766C80.4509 203.542 81.4612 203.595 82.3988 203.92C83.3363 204.245 84.1629 204.829 84.7831 205.603C85.4033 206.378 85.7919 207.312 85.904 208.298C86.0161 209.284 85.8473 210.281 85.4168 211.176C84.9864 212.07 84.312 212.824 83.4714 213.351C82.6308 213.878 81.6583 214.157 80.666 214.156C79.1437 213.97 77.7546 213.196 76.7961 211.999C75.8376 210.801 75.3858 209.277 75.5376 207.751Z" fill="#5A3E3E"/>
<path d="M69.6924 245.934L81.8303 185.647H85.7718L73.6339 245.934H69.6924Z" fill="#5A3E3E"/>
<path d="M73.276 242.059H42.2593V245.934H73.276V242.059Z" fill="#5A3E3E"/>
<path d="M117.236 117.231H86.2417V121.105H117.236V117.231Z" fill="#CCA88E"/>
<path d="M54.464 124.643C53.2556 123.877 52.3915 122.671 52.0532 121.281C51.715 119.89 51.9289 118.422 52.65 117.186C53.6408 115.816 54.9597 114.717 56.4857 113.989C58.0116 113.262 59.6958 112.928 61.3839 113.021H91.6616L89.8477 122.718L54.464 124.643Z" fill="#AD827D"/>
<path d="M90.5423 113.021C89.0867 116.783 79.345 120.366 67.0726 121.374C62.0509 121.828 56.9934 121.7 52.001 120.993C52.3594 122.465 53.2333 123.76 54.4644 124.644H91.6621V113.021H90.5423Z" fill="#916D67"/>
<path d="M16.1021 207.751C16.1021 246.09 42.9757 277.174 75.9408 277.174C108.906 277.174 135.757 246.09 135.757 207.751C135.757 169.411 108.883 138.327 75.9408 138.327C42.9981 138.327 16.1021 169.411 16.1021 207.751ZM23.2012 207.751C23.2012 173.061 47.074 145.045 76.5231 145.045C105.972 145.045 129.845 173.173 129.845 207.862C129.845 242.552 105.972 270.702 76.5231 270.702C47.074 270.702 23.2012 242.462 23.2012 207.751Z" fill="#805350"/>
<path d="M27.9268 207.75C27.9268 240.402 50.0976 266.873 77.4416 266.873C104.786 266.873 126.979 240.402 126.979 207.75C126.979 175.099 104.83 148.628 77.4416 148.628C50.0528 148.628 27.9268 175.099 27.9268 207.75ZM33.0328 207.75C33.0328 178.212 53.4344 154.249 78.6285 154.249C103.823 154.249 124.224 178.212 124.224 207.75C124.224 237.289 103.8 261.274 78.6285 261.274C53.4568 261.274 33.0328 237.312 33.0328 207.75Z" fill="#C69E83"/>
<path d="M180.054 184.953C184.757 152.122 211.071 33.3402 197.03 25.8155C182.988 18.2909 124 30.8543 117.573 39.118C111.146 47.3817 105.099 166.343 105.099 166.343L180.054 184.953Z" fill="#674341"/>
<path d="M106.039 144.149C106.039 144.149 120.148 123.389 118.535 103.324L108.816 111.767L106.039 144.149Z" fill="#926A68"/>
<path d="M197.79 80.7275C198.663 74.3226 199.425 68.1641 200.029 62.431C196.76 48.703 192.37 32.8476 189.817 23.8897C182.186 23.2557 174.507 23.4961 166.93 24.6063C142.296 32.1533 181.554 49.7556 197.253 79.6078C197.409 80.0109 197.588 80.3692 197.79 80.7275Z" fill="#926A68"/>
<path d="M183.055 24.7853C182.069 24.2995 181.033 23.924 179.964 23.6656C188.922 23.1953 196.425 23.6656 200.411 25.905C214.99 33.4297 187.691 152.211 182.831 185.042L165.945 180.989C171.858 144.373 197.231 32.086 183.055 24.7853Z" fill="#835C58"/>
<path d="M153.472 184.035H149.463V208.893H153.472V184.035Z" fill="#5A3E3E"/>
<path d="M152.06 205.018H79.1875V210.147H152.06V205.018Z" fill="#5A3E3E"/>
<path d="M79.501 138.461C81.1372 140.726 82.633 143.09 83.98 145.538C109.935 149.77 129.912 176.017 129.912 207.75C129.912 242.462 106.039 270.59 76.5897 270.59C60.0624 270.59 45.237 261.632 35.5177 247.815C32.2097 247.446 28.9556 246.694 25.8208 245.575C36.5031 264.611 54.934 277.196 76.0074 277.196C109.04 277.196 135.824 246.113 135.824 207.773C135.757 170.821 110.876 140.611 79.501 138.461Z" fill="#563534"/>
<path d="M179.584 177.204H50.478V189.969H179.584V177.204Z" fill="#5A3E3E"/>
<path d="M183.054 185.871L185.137 161.237C185.137 161.237 59.5026 159.199 51.0822 166.768C42.6618 174.338 44.1398 185.916 44.1398 185.916L183.054 185.871Z" fill="#835C58"/>
<path d="M51.0821 166.768C58.1812 160.363 139.944 157.407 167.938 160.833C135.533 162.199 111.302 165.469 107.091 169.276C104.69 171.338 102.757 173.89 101.42 176.759C100.084 179.629 99.3757 182.75 99.3428 185.916H44.2293C44.2293 185.916 42.8408 174.248 51.0821 166.768Z" fill="#674341"/>
<path d="M127.695 159.378C137.223 159.359 146.746 159.83 156.225 160.789C123.843 162.155 99.5892 165.424 95.3566 169.232C92.967 171.302 91.0431 173.856 89.7114 176.724C88.3798 179.592 87.6705 182.709 87.6304 185.871H99.4324C99.4653 182.706 100.174 179.584 101.51 176.714C102.846 173.845 104.78 171.294 107.181 169.232C111.391 165.424 135.622 162.155 168.028 160.789C154.621 159.557 141.155 159.086 127.695 159.378Z" fill="#926A68"/>
<path d="M61.3621 166.768C66.1769 162.424 105.323 159.669 138.781 159.423C103.643 159.064 56.48 161.931 51.0829 166.768C42.752 174.293 44.1405 185.916 44.1405 185.916H54.3301C54.3301 185.916 53.0312 174.248 61.3621 166.768Z" fill="#926A68"/>
<path d="M37.1758 245.934L49.3361 185.647H53.2552L41.1173 245.934H37.1758Z" fill="#5A3E3E"/>
<path d="M147.38 207.751C147.596 206.782 148.081 205.894 148.779 205.189C149.477 204.484 150.361 203.991 151.327 203.766C152.294 203.542 153.304 203.595 154.242 203.92C155.179 204.245 156.006 204.829 156.626 205.603C157.246 206.378 157.635 207.312 157.747 208.298C157.859 209.284 157.69 210.281 157.26 211.176C156.829 212.07 156.155 212.824 155.314 213.351C154.474 213.878 153.501 214.157 152.509 214.156C150.986 213.97 149.597 213.196 148.639 211.999C147.68 210.801 147.229 209.277 147.38 207.751Z" fill="#CCA88E"/>
<path d="M7.83802 242.014C8.29577 240.805 9.10635 239.762 10.1646 239.019C11.2228 238.276 12.4799 237.868 13.7726 237.849H63.6681V249.472H9.04733C8.17583 248.462 7.6014 247.231 7.38791 245.914C7.17442 244.598 7.33023 243.248 7.83802 242.014Z" fill="#E8C3A7"/>
<path d="M87.1602 207.751C87.1602 246.09 114.034 277.174 146.977 277.174C179.919 277.174 206.793 246.09 206.793 207.751C206.793 169.411 179.919 138.327 146.977 138.327C114.034 138.327 87.1602 169.411 87.1602 207.751ZM94.2369 207.751C94.2369 173.061 118.11 145.045 147.559 145.045C177.008 145.045 200.903 173.173 200.903 207.862C200.903 242.552 177.03 270.702 147.559 270.702C118.087 270.702 94.2369 242.462 94.2369 207.751Z" fill="#6E4C4A"/>
<path d="M187.914 117.231H156.919V121.105H187.914V117.231Z" fill="#CCA88E"/>
<path d="M124.336 124.643C123.127 123.877 122.263 122.671 121.925 121.281C121.587 119.89 121.8 118.422 122.522 117.186C123.512 115.816 124.831 114.717 126.357 113.989C127.883 113.262 129.567 112.928 131.256 113.021H161.556L159.719 122.718L124.336 124.643Z" fill="#AD827D"/>
<path d="M183.526 118.843C183.637 118.137 183.948 117.478 184.423 116.943C184.897 116.409 185.515 116.021 186.202 115.827C186.89 115.632 187.619 115.639 188.304 115.846C188.988 116.053 189.598 116.452 190.063 116.995C190.527 117.539 190.826 118.204 190.924 118.912C191.023 119.62 190.916 120.341 190.617 120.99C190.318 121.639 189.839 122.189 189.237 122.575C188.635 122.96 187.935 123.165 187.221 123.166C186.161 123.074 185.179 122.57 184.488 121.761C183.797 120.953 183.451 119.905 183.526 118.843Z" fill="#CCA88E"/>
<path d="M160.413 113.021C158.958 116.783 149.216 120.366 136.944 121.374C131.922 121.828 126.865 121.7 121.872 120.993C122.23 122.465 123.104 123.76 124.335 124.644H161.556V113.021H160.413Z" fill="#916D67"/>
<path d="M166.505 142.134C168.473 145.206 170.217 148.417 171.723 151.741C189.034 162.132 200.836 183.295 200.836 207.728C200.836 242.44 176.963 270.568 147.491 270.568C135.377 270.449 123.751 265.771 114.929 257.467C108.324 255.207 102.309 251.496 97.3271 246.605C108.099 265.036 126.284 277.152 146.909 277.152C179.941 277.152 206.726 246.068 206.726 207.728C206.793 177.361 189.929 151.54 166.505 142.134Z" fill="#563534"/>
<path d="M32.2934 246.717C23.8775 247.433 15.4026 246.498 7.34566 243.963C7.23237 244.949 7.32516 245.948 7.61814 246.896C7.91113 247.844 8.39792 248.721 9.04766 249.472H63.6685V237.849H61.429C56.5021 242.35 45.4167 245.933 32.2934 246.717Z" fill="#CCA88E"/>
<path d="M140.035 261.61L138.691 261.274L165.744 155.951L167.087 156.287L140.035 261.61Z" fill="#CCA88E"/>
<path d="M195.35 223.449L103.554 191.134L104.024 189.835L195.82 222.15L195.35 223.449Z" fill="#CCA88E"/>
<path d="M169.595 257.556L134.525 154.966L135.846 154.518L170.894 257.109L169.595 257.556Z" fill="#CCA88E"/>
<path d="M108.816 233.997L108.122 232.81L192.796 184.594L193.49 185.781L108.816 233.997Z" fill="#CCA88E"/>
<path d="M98.9624 207.75C98.9624 240.402 121.133 266.873 148.477 266.873C175.821 266.873 198.014 240.402 198.014 207.75C198.014 175.099 175.844 148.628 148.477 148.628C121.111 148.628 98.9624 175.099 98.9624 207.75ZM104.068 207.75C104.068 178.212 124.492 154.249 149.664 154.249C174.836 154.249 195.26 178.212 195.26 207.75C195.26 237.289 174.836 261.274 149.619 261.274C124.403 261.274 104.068 237.312 104.068 207.75Z" fill="#E8C3A7"/>
<path d="M155.868 149.368C157.677 151.421 159.332 153.607 160.817 155.907C180.636 161.729 195.327 182.78 195.327 207.751C195.327 237.312 174.903 261.274 149.731 261.274C143.409 261.159 137.192 259.635 131.532 256.815C125.872 253.995 120.912 249.949 117.013 244.971C114.119 244.473 111.288 243.662 108.57 242.552C117.528 257.288 132.107 266.873 148.544 266.873C175.911 266.873 198.082 240.402 198.082 207.751C198.014 178.1 179.718 153.623 155.868 149.368Z" fill="#CCA88E"/>
<path d="M99.0297 169.948L96.1855 171.426C99.0969 178.145 102.904 179.69 102.904 179.69C102.138 176.257 100.83 172.969 99.0297 169.948Z" fill="#881E13"/>
<path d="M80.196 160.453L77.9565 161.461C79.4664 163.942 81.2383 166.255 83.2417 168.358C82.5669 165.604 81.5434 162.948 80.196 160.453Z" fill="#881E13"/>
<path d="M102.815 179.69C102.815 179.69 112.713 179.354 125.881 171.695C139.049 164.036 135.601 148.628 135.601 148.628C135.601 148.628 130.562 152.368 115.177 149.367C99.7914 146.367 93.4985 141.686 93.4985 141.686C93.4985 141.686 91.8413 141.126 91.259 142.089C90.6768 143.052 90.6991 144.329 89.9153 144.329C85.9291 144.866 71.9995 149.547 71.8428 150.263C74.4932 151.969 76.7093 154.269 78.3149 156.982C80.5984 160.398 82.2659 164.188 83.2417 168.179L85.6827 166.903C87.4478 164.268 89.9363 162.199 92.8491 160.946C92.8491 160.946 97.1712 162.177 99.142 169.769C100.89 172.858 102.13 176.207 102.815 179.69Z" fill="#C23018"/>
<g style="mix-blend-mode:multiply" opacity="0.6">
<g style="mix-blend-mode:multiply" opacity="0.6">
<path d="M135.801 156.332C136.13 153.769 136.062 151.171 135.6 148.628C135.6 148.628 130.561 152.368 115.176 149.367C99.7907 146.367 93.4978 141.686 93.4978 141.686C93.4978 141.686 91.8405 141.126 91.2583 142.089C90.676 143.052 90.6984 144.329 89.9146 144.329C89.2503 144.424 88.5923 144.559 87.9438 144.732C98.4246 158.415 119.364 160.498 135.801 156.332Z" fill="#C23018"/>
</g>
</g>
<g style="mix-blend-mode:multiply">
<path d="M90.8999 162.043L91.6613 161.572C92.154 161.304 92.8706 160.901 93.7664 160.475C94.1919 160.251 94.6846 160.05 95.1997 159.826C95.7148 159.602 96.2747 159.4 96.8569 159.176C97.4392 158.952 98.0438 158.795 98.6485 158.616C99.282 158.433 99.9249 158.283 100.574 158.168L102.59 157.81L104.449 157.497L107.741 156.981L109.04 156.758L110.047 156.578L110.943 156.422L110.07 156.69L109.084 156.981C108.665 157.123 108.239 157.243 107.808 157.34L104.538 158.034L100.798 158.773C100.164 158.88 99.536 159.022 98.9172 159.199C98.3126 159.355 97.7079 159.49 97.1256 159.691C96.5434 159.893 95.9835 160.05 95.4684 160.251L94.0128 160.789L92.7811 161.281L91.8405 161.684L90.8999 162.043Z" fill="#C23018"/>
</g>
<g style="mix-blend-mode:multiply">
<path d="M98.2461 151.607C98.2461 151.607 98.4924 152.01 98.806 152.637C98.9627 152.928 99.1195 153.309 99.321 153.69C99.5226 154.07 99.7242 154.496 99.9033 154.899C100.082 155.302 100.284 155.75 100.463 156.131C100.642 156.511 100.799 156.915 100.911 157.228C101.065 157.592 101.192 157.966 101.292 158.348C101.292 158.348 101.001 157.99 100.598 157.407L99.9705 156.377L99.6346 155.795L99.3434 155.168L98.8284 153.891C98.688 153.517 98.5684 153.136 98.4701 152.749C98.367 152.375 98.2921 151.993 98.2461 151.607Z" fill="#C23018"/>
</g>
<path d="M71.7304 150.375C71.702 151.038 71.8325 151.699 72.1111 152.301L73.4548 151.607C72.9262 151.135 72.3481 150.722 71.7304 150.375Z" fill="#881E13"/>
<path d="M78.2024 157.071C76.8846 155.042 75.2947 153.204 73.4771 151.607L72.1334 152.301C72.1334 152.301 65.9748 154.989 54.8894 161.08L54.5087 161.282C53.7249 161.707 52.9411 162.2 52.1349 162.715C51.3287 163.23 50.3433 163.924 49.4251 164.596C48.5069 165.268 47.6783 165.94 46.8049 166.634C40.4746 171.971 34.5879 177.813 29.2026 184.102C30.0167 184.658 30.6582 185.431 31.0541 186.334C31.45 187.237 31.5845 188.232 31.4421 189.208C31.4421 189.208 34.0847 192.612 35.1372 191.447C40.186 185.542 45.9396 180.277 52.2692 175.771C53.0754 175.211 53.904 174.651 54.755 174.136L55.1134 173.912C56.1659 173.24 57.2185 172.613 58.271 171.986L60.5105 170.643C69.6923 165.335 77.9112 161.528 77.9112 161.528L80.1507 160.52C79.5696 159.333 78.9191 158.182 78.2024 157.071Z" fill="#F4D9BF"/>
<g style="mix-blend-mode:multiply">
<g style="mix-blend-mode:multiply">
<path d="M78.2026 157.071C76.8849 155.042 75.2949 153.204 73.4773 151.607L72.1336 152.301L69.603 153.488C72.3582 155.958 74.5174 159.021 75.9183 162.446L77.8667 161.528L80.1062 160.52C79.5397 159.334 78.904 158.183 78.2026 157.071Z" fill="#F4D9BF"/>
</g>
</g>
<path d="M92.7363 161.125C89.8235 162.379 87.335 164.447 85.57 167.082C84.096 169.614 83.2154 172.447 82.9946 175.368C82.9946 176.062 82.793 176.779 82.7258 177.607C82.7258 178.01 82.7258 178.481 82.5915 178.951C82.5915 180.048 82.3899 181.347 82.3003 182.736C82.3003 183.654 82.1659 184.617 82.0988 185.602C81.4717 195.366 80.8223 208.378 80.8223 208.378C81.7096 208.668 82.4974 209.202 83.0955 209.919C83.6935 210.635 84.0776 211.506 84.2039 212.431C85.6017 211.934 86.9389 211.28 88.1901 210.483C88.5376 210.163 88.8161 209.775 89.0087 209.344C89.2012 208.913 89.3037 208.447 89.3099 207.975C90.9598 201.245 92.1716 194.415 92.9378 187.528C93.0722 186.476 93.1842 185.446 93.2961 184.46C93.4081 183.475 93.5425 182.221 93.6545 181.146C93.7664 180.071 93.8336 179.265 93.9232 178.458C94.1023 176.577 94.2143 175.233 94.3039 174.674C94.3549 174.029 94.5505 173.405 94.8762 172.846C95.2019 172.288 95.6493 171.81 96.1851 171.449L99.0292 169.971C97.0585 162.289 92.7363 161.125 92.7363 161.125Z" fill="#F4D9BF"/>
<g style="mix-blend-mode:multiply">
<g style="mix-blend-mode:multiply">
<path d="M95.4687 171.247C95.6031 171.426 95.7598 171.561 95.8718 171.74L96.1853 171.516L99.0295 170.038C97.0587 162.446 92.7365 161.214 92.7365 161.214C91.3241 161.812 90.0103 162.619 88.8398 163.61C91.2033 166.018 93.4171 168.569 95.4687 171.247Z" fill="#F4D9BF"/>
</g>
</g>
<path d="M95.5586 110.154L90.8109 102.294C78.2046 109.518 67.7648 119.989 60.578 132.616C55.36 131.72 47.9474 137.969 46.6485 141.977C46.6051 142.083 46.5928 142.2 46.613 142.312C46.6331 142.425 46.685 142.53 46.7624 142.615C46.8399 142.699 46.9398 142.76 47.0505 142.79C47.1611 142.82 47.278 142.817 47.3875 142.783C48.6531 142.321 49.7841 141.551 50.6795 140.544C49.4588 141.996 48.4555 143.618 47.701 145.359C46.5589 148.136 48.4848 148.964 49.3806 147.419C50.3081 145.635 51.5702 144.046 53.0981 142.739C53.4077 142.475 53.7372 142.235 54.0835 142.022C53.4789 142.716 52.919 143.433 52.4263 144.105C51.0302 145.92 50.246 148.131 50.1868 150.42C50.1868 150.958 50.9482 150.935 51.2842 150.622C52.5631 148.952 53.7446 147.21 54.8225 145.404C55.4447 144.669 56.1263 143.988 56.8605 143.366C55.8292 144.843 55.1004 146.51 54.7161 148.27C54.3317 150.031 54.2994 151.85 54.621 153.622C54.7554 154.227 55.4944 154.182 55.8527 153.846C57.1435 152.356 58.0098 150.546 58.3609 148.606C59.1456 146.212 60.666 144.128 62.7055 142.649C62.8623 142.649 63.0414 142.38 63.1982 142.291C63.8252 143.276 66.4902 150.778 67.498 149.793C67.5378 149.723 67.5911 149.663 67.6547 149.614C67.7297 149.593 67.798 149.554 67.853 149.499C67.908 149.444 67.9477 149.375 67.9683 149.3C67.9574 149.234 67.9574 149.166 67.9683 149.099C68.3519 148.05 68.3519 146.9 67.9683 145.852C67.7218 143.2 66.9044 140.633 65.572 138.327C65.5829 138.178 65.5829 138.028 65.572 137.879C67.5876 133.176 78.6282 123.994 95.5586 110.154Z" fill="#F4D9BF"/>
<g style="mix-blend-mode:multiply">
<path d="M75.873 113.29C77.2154 116.44 79.3249 119.203 82.0092 121.329C85.9507 118.015 90.4296 114.282 95.4461 110.132L90.6984 102.271C85.338 105.344 80.3614 109.043 75.873 113.29Z" fill="#F4D9BF"/>
</g>
<path d="M76.6802 107.848C79.7192 114.298 84.7626 119.593 91.0576 122.942C91.0576 122.942 108.01 107.109 108.839 102.54C109.668 97.9715 105.233 84.4898 93.4315 93.8732C81.6294 103.257 76.6802 107.848 76.6802 107.848Z" fill="#065D89"/>
<g style="mix-blend-mode:multiply" opacity="0.5">
<path d="M98.7158 105.384C94.4457 110.158 89.8674 114.646 85.0103 118.821C86.8443 120.437 88.876 121.815 91.0568 122.919C91.0568 122.919 108.01 107.086 108.838 102.518C109.051 100.212 108.641 97.8923 107.651 95.7992C104.725 99.039 101.747 102.234 98.7158 105.384Z" fill="#065D89"/>
</g>
<path d="M105.344 88.9912C105.344 88.9912 97.7748 92.1936 94.5723 106.146C91.9746 117.343 89.6455 144.485 89.6455 144.485C89.6455 144.485 116.922 161.326 139.899 149.703C139.899 149.703 131.367 107.668 126.127 89.6854C121.224 88.0182 115.947 87.7928 110.921 89.036L105.344 88.9912Z" fill="#00ABD1"/>
<g style="mix-blend-mode:multiply" opacity="0.5">
<path d="M118.065 96.2471C119.408 104.444 127.224 142.537 129.464 153.331C133.114 152.55 136.651 151.309 139.989 149.636C139.989 149.636 131.457 107.601 126.216 89.6183C123.149 88.5497 119.892 88.1302 116.654 88.3865C117.236 90.9395 117.617 93.5821 118.065 96.2471Z" fill="#00ABD1"/>
</g>
<path d="M104.181 89.663C103.579 92.0267 103.744 94.5205 104.651 96.7845C105.059 97.6787 105.654 98.4754 106.394 99.1212C107.135 99.767 108.006 100.247 108.947 100.529C109.889 100.811 110.88 100.889 111.854 100.757C112.828 100.624 113.762 100.286 114.595 99.763C118.267 97.3444 119.432 92.8654 119.365 88.3865C116.534 88.2598 113.699 88.4779 110.922 89.0359H105.345C104.943 89.2176 104.554 89.4271 104.181 89.663Z" fill="#065D89"/>
<path d="M104.695 88.3865C104.834 91.1583 105.519 93.8754 106.711 96.3814C107.133 97.024 107.719 97.5428 108.407 97.8851C109.096 98.2274 109.863 98.3809 110.63 98.3298C111.507 98.3094 112.363 98.0505 113.105 97.5811C113.846 97.1116 114.446 96.4492 114.84 95.6648C115.436 92.9433 115.542 90.1375 115.154 87.3788L104.695 88.3865Z" fill="#F4D9BF"/>
<g style="mix-blend-mode:multiply">
<path d="M104.695 88.3865C104.834 91.1583 105.519 93.8754 106.711 96.3814C107.133 97.024 107.719 97.5428 108.407 97.8851C109.096 98.2274 109.863 98.3809 110.63 98.3298C111.507 98.3094 112.363 98.0505 113.105 97.5811C113.846 97.1116 114.446 96.4492 114.84 95.6648C115.436 92.9433 115.542 90.1375 115.154 87.3788L104.695 88.3865Z" fill="#F4D9BF"/>
</g>
<path d="M131.816 27.764C108.458 19.6795 100.463 20.2169 100.463 20.2169C100.463 20.2169 86.601 19.8138 83.2194 32.9148C79.8378 46.0157 84.3167 41.2456 76.5009 54.7496C68.6852 68.2537 78.942 81.6233 99.2988 88.073C119.656 94.5227 135.78 84.1091 138.422 80.9291C138.422 80.9291 145.746 83.9748 150.74 73.7852C155.734 63.5956 155.151 35.8709 131.816 27.764Z" fill="#F4D9BF"/>
<path d="M166.191 60.9977C166.191 60.9977 172.909 45.5453 164.131 33.8553C166.067 33.5641 168.045 33.8769 169.797 34.7511C169.797 34.7511 165.922 27.4952 158.263 28.2566C158.263 28.2566 160.772 25.6364 159.293 19.2987C157.506 21.2256 156.316 23.6293 155.867 26.2187C155.867 26.2187 156.852 7.38468 125.992 0.845408C126.928 1.41777 127.657 2.27258 128.075 3.28644C128.075 3.28644 95.8715 -9.83689 74.5069 16.365C77.1784 15.1582 80.128 14.7014 83.0393 15.0437C83.0393 15.0437 75.3803 17.9102 72.5586 29.757C74.9789 27.2046 78.0187 25.3222 81.3821 24.2927C80.5627 25.6921 79.9445 27.1999 79.5458 28.7717C79.5458 28.7717 83.644 23.6209 93.4753 22.5459C93.4753 22.5459 88.5261 23.912 86.3762 31.9965C91.5819 28.7634 97.7442 27.4266 103.822 28.2118C101.083 29.1675 98.8306 31.1626 97.5511 33.7657C105.255 32.9845 113.027 33.1726 120.685 34.3256C118.963 35.1815 117.437 36.3865 116.206 37.8639C119.214 38.1988 122.259 37.9323 125.164 37.0801C125.164 37.0801 121.984 45.8365 125.545 50.3154C128.896 47.747 131.565 44.3938 133.316 40.5513C133.316 40.5513 133.181 51.032 136.204 53.7642C136.204 53.7642 137.996 53.0924 139.273 48.5686C139.287 55.0887 138.756 61.5985 137.683 68.0297C139.901 68.0748 142.081 67.4419 143.931 66.2157C143.671 67.2573 143.326 68.2759 142.901 69.2614C143.682 68.2139 144.683 67.3502 145.834 66.7308C147.693 65.7678 151.119 66.5068 149.977 71.9487C148.835 77.3907 142.408 82.2055 139.855 75.823C139.855 75.823 137.862 81.3098 129.912 86.5053C134.599 86.449 139.206 85.2743 143.348 83.0789C146.2 81.4949 148.676 79.3145 150.609 76.6865C152.541 74.0584 153.884 71.0446 154.546 67.8505V75.1512C157.625 72.5015 160.011 69.1392 161.494 65.357C162.977 61.5748 163.513 57.4874 163.056 53.4507C164.649 55.7019 165.72 58.2802 166.191 60.9977Z" fill="#F4A007"/>
<g style="mix-blend-mode:multiply" opacity="0.5">
<path d="M81.3373 24.2928C82.197 22.1406 83.502 20.1945 85.1668 18.5822C81.9196 20.5529 78.7619 22.7028 75.6491 24.8975C75.5662 24.9452 75.4702 24.9651 75.3751 24.9543C75.2801 24.9435 75.191 24.9025 75.1209 24.8375C75.0508 24.7724 75.0034 24.6866 74.9856 24.5926C74.9678 24.4986 74.9806 24.4014 75.022 24.3152C79.1426 16.4099 87.4511 13.1178 95.7372 11.1919C90.2084 11.4988 84.7357 12.4611 79.4338 14.0584C79.3498 14.0854 79.2597 14.087 79.1749 14.063C79.09 14.039 79.0141 13.9904 78.9567 13.9235C78.8993 13.8565 78.8629 13.7741 78.8522 13.6865C78.8414 13.599 78.8568 13.5102 78.8963 13.4314C80.0373 11.4891 81.4557 9.72368 83.1065 8.19098C79.9073 10.5428 77.018 13.2892 74.5069 16.3651C77.1784 15.1583 80.128 14.7015 83.0393 15.0438C83.0393 15.0438 75.3803 17.9103 72.5586 29.7571C74.9562 27.2147 77.9737 25.3394 81.3149 24.3152L81.3373 24.2928Z" fill="#D09306"/>
</g>
<g style="mix-blend-mode:multiply" opacity="0.5">
<path d="M164.131 33.8552C164.921 33.7937 165.715 33.7937 166.505 33.8552C165.564 33.6089 164.624 33.4073 163.661 33.1386C162.228 32.5891 160.715 32.2789 159.182 32.2204C162.028 34.3095 164.248 37.1375 165.602 40.3982C166.956 43.6588 167.392 47.2278 166.863 50.7185C166.834 50.8081 166.777 50.8861 166.7 50.9414C166.624 50.9967 166.532 51.0265 166.438 51.0265C166.343 51.0265 166.251 50.9967 166.175 50.9414C166.098 50.8861 166.041 50.8081 166.012 50.7185C163.974 45.9932 161.332 40.5961 156.875 37.6623C159.114 44.5151 161.488 51.0992 160.234 58.4895C160.234 59.0269 159.45 58.8926 159.383 58.4895C158.994 55.2564 157.792 52.1746 155.89 49.5316C155.525 52.8476 154.773 56.1096 153.65 59.2509C153.516 59.6092 152.956 59.5196 152.844 59.2509C151.538 55.5279 150.431 51.7377 149.529 47.8967C148.821 51.5435 147.323 54.991 145.14 57.9968C144.939 58.2879 144.513 57.9968 144.401 57.8176C142.021 51.5186 141.006 44.7861 141.423 38.0654C140.11 41.6851 138.357 45.1298 136.205 48.3222C136.003 48.6134 135.51 48.6806 135.398 48.3222C134.448 44.1969 134.019 39.9686 134.122 35.7364C134.122 34.6614 134.122 33.4969 134.122 32.4444C132.398 37.5504 130.337 42.4548 125.881 45.8812C125.818 45.9259 125.744 45.9527 125.667 45.9586C125.59 45.9646 125.513 45.9495 125.444 45.915C125.375 45.8804 125.317 45.8278 125.275 45.7627C125.234 45.6976 125.211 45.6224 125.209 45.5453C125.305 41.39 126.42 37.3218 128.456 33.6985C125.791 35.9779 122.377 37.1904 118.871 37.1025C118.788 37.0806 118.712 37.035 118.654 36.9711C118.596 36.9073 118.557 36.8281 118.543 36.7429C118.529 36.6577 118.539 36.5702 118.574 36.4909C118.608 36.4117 118.665 36.3441 118.737 36.2963C122.023 34.2224 125.2 31.9799 128.254 29.5778C120.26 31.1903 112.018 30.4064 103.889 31.4814C103.802 31.4849 103.716 31.463 103.641 31.4182C103.566 31.3734 103.506 31.3078 103.468 31.2293C103.43 31.1508 103.415 31.0629 103.427 30.9764C103.438 30.8899 103.474 30.8086 103.531 30.7424C107.754 27.2177 112.737 24.7189 118.087 23.4417C114.706 24.0687 111.369 24.9197 107.942 25.39C102.053 26.2186 96.1628 26.0171 90.4521 27.9878C90.36 28.0149 90.2615 28.0117 90.1713 27.9785C90.0812 27.9454 90.004 27.8842 89.9513 27.8039C89.8986 27.7235 89.8731 27.6284 89.8786 27.5325C89.8841 27.4366 89.9203 27.3449 89.9819 27.2712C93.6567 22.622 98.6176 19.1563 104.247 17.3055C96.3196 17.8878 88.9517 21.2694 81.9645 24.9869C81.8936 25.0282 81.8128 25.0493 81.7307 25.0478C81.6487 25.0463 81.5686 25.0223 81.4993 24.9784C81.4299 24.9345 81.374 24.8724 81.3376 24.7988C81.3012 24.7253 81.2856 24.6432 81.2927 24.5614C80.5144 25.8911 79.9264 27.3234 79.5459 28.8164C79.5459 28.8164 83.6441 23.6656 93.4754 22.5907C93.4754 22.5907 88.5262 23.9568 86.3763 32.0413C91.5821 28.8082 97.7443 27.4713 103.822 28.2566C101.083 29.2123 98.8308 31.2073 97.5513 33.8104C105.256 33.0293 113.028 33.2174 120.685 34.3703C118.963 35.2263 117.437 36.4313 116.206 37.9087C119.215 38.2435 122.259 37.9771 125.164 37.1249C125.164 37.1249 121.984 45.8364 125.545 50.3154C128.896 47.7469 131.565 44.3938 133.316 40.5513C133.316 40.5513 133.181 51.032 136.205 53.7642C136.205 53.7642 137.996 53.0923 139.273 48.5686C139.288 55.0886 138.756 61.5985 137.683 68.0296C139.901 68.0747 142.081 67.4419 143.931 66.2156C143.671 67.2573 143.326 68.2759 142.901 69.2613C143.682 68.2139 144.684 67.3502 145.834 66.7307C147.693 65.7678 151.12 66.5068 149.977 71.9487C148.835 77.3906 142.408 82.2055 139.855 75.823C139.855 75.823 137.862 81.3097 129.912 86.5053C134.6 86.449 139.206 85.2743 143.349 83.0789C146.2 81.4948 148.676 79.3144 150.609 76.6864C152.541 74.0584 153.884 71.0446 154.546 67.8505V75.1512C157.625 72.5014 160.011 69.1391 161.494 65.357C162.977 61.5748 163.513 57.4874 163.056 53.4506C164.625 55.7078 165.673 58.2857 166.124 60.9977C166.124 60.9977 172.932 45.5453 164.131 33.8552Z" fill="#D09306"/>
</g>
<path d="M89.445 59.4301C90.0762 59.2134 90.6138 58.7865 90.9678 58.2208C91.2065 57.8372 91.367 57.4102 91.44 56.9644C91.513 56.5185 91.4972 56.0626 91.3933 55.623C91.3933 55.4662 91.1246 55.4438 91.1246 55.623C91.0549 56.3933 90.7588 57.1257 90.2736 57.7281C89.9153 58.176 89.3554 58.2655 88.9075 58.5343C87.9445 57.1458 86.668 56.2948 85.6155 57.7953C85.1767 58.4682 84.8786 59.2229 84.739 60.014C84.5995 60.805 84.6213 61.6162 84.8033 62.3986C84.9854 63.181 85.3237 63.9186 85.7981 64.5668C86.2725 65.2151 86.8731 65.7607 87.5638 66.1709C87.6982 66.1709 87.8102 66.0365 87.6982 65.9693C86.7575 65.2182 86.0643 64.2015 85.7089 63.0513C85.3535 61.9011 85.3521 60.6706 85.7051 59.5197C85.8842 58.803 86.4889 57.6161 87.6534 58.3551C88.1601 58.8065 88.5713 59.3548 88.8627 59.9676C89.5555 61.0396 90.1193 62.1897 90.5423 63.3939C90.5423 63.5731 90.8335 63.3939 90.8335 63.3939C90.6054 62.0018 90.1355 60.6603 89.445 59.4301Z" fill="#C39368"/>
<path d="M85.0326 51.1664C84.54 53.1596 83.5322 54.5928 82.7932 54.3913C82.0541 54.1897 81.875 52.4205 82.3901 50.4274C82.9051 48.4343 83.9129 47.001 84.6295 47.225C85.3462 47.4489 85.5477 49.1957 85.0326 51.1664Z" fill="#3C1C11"/>
<path d="M83.9138 49.2629C83.7122 49.8452 83.3763 50.2483 83.1747 50.1587C82.9732 50.0691 82.9284 49.5316 83.1747 48.9494C83.4211 48.3671 83.7122 47.9416 83.9138 48.0312C84.1153 48.1208 84.1153 48.6582 83.9138 49.2629Z" fill="white"/>
<path d="M105.771 57.0339C105.166 59.2734 103.979 60.9754 103.128 60.7514C102.277 60.5275 102.098 58.5119 102.725 56.2725C103.352 54.033 104.494 52.331 105.345 52.5549C106.196 52.7789 106.376 54.7944 105.771 57.0339Z" fill="#3C1C11"/>
<path d="M104.471 54.7944C104.247 55.4663 103.866 55.9366 103.62 55.847C103.374 55.7574 103.351 55.1527 103.62 54.4809C103.889 53.809 104.247 53.3164 104.493 53.4059C104.74 53.4955 104.829 54.1674 104.471 54.7944Z" fill="white"/>
<g style="mix-blend-mode:multiply">
<path d="M115.624 64.469C115.49 65.6783 112.915 66.3725 109.846 66.0142C106.778 65.6559 104.405 64.3794 104.516 63.1701C104.628 61.9608 107.226 61.2441 110.294 61.6025C113.362 61.9608 115.736 63.2597 115.624 64.469Z" fill="#FACCC1"/>
</g>
<g style="mix-blend-mode:multiply">
<path d="M84.4287 58.2431C83.9584 59.3628 81.9877 59.5868 79.9497 58.7582C77.9118 57.9296 76.7921 56.3171 77.2624 55.175C77.7327 54.0329 79.681 53.8089 81.7413 54.6599C83.8016 55.5109 84.899 57.0338 84.4287 58.2431Z" fill="#FACCC1"/>
</g>
<path d="M149.956 112.864C144.503 117.892 138.024 121.674 130.965 123.949C130.965 123.949 119.028 104.891 119.051 100.256C119.073 95.6199 125.769 83.1684 135.757 94.5226C140.931 100.282 145.676 106.412 149.956 112.864Z" fill="#171D36"/>
<path d="M134.592 113.2L142.901 109.236C142.901 109.236 155.263 128.361 151.657 151.092C156.315 153.555 158.376 163.028 156.987 166.992C156.963 167.104 156.906 167.206 156.825 167.286C156.743 167.366 156.64 167.42 156.527 167.441C156.415 167.462 156.299 167.45 156.194 167.407C156.088 167.363 155.998 167.289 155.934 167.194C155.201 166.038 154.784 164.709 154.725 163.342C154.793 165.24 154.605 167.138 154.165 168.985C153.381 171.874 151.344 171.225 151.568 169.59C151.928 167.609 151.889 165.576 151.456 163.611C151.372 163.207 151.26 162.811 151.12 162.424C151.12 163.342 151.12 164.26 151.12 165.111C151.068 167.401 150.283 169.615 148.88 171.426C148.455 171.785 147.962 171.426 147.895 170.934C147.896 168.824 148.008 166.716 148.231 164.618C148.191 163.654 148.072 162.696 147.872 161.752C147.798 163.566 147.364 165.348 146.595 166.994C145.826 168.639 144.738 170.116 143.393 171.337C142.901 171.717 142.341 171.337 142.251 170.754C142.16 168.783 142.584 166.823 143.483 165.066C144.307 162.687 144.361 160.11 143.64 157.698C143.601 157.498 143.541 157.303 143.461 157.116C142.363 157.519 135.712 161.841 135.51 160.453C135.499 160.379 135.499 160.303 135.51 160.229C135.466 160.163 135.443 160.085 135.443 160.005C135.443 159.925 135.466 159.847 135.51 159.781C135.51 159.781 135.51 159.781 135.51 159.602C135.822 158.534 136.495 157.608 137.414 156.982C139.227 155.044 141.434 153.517 143.886 152.503C143.886 152.503 144.11 152.301 144.222 152.189C145.745 147.15 145.409 130.265 134.592 113.2Z" fill="#F4D9BF"/>
<g style="mix-blend-mode:multiply">
<path d="M146.238 115.619C145.266 113.42 144.152 111.288 142.901 109.236L134.592 113.2C135.844 115.198 136.988 117.261 138.019 119.381C140.495 117.616 143.284 116.339 146.238 115.619Z" fill="#F4D9BF"/>
</g>
<path d="M149.956 112.864C145.676 106.412 140.931 100.282 135.757 94.5227C125.859 83.1685 119.073 95.5976 119.051 100.256C119.028 104.914 130.965 123.949 130.965 123.949C135.892 111.632 149.956 112.864 149.956 112.864Z" fill="#065D89"/>
<g style="mix-blend-mode:multiply" opacity="0.5">
<g style="mix-blend-mode:multiply" opacity="0.5">
<path d="M133.943 119.023C130.491 112.993 127.417 106.756 124.739 100.345C123.577 97.797 122.893 95.0566 122.723 92.261C120.609 94.4218 119.304 97.2453 119.028 100.256C119.028 104.892 130.942 123.95 130.942 123.95C131.66 122.151 132.674 120.486 133.943 119.023Z" fill="#065D89"/>
</g>
</g>
<path d="M26.0451 189.723C28.4785 190.312 30.9469 190.746 33.4354 191.022C33.4354 191.022 34.1968 189.051 35.4061 191.761C36.6154 194.47 33.0099 200.539 32.0693 202.017C31.1287 203.495 19.5954 204.257 10.5255 198.009C1.45566 191.761 0 185.916 0 185.916C0 185.916 2.9785 176.465 7.32308 177.876C11.6677 179.287 12.6306 182.915 16.4154 183.81C18.4782 184.527 20.6376 184.927 22.8203 184.997C25.5972 185.042 26.5602 187.058 26.0451 189.723Z" fill="#F1A41B"/>
<path opacity="0.6" d="M10.5255 198.121C11.213 197.261 11.8415 196.356 12.4067 195.411C13.9386 193.186 14.8295 190.583 14.9821 187.886C14.8143 185.681 14.0391 183.565 12.7426 181.773C11.2473 180.11 9.39432 178.808 7.32308 177.965C2.9785 176.555 0 186.005 0 186.005C0 186.005 1.45566 191.85 10.5255 198.098V198.121Z" fill="white"/>
<path d="M15.3628 196.217C10.4359 193.261 3.24724 188.312 1.59003 182.153C0.963173 183.364 0.431559 184.622 0 185.916C0 185.916 1.45566 191.761 10.5255 198.009C19.5954 204.257 31.1063 203.495 32.0693 202.017C32.3604 201.569 32.8979 200.696 33.4578 199.621C27.2127 200.757 20.7681 199.545 15.3628 196.217Z" fill="#482D14"/>
<path opacity="0.4" d="M26.2242 195.501C21.5437 194.985 17.8486 192.141 14.1535 189.544C11.1526 187.438 5.50909 183.654 5.86741 179.444C5.86741 179.242 5.62107 179.242 5.50909 179.444C3.26962 182.579 9.38339 187.349 11.4885 188.849C15.7883 191.917 20.7823 195.568 26.2018 195.568C26.269 195.59 26.269 195.523 26.2242 195.501Z" fill="white"/>
<path d="M84.8978 214.267C84.8978 214.267 81.5834 209.968 77.9554 211.804C74.3275 213.64 77.5075 214.85 68.9975 220.157C60.4875 225.465 57.621 226.405 61.3609 231.355C61.3609 231.355 70.0725 237.737 84.1812 232.004C98.2899 226.271 95.6249 223.628 95.6249 223.628C96.2565 221.618 96.3826 219.484 95.9919 217.413C95.6013 215.343 94.706 213.401 93.3854 211.759C93.3854 211.759 93.1167 206.698 87.3388 207.997C87.8482 209.334 88.1649 210.736 88.2794 212.162C87.2439 213.002 86.108 213.709 84.8978 214.267Z" fill="#F1A41B"/>
<path opacity="0.6" d="M79.68 229.048C79.8816 222.733 73.9022 220.09 68.3259 220.538C60.2638 225.487 57.666 226.54 61.3164 231.422C61.3164 231.422 67.8556 236.214 78.7619 233.661C79.2845 232.175 79.5937 230.621 79.68 229.048Z" fill="white"/>
<path d="M95.5811 223.696C95.9211 222.729 96.1172 221.718 96.1633 220.695C90.5548 225.594 83.6626 228.787 76.2992 229.899C72.2681 230.325 62.1905 231.265 60.175 226.361C59.3016 227.749 59.6375 229.182 61.3171 231.422C61.3171 231.422 70.0286 237.804 84.1373 232.071C98.246 226.338 95.5811 223.696 95.5811 223.696Z" fill="#482D14"/>
<path opacity="0.4" d="M92.2886 219.664C83.3307 223.494 74.0145 229.406 64.004 226.92C63.8473 226.92 63.8025 227.122 64.004 227.189C68.483 229.608 74.1265 228.398 78.6054 226.831C83.4024 224.894 88.0314 222.564 92.4454 219.866C92.4454 219.866 92.3782 219.62 92.2886 219.664Z" fill="white"/>
<path d="M82.6592 44.2239C83.4227 43.774 84.2755 43.4967 85.1576 43.4116C86.0397 43.3265 86.9297 43.4356 87.7652 43.7313C87.7652 43.7313 89.8703 44 90.3854 42.8803C90.5688 42.5926 90.6662 42.2585 90.6662 41.9173C90.6662 41.5761 90.5688 41.242 90.3854 40.9543C89.7359 39.9689 89.8031 42.0964 87.9667 41.8725C86.1304 41.6485 83.1743 42.1412 82.6592 44.2239Z" fill="#A95B17"/>
<path d="M109.084 49.7331C108.528 49.0422 107.826 48.483 107.029 48.0958C106.231 47.7086 105.358 47.5029 104.471 47.4936C104.471 47.4936 102.388 47.0233 102.231 45.7916C102.157 45.46 102.181 45.1139 102.3 44.7957C102.42 44.4774 102.629 44.2009 102.903 44C103.844 43.2834 103.06 45.2765 104.874 45.6796C106.688 46.0827 109.308 47.6056 109.084 49.7331Z" fill="#A95B17"/>
<path d="M104.629 78.6448C104.629 78.6448 98.0447 75.7783 93.4314 79.675C92.1101 80.7947 97.3281 79.675 100.777 80.4588C104.226 81.2426 105.86 83.6164 106.488 83.1909C110.093 80.7723 104.629 78.6448 104.629 78.6448Z" fill="#E98890"/>
<path d="M87.1602 207.751C87.1602 246.09 114.034 277.174 146.977 277.174C179.919 277.174 206.793 246.09 206.793 207.751C206.793 169.411 179.919 138.327 146.977 138.327C114.034 138.327 87.1602 169.411 87.1602 207.751ZM94.2369 207.751C94.2369 173.061 118.11 145.045 147.559 145.045C177.008 145.045 200.903 173.173 200.903 207.862C200.903 242.552 177.03 270.702 147.559 270.702C118.087 270.702 94.2369 242.462 94.2369 207.751Z" fill="#6E4C4A"/>
<path d="M187.914 117.231H156.919V121.105H187.914V117.231Z" fill="#CCA88E"/>
<path d="M124.336 124.643C123.127 123.877 122.263 122.671 121.925 121.281C121.587 119.89 121.8 118.422 122.522 117.186C123.512 115.816 124.831 114.717 126.357 113.989C127.883 113.262 129.567 112.928 131.256 113.021H161.556L159.719 122.718L124.336 124.643Z" fill="#AD827D"/>
<path d="M183.526 118.843C183.637 118.137 183.948 117.478 184.423 116.943C184.897 116.409 185.515 116.021 186.202 115.827C186.89 115.632 187.619 115.639 188.304 115.846C188.988 116.053 189.598 116.452 190.063 116.995C190.527 117.539 190.826 118.204 190.924 118.912C191.023 119.62 190.916 120.341 190.617 120.99C190.318 121.639 189.839 122.189 189.237 122.575C188.635 122.96 187.935 123.165 187.221 123.166C186.161 123.074 185.179 122.57 184.488 121.761C183.797 120.953 183.451 119.905 183.526 118.843Z" fill="#CCA88E"/>
<path d="M160.413 113.021C158.958 116.783 149.216 120.366 136.944 121.374C131.922 121.828 126.865 121.7 121.872 120.993C122.23 122.465 123.104 123.76 124.335 124.644H161.556V113.021H160.413Z" fill="#916D67"/>
<path d="M166.505 142.134C168.473 145.206 170.217 148.417 171.723 151.741C189.034 162.132 200.836 183.295 200.836 207.728C200.836 242.44 176.963 270.568 147.491 270.568C135.377 270.449 123.751 265.771 114.929 257.467C108.324 255.207 102.309 251.496 97.3271 246.605C108.099 265.036 126.284 277.152 146.909 277.152C179.941 277.152 206.726 246.068 206.726 207.728C206.793 177.361 189.929 151.54 166.505 142.134Z" fill="#563534"/>
<path d="M140.035 261.61L138.691 261.274L165.744 155.951L167.087 156.287L140.035 261.61Z" fill="#CCA88E"/>
<path d="M195.35 223.449L103.554 191.134L104.024 189.835L195.82 222.15L195.35 223.449Z" fill="#CCA88E"/>
<path d="M169.595 257.556L134.525 154.966L135.846 154.518L170.894 257.109L169.595 257.556Z" fill="#CCA88E"/>
<path d="M108.816 233.997L108.122 232.81L192.796 184.594L193.49 185.781L108.816 233.997Z" fill="#CCA88E"/>
<path d="M98.9624 207.75C98.9624 240.402 121.133 266.873 148.477 266.873C175.821 266.873 198.014 240.402 198.014 207.75C198.014 175.099 175.844 148.628 148.477 148.628C121.111 148.628 98.9624 175.099 98.9624 207.75ZM104.068 207.75C104.068 178.212 124.492 154.249 149.664 154.249C174.836 154.249 195.26 178.212 195.26 207.75C195.26 237.289 174.836 261.274 149.619 261.274C124.403 261.274 104.068 237.312 104.068 207.75Z" fill="#E8C3A7"/>
</svg>
