<svg width="87" height="87" viewBox="0 0 87 87" fill="none" xmlns="http://www.w3.org/2000/svg">
<path d="M79.7499 12.8937H51.3781C50.4326 10.198 48.2201 8.14128 45.4628 7.39482C42.7054 6.64835 39.7575 7.30816 37.5813 9.15861L29.7929 1.37007C28.0966 -0.245209 25.432 -0.248098 23.7323 1.36378C22.1604 2.90548 22.0331 5.39501 23.4397 7.08896C24.0477 8.96642 24.1238 10.9756 23.6596 12.8937H7.25006C3.24789 12.8982 0.00475781 16.1415 0 20.1435V67.9935C0.00475781 71.9957 3.24789 75.2388 7.25006 75.2436H30.45V78.1437H20.3001C19.4992 78.1437 18.8501 78.7928 18.8501 79.5936V85.3935C18.8501 86.1944 19.4992 86.8435 20.3001 86.8435H66.7001C67.501 86.8435 68.1501 86.1944 68.1501 85.3935V79.5936C68.1501 78.7928 67.5008 78.1437 66.7001 78.1437H56.55V75.2436H79.7499C83.7521 75.2388 86.9952 71.9957 87 67.9935V20.1435C86.9952 16.1415 83.7521 12.8982 79.7499 12.8937ZM45.2145 10.3554C47.1 11.0546 48.4886 12.6811 48.8835 14.6529H48.8836C48.9615 15.028 48.999 15.4104 48.9954 15.7935C48.998 17.0846 48.5667 18.3391 47.7708 19.3558L39.6305 11.2213C41.2157 9.98375 43.3291 9.65614 45.2145 10.3554ZM25.7758 3.42119C26.0341 3.15935 26.3851 3.00964 26.7528 3.00489C27.1246 3.00778 27.4803 3.15714 27.7426 3.42052L36.4312 12.1091C36.4666 12.1542 36.5047 12.197 36.5453 12.2373L55.8435 31.5227C56.1089 31.7844 56.2576 32.1419 56.2562 32.5147C56.2564 32.8783 56.1101 33.2267 55.8504 33.4811L55.8363 33.4952C55.582 33.7545 55.234 33.9008 54.8707 33.9009H54.8657C54.4946 33.9008 54.139 33.7523 53.878 33.4882L25.7765 5.38651C25.5117 5.12415 25.363 4.76664 25.3637 4.39383C25.3647 4.02748 25.5133 3.67693 25.7758 3.42119ZM26.8604 10.5715L28.8509 12.562L48.6884 32.4009C39.7981 32.6498 29.1543 40.8461 25.8314 43.5897L15.6709 33.4292C18.4144 30.1062 26.6108 19.4623 26.8604 10.5715ZM6.73961 44.5756C6.17462 44.0086 6.17462 43.0915 6.73961 42.5245L13.7028 35.5619L23.6985 45.5576L17.0173 52.2392L16.7359 52.5208C16.1689 53.0858 15.2518 53.0858 14.6848 52.5208L6.73961 44.5756ZM11.6524 53.5893L9.73024 55.5114C8.59652 56.6414 6.76238 56.6414 5.62883 55.5114L3.74984 53.6316C3.20592 53.0877 2.90023 52.35 2.90023 51.5808C2.90023 50.8116 3.20592 50.0739 3.74984 49.53L5.67131 47.6079L11.6524 53.5893ZM23.2766 50.0806L25.7489 47.608L35.7453 57.6044L32.9543 60.3953L20.1026 53.255L23.2766 50.0806ZM2.90006 20.1435C2.90261 17.7422 4.84872 15.7961 7.25006 15.7935H22.8701C20.5988 22.3891 15.3417 29.4531 12.6361 32.5278L4.68916 40.474C3.40948 41.7607 3.06403 43.7071 3.82307 45.3555L2.90006 46.2787V20.1435ZM2.90006 56.8832L3.57838 57.5617C5.84514 59.8227 9.51393 59.8227 11.7807 57.5617L13.9052 55.4372C15.1479 56.0266 16.6002 55.9717 17.7949 55.2904L27.6106 60.7435H2.90006V56.8832ZM65.25 81.0435V83.9436H21.75V81.0435H65.25ZM33.3501 78.1437V75.2436H53.6501V78.1437H33.3501ZM84.0999 67.9935C84.0974 70.3949 82.1513 72.341 79.7499 72.3435H7.25006C4.84872 72.341 2.90261 70.3949 2.90006 67.9935V63.6436H84.1001V67.9935H84.0999ZM84.0999 60.7437H36.7067L38.8209 58.6295C39.0929 58.3576 39.2457 57.9889 39.2457 57.6044C39.2457 57.2198 39.0929 56.8511 38.8209 56.5792L27.8883 45.6466C33.2311 41.2529 45.1615 33.1876 52.1686 35.8197C52.9266 36.4499 53.88 36.7967 54.8657 36.801H54.8798C56.6141 36.7956 58.1743 35.7465 58.8339 34.1426C59.4934 32.5387 59.1224 30.6955 57.8939 29.4716L49.8243 21.4078C51.1618 19.8431 51.8963 17.852 51.8955 15.7935H79.7499C82.1513 15.7961 84.0974 17.7422 84.0999 20.1435V60.7437Z" fill="#2B3B46"/>
<path d="M55.1001 46.2436H68.1501C68.9509 46.2436 69.6 45.5945 69.6 44.7937C69.6 43.9929 68.9509 43.3438 68.1501 43.3438H55.1001C54.2992 43.3438 53.6501 43.993 53.6501 44.7937C53.6501 45.5944 54.2992 46.2436 55.1001 46.2436Z" fill="#2B3B46"/>
<path d="M65.2502 40.4436H69.6002C70.4011 40.4436 71.0502 39.7945 71.0502 38.9936C71.0502 38.1928 70.4011 37.5437 69.6002 37.5437H65.2502C64.4494 37.5437 63.8003 38.1928 63.8003 38.9936C63.8003 39.7945 64.4494 40.4436 65.2502 40.4436Z" fill="#2B3B46"/>
<path d="M79.7499 37.5437H75.3999C74.5991 37.5437 73.95 38.1928 73.95 38.9936C73.95 39.7945 74.5991 40.4436 75.3999 40.4436H79.7499C80.5507 40.4436 81.1998 39.7945 81.1998 38.9936C81.1998 38.1928 80.5507 37.5437 79.7499 37.5437Z" fill="#2B3B46"/>
<path d="M79.7499 43.3438H73.9499C73.1491 43.3438 72.5 43.993 72.5 44.7937C72.5 45.5944 73.1491 46.2436 73.9499 46.2436H79.7499C80.5507 46.2436 81.1998 45.5945 81.1998 44.7937C81.1998 43.9929 80.5507 43.3438 79.7499 43.3438Z" fill="#2B3B46"/>
<path d="M76.8503 49.1436H58.0001C55.5978 49.1436 53.6501 51.091 53.6501 53.4936C53.6501 55.8961 55.5978 57.8436 58.0001 57.8436H76.8501C79.2525 57.8436 81.2001 55.8959 81.2001 53.4936C81.2001 51.0912 79.2526 49.1436 76.8503 49.1436ZM76.8503 54.9435H58.0001C57.1993 54.9435 56.5502 54.2944 56.5502 53.4936C56.5502 52.6927 57.1995 52.0436 58.0001 52.0436H76.8501C77.6509 52.0436 78.3 52.6927 78.3 53.4936C78.3 54.2944 77.6509 54.9435 76.8503 54.9435Z" fill="#2B3B46"/>
</svg>
