<svg width="172" height="236" viewBox="0 0 172 236" fill="none" xmlns="http://www.w3.org/2000/svg">
<path d="M103.709 154.443L110.338 143.487C127.919 153.57 142.484 168.171 152.523 185.776C159.782 184.571 170.136 193.281 171.944 198.868C172 199.015 172.014 199.173 171.986 199.327C171.957 199.481 171.886 199.624 171.781 199.74C171.676 199.856 171.541 199.941 171.391 199.986C171.241 200.03 171.082 200.032 170.931 199.991C169.138 199.325 167.552 198.201 166.329 196.732C168.033 198.767 169.435 201.036 170.492 203.47C172.081 207.332 169.369 208.482 168.137 206.209C166.853 203.703 165.084 201.478 162.932 199.663C162.497 199.297 162.039 198.958 161.562 198.649C162.388 199.585 163.165 200.564 163.891 201.58C165.806 204.126 166.861 207.214 166.904 210.399C166.739 211.111 165.808 211.111 165.37 210.673C163.58 208.341 161.924 205.908 160.412 203.388C159.576 202.4 158.66 201.484 157.672 200.649C160.592 204.802 161.744 209.944 160.877 214.946C160.658 215.768 159.617 215.713 159.124 215.247C157.327 213.157 156.126 210.621 155.645 207.907C154.517 204.605 152.392 201.734 149.564 199.69L148.879 199.197C148.003 200.594 144.305 211.057 142.908 209.66L142.798 209.468C142.689 209.448 142.589 209.395 142.511 209.317C142.433 209.239 142.38 209.139 142.36 209.03C142.36 209.03 142.36 208.838 142.36 208.756C141.837 207.295 141.837 205.698 142.36 204.237C142.622 200.503 143.707 196.874 145.538 193.61C145.526 193.4 145.526 193.189 145.538 192.98C142.798 186.543 127.321 173.862 103.709 154.443Z" fill="#F4D9BF"/>
<g style="mix-blend-mode:multiply">
<path d="M131.184 158.798C129.306 163.204 126.348 167.067 122.582 170.027C117.104 165.426 110.813 160.231 103.709 154.443L110.338 143.487C117.857 147.765 124.853 152.903 131.184 158.798Z" fill="#F4D9BF"/>
</g>
<path d="M130.06 151.238C125.775 160.232 118.718 167.614 109.926 172.3C109.926 172.3 86.2591 150.197 85.2729 143.815C84.2868 137.434 90.2858 118.645 106.749 131.737C123.212 144.829 130.06 151.238 130.06 151.238Z" fill="#065D89"/>
<g style="mix-blend-mode:multiply" opacity="0.5">
<path d="M99.2985 147.787C105.275 154.46 111.68 160.736 118.473 166.576C115.869 168.826 112.999 170.748 109.927 172.3C109.927 172.3 86.2595 150.197 85.2734 143.815C84.9538 140.593 85.5221 137.344 86.917 134.421C90.9163 138.94 95.08 143.377 99.2985 147.787Z" fill="#065D89"/>
</g>
<path d="M90.0671 124.917C90.0671 124.917 100.586 129.381 105.078 148.828C108.694 164.495 111.954 202.319 111.954 202.319C111.954 202.319 73.9054 225.847 41.8559 209.605C41.8559 209.605 53.7443 150.964 61.0308 125.875C61.0308 125.875 68.8925 122.342 82.2327 124.972L90.0671 124.917Z" fill="#00ABD1"/>
<g style="mix-blend-mode:multiply" opacity="0.5">
<path d="M72.2896 135.051C70.4269 146.472 59.5246 199.608 56.5114 214.782C51.4264 213.685 46.5017 211.945 41.8562 209.605C41.8562 209.605 53.7447 150.964 61.0312 125.875C65.2865 124.357 69.8091 123.733 74.3167 124.04C73.4675 127.628 72.9196 131.299 72.2896 135.051Z" fill="#00ABD1"/>
</g>
<path d="M91.6564 125.848C92.5172 129.146 92.2866 132.634 90.999 135.79C90.4295 137.046 89.5972 138.166 88.5582 139.073C87.5191 139.98 86.2976 140.653 84.976 141.048C83.6544 141.442 82.2636 141.549 80.8973 141.36C79.531 141.171 78.2212 140.692 77.0561 139.954C72.098 136.557 70.3175 130.176 70.3997 124.068C74.3481 123.887 78.3039 124.19 82.1786 124.972H89.9855C90.5634 125.222 91.1219 125.515 91.6564 125.848Z" fill="#065D89"/>
<path d="M90.9709 124.068C90.9709 124.068 90.4505 131.874 88.2317 135.215C87.6509 136.124 86.835 136.858 85.8704 137.341C84.9058 137.823 83.8286 138.035 82.7531 137.954C81.5313 137.933 80.3388 137.576 79.3053 136.925C78.2718 136.273 77.4368 135.35 76.8911 134.257C75.5488 130.915 76.3432 125.054 76.4528 122.671L90.9709 124.068Z" fill="#F4D9BF"/>
<g style="mix-blend-mode:multiply">
<path d="M90.9709 124.068C90.9709 124.068 90.4505 131.874 88.2317 135.215C87.6509 136.124 86.835 136.858 85.8704 137.341C84.9058 137.823 83.8286 138.035 82.7531 137.954C81.5313 137.933 80.3388 137.576 79.3053 136.925C78.2718 136.273 77.4368 135.35 76.8911 134.257C75.5488 130.915 76.3432 125.054 76.4528 122.671L90.9709 124.068Z" fill="#F4D9BF"/>
</g>
<path d="M53.1145 39.4892C85.6844 28.2048 96.9428 28.9443 96.9428 28.9443C96.9428 28.9443 116.31 28.4239 120.884 46.6652C125.459 64.9066 119.35 58.3057 130.252 77.1223C141.155 95.9388 126.856 114.481 98.4494 123.684C70.0432 132.887 47.4442 118.206 43.664 113.715C43.664 113.715 33.4739 117.96 26.4887 103.745C19.5036 89.5297 20.5445 50.801 53.1145 39.4892Z" fill="#F4D9BF"/>
<path d="M5.15016 85.8594C5.15016 85.8594 -4.24554 64.3039 7.88943 48.0072C7.88943 48.0072 2.41089 47.2951 0.000335693 49.2397C0.000335693 49.2397 5.47887 39.1056 16.0799 40.2012C16.0799 40.2012 12.5736 36.531 14.6554 27.5199C17.1761 30.2074 18.8689 33.5641 19.5313 37.1884C19.5313 37.1884 18.1343 10.8945 61.2231 1.77384C59.8726 2.65779 58.8444 3.95491 58.2921 5.47142C58.2921 5.47142 103.107 -12.9617 133.047 23.6032C129.318 21.9106 125.198 21.2666 121.131 21.7407C121.131 21.7407 131.842 25.7396 135.786 42.3924C132.419 38.8216 128.18 36.1882 123.487 34.7507C124.629 36.6714 125.487 38.7471 126.034 40.9133C126.034 40.9133 120.337 33.7373 106.613 32.2309C106.613 32.2309 113.516 34.1482 116.529 45.4326C109.265 40.9119 100.664 39.0352 92.1769 40.119C95.9935 41.4572 99.1316 44.2408 100.915 47.8703C90.1692 46.7754 79.3283 47.0331 68.6465 48.6372C71.0601 49.8347 73.1967 51.5233 74.9195 53.5946C70.6953 54.0538 66.4221 53.6721 62.3462 52.4717C62.3462 52.4717 66.8112 64.7147 61.8805 71.0143C57.1482 67.4292 53.3827 62.7229 50.9234 57.3196C50.9234 57.3196 51.0878 71.9182 46.8693 75.7527C46.8693 75.7527 44.3766 74.8214 42.6234 68.4945C42.5873 77.5968 43.3204 86.6859 44.8149 95.6648C41.7186 95.7004 38.6833 94.8033 36.104 93.0902C36.4906 94.5651 37.0038 96.0038 37.6379 97.3904C36.5526 95.928 35.1593 94.7218 33.5564 93.8571C30.8172 92.515 26.1604 93.5284 27.7492 101.143C29.338 108.757 38.3228 115.44 41.8838 106.621C41.8838 106.621 44.6231 114.29 55.7719 121.52C49.266 121.417 42.8756 119.784 37.1175 116.755C33.1452 114.539 29.697 111.494 27.0074 107.826C24.3178 104.159 22.45 99.9546 21.531 95.5005V105.689C17.1846 102.048 13.7944 97.3991 11.6555 92.148C9.51663 86.8969 8.69394 81.2026 9.25907 75.561C7.15451 78.653 5.75208 82.168 5.15016 85.8594Z" fill="#F4A007"/>
<g style="mix-blend-mode:multiply" opacity="0.5">
<path d="M123.624 34.6686C122.374 31.6585 120.508 28.9434 118.145 26.6983C122.665 29.4372 127.048 32.4227 131.403 35.4903C131.518 35.5502 131.647 35.5736 131.775 35.5573C131.903 35.541 132.023 35.4858 132.119 35.3992C132.215 35.3126 132.281 35.1987 132.31 35.0729C132.339 34.9472 132.328 34.8156 132.28 34.696C126.527 23.7402 114.94 19.0293 103.381 16.3725C111.124 16.8185 118.786 18.198 126.199 20.4809C126.315 20.5136 126.438 20.5121 126.554 20.4766C126.67 20.4411 126.773 20.3731 126.851 20.2806C126.929 20.1882 126.978 20.0753 126.994 19.9554C127.009 19.8355 126.99 19.7137 126.938 19.6044C125.356 16.8828 123.381 14.4094 121.076 12.2641C125.541 15.5501 129.573 19.3877 133.074 23.6855C129.346 21.9928 125.226 21.3489 121.158 21.823C121.158 21.823 131.842 25.7397 135.786 42.3924C132.467 38.8107 128.277 36.1497 123.624 34.6686Z" fill="#D09306"/>
</g>
<g style="mix-blend-mode:multiply" opacity="0.5">
<path d="M8.02592 48.0073C6.92336 47.9071 5.81395 47.9071 4.71139 48.0073C6.02624 47.6513 7.45067 47.3774 8.65594 46.9939C10.6569 46.2424 12.7656 45.8171 14.9015 45.734C7.20413 51.2119 2.16387 62.1677 4.19094 71.5348C4.22012 71.6693 4.29446 71.7898 4.4016 71.8762C4.50874 71.9626 4.64223 72.0097 4.77987 72.0097C4.91751 72.0097 5.05102 71.9626 5.15816 71.8762C5.26531 71.7898 5.33965 71.6693 5.36883 71.5348C8.1081 64.9614 11.9157 57.4019 18.1065 53.3483C14.9289 62.8798 11.6965 72.1374 13.4223 82.3811C13.4223 83.1206 14.518 82.9288 14.6276 82.3811C15.1637 77.8327 16.8513 73.4963 19.5309 69.7819C20.1029 74.4568 21.2057 79.0514 22.818 83.4766C22.862 83.5897 22.9392 83.6869 23.0394 83.7554C23.1396 83.8239 23.2582 83.8605 23.3795 83.8605C23.5009 83.8605 23.6195 83.8239 23.7197 83.7554C23.8199 83.6869 23.897 83.5897 23.9411 83.4766C25.7682 78.2843 27.3225 73.0001 28.5979 67.6455C29.4763 72.7676 31.4782 77.6315 34.4599 81.888C34.7612 82.2989 35.3365 81.888 35.5008 81.6689C38.8042 72.8684 40.2136 63.47 39.6371 54.0878C41.4999 59.061 43.9458 63.7959 46.9236 68.1933C47.1975 68.5768 47.9098 68.659 48.0467 68.1933C49.3253 62.4236 49.8683 56.5154 49.6629 50.6093C49.6629 49.1029 49.6629 47.5417 49.6629 46.0079C52.0734 53.1291 54.9223 59.9765 61.1404 64.8518C61.2308 64.908 61.334 64.9403 61.4403 64.9459C61.5466 64.9514 61.6525 64.9299 61.7483 64.8834C61.844 64.8369 61.9264 64.767 61.9878 64.68C62.0491 64.5931 62.0875 64.492 62.0992 64.3862C61.9345 58.6248 60.3842 52.9879 57.5794 47.9525C61.2797 51.1428 66.0352 52.8417 70.9197 52.7183C71.0366 52.6898 71.1429 52.6283 71.2261 52.5412C71.3092 52.4542 71.3656 52.3451 71.3887 52.2269C71.4117 52.1088 71.4004 51.9865 71.3562 51.8746C71.3119 51.7627 71.2364 51.6657 71.1388 51.5953C66.3998 48.8564 62.2636 45.3232 57.8259 42.146C68.9748 44.4193 80.5071 43.2963 91.8477 44.8849C91.9695 44.896 92.0919 44.8697 92.1984 44.8096C92.3049 44.7495 92.3906 44.6584 92.4442 44.5484C92.4977 44.4384 92.5164 44.3148 92.498 44.1939C92.4795 44.073 92.4247 43.9605 92.3408 43.8715C86.5052 38.9292 79.6048 35.4044 72.1797 33.5731C76.8913 34.4222 81.5754 35.6273 86.3418 36.312C94.5596 37.435 102.777 37.1611 110.749 39.9274C110.879 39.9659 111.018 39.9613 111.146 39.9142C111.273 39.8671 111.382 39.78 111.456 39.6661C111.53 39.5521 111.565 39.4174 111.556 39.2818C111.547 39.1463 111.494 39.0173 111.406 38.914C106.28 32.4383 99.3647 27.6098 91.519 25.0276C102.476 25.8493 112.858 30.5055 122.61 35.7369C122.707 35.7901 122.817 35.8166 122.928 35.8136C123.04 35.8106 123.148 35.7782 123.243 35.7198C123.337 35.6614 123.415 35.579 123.467 35.4809C123.519 35.3829 123.545 35.2728 123.541 35.1617C124.622 37.009 125.434 39.0011 125.952 41.0778C125.952 41.0778 120.254 33.9018 106.53 32.3953C106.53 32.3953 113.433 34.3126 116.446 45.597C109.183 41.0764 100.581 39.1996 92.0942 40.2835C95.9123 41.564 99.078 44.2869 100.915 47.8704C90.1687 46.7755 79.3279 47.0332 68.6461 48.6373C71.0596 49.8348 73.1962 51.5234 74.919 53.5948C70.6949 54.0539 66.4216 53.6723 62.3457 52.4718C62.3457 52.4718 66.8107 64.7149 61.88 71.0144C57.1477 67.4294 53.3822 62.723 50.9229 57.3197C50.9229 57.3197 51.0873 71.9183 46.8688 75.7528C46.8688 75.7528 44.3761 74.8216 42.6229 68.4946C42.5868 77.5969 43.3199 86.686 44.8144 95.6649C41.7181 95.7006 38.6828 94.8035 36.1035 93.0903C36.4901 94.5652 37.0033 96.0039 37.6375 97.3905C36.5521 95.9281 35.1588 94.7219 33.556 93.8572C30.8167 92.5152 26.1599 93.5285 27.7487 101.143C29.3375 108.757 38.3223 115.44 41.8834 106.621C41.8834 106.621 44.6226 114.29 55.7715 121.521C49.2655 121.417 42.8752 119.785 37.117 116.755C33.1448 114.539 29.6965 111.494 27.0069 107.826C24.3173 104.159 22.4495 99.9548 21.5305 95.5006V105.689C17.1842 102.048 13.7939 97.3992 11.655 92.1481C9.51616 86.897 8.69347 81.2028 9.25859 75.5611C7.06599 78.7036 5.60578 82.2975 4.98533 86.0786C4.98533 86.0786 -4.24602 64.304 8.02592 48.0073Z" fill="#D09306"/>
</g>
<path d="M112.229 83.6683C111.346 83.3709 110.598 82.7689 110.119 81.9701C109.447 80.8924 109.231 79.5921 109.517 78.3547C109.517 78.1356 109.9 78.1082 109.9 78.3547C109.997 79.426 110.406 80.4453 111.078 81.2854C111.571 81.9153 112.366 82.0249 112.996 82.4357C114.338 80.4637 116.009 79.3681 117.57 81.3949C120.145 84.7091 118.885 91.4469 114.831 93.0902C114.639 93.0902 114.475 92.8985 114.639 92.7889C115.935 91.7316 116.887 90.3131 117.375 88.7135C117.863 87.1139 117.864 85.4055 117.378 83.8052C117.104 82.7918 116.283 81.0663 114.639 82.1618C113.934 82.8047 113.357 83.5763 112.941 84.4352C111.984 85.925 111.211 87.5252 110.64 89.2009C110.64 89.4474 110.202 89.2009 110.229 89.2009C110.575 87.2563 111.252 85.3851 112.229 83.6683Z" fill="#C39368"/>
<path d="M118.392 72.1374C119.077 74.8763 120.501 76.9031 121.515 76.6292C122.528 76.3554 122.775 73.8903 122.063 71.1514C121.35 68.4124 119.981 66.3856 118.94 66.6595C117.899 66.9334 117.68 69.3711 118.392 72.1374Z" fill="#3C1C11"/>
<path d="M119.953 69.4805C120.227 70.2748 120.692 70.85 120.994 70.7404C121.295 70.6309 121.322 69.864 120.994 69.0423C120.665 68.2206 120.254 67.6454 119.953 67.7824C119.651 67.9193 119.679 68.6588 119.953 69.4805Z" fill="white"/>
<path d="M89.4648 80.2722C90.3139 83.422 91.9575 85.7501 93.1354 85.4762C94.3133 85.2023 94.5872 82.3812 93.7106 79.204C92.8341 76.0268 91.2179 73.7261 90.04 74C88.8621 74.2739 88.6156 77.095 89.4648 80.2722Z" fill="#3C1C11"/>
<path d="M91.2447 77.2593C91.5734 78.1905 92.1212 78.8478 92.4773 78.7383C92.8334 78.6287 92.8334 77.7523 92.4773 76.821C92.1212 75.8898 91.6282 75.205 91.272 75.342C90.9159 75.4789 90.9433 76.328 91.2447 77.2593Z" fill="white"/>
<g style="mix-blend-mode:multiply">
<path d="M75.7135 90.7074C75.9053 92.4056 79.4937 93.4464 83.767 92.8712C88.0403 92.296 91.3548 90.5705 91.1904 88.8723C91.0261 87.1742 87.4102 86.1334 83.137 86.7086C78.8637 87.2837 75.5492 88.9545 75.7135 90.7074Z" fill="#FACCC1"/>
</g>
<g style="mix-blend-mode:multiply">
<path d="M119.24 81.9976C119.898 83.5862 122.637 83.9149 125.349 82.7371C128.061 81.5594 129.759 79.3135 129.102 77.7523C128.444 76.1911 125.705 75.835 122.966 77.0128C120.226 78.1905 118.583 80.409 119.24 81.9976Z" fill="#FACCC1"/>
</g>
<path d="M22.0783 153.32C28.5634 161.37 36.7237 167.912 45.9922 172.492C45.9922 172.492 66.4271 148.691 67.3585 142.364C68.2899 136.037 61.4965 117.357 45.4443 130.997C37.1269 137.864 29.3178 145.325 22.0783 153.32Z" fill="#171D36"/>
<path d="M43.2256 156.99L32.5698 149.786C32.5698 149.786 11.5322 173.615 11.8335 205.551C4.90314 207.989 0.0546227 220.616 1.15033 226.395C1.16909 226.554 1.2326 226.705 1.33353 226.83C1.43446 226.954 1.56867 227.048 1.7206 227.099C1.87254 227.151 2.03598 227.159 2.192 227.121C2.34802 227.084 2.49022 227.003 2.60214 226.888C3.83426 225.431 4.68184 223.689 5.06749 221.821C4.55869 224.417 4.42035 227.073 4.6566 229.709C5.14967 233.872 8.05331 233.543 8.10809 231.106C8.0437 228.303 8.51794 225.513 9.5051 222.889C9.69669 222.349 9.935 221.826 10.2173 221.328C9.94339 222.588 9.75166 223.847 9.5873 225.025C9.19769 228.162 9.80121 231.342 11.313 234.119C11.8061 234.666 12.6005 234.119 12.7922 233.626C13.5866 230.887 13.0936 227.682 13.614 224.861C13.8626 223.534 14.2293 222.233 14.7097 220.972C14.1289 226.021 15.5773 231.095 18.7365 235.077C19.3391 235.707 20.2157 235.077 20.4348 234.529C21.008 231.794 20.8281 228.954 19.9144 226.313C19.2753 222.862 19.7352 219.299 21.2292 216.124C21.2292 215.877 21.4484 215.576 21.5853 215.329C23.0097 216.124 31.3371 223.546 31.885 221.602C31.8982 221.492 31.8982 221.382 31.885 221.273C31.9674 221.204 32.0289 221.114 32.0628 221.013C32.0967 220.911 32.1015 220.802 32.0767 220.698C32.0701 220.607 32.0701 220.515 32.0767 220.424C31.8829 218.885 31.1443 217.466 29.9949 216.425C27.9145 213.343 25.1843 210.753 21.9962 208.838C21.8841 208.654 21.7557 208.479 21.6127 208.318C20.7909 201.498 24.7355 178.271 43.2256 156.99Z" fill="#F4D9BF"/>
<g style="mix-blend-mode:multiply">
<path d="M26.653 157.894C28.4476 155.031 30.4239 152.286 32.5698 149.677L43.2256 156.88C41.0743 159.369 39.0624 161.975 37.1992 164.686C34.1449 161.776 30.5663 159.471 26.653 157.894Z" fill="#F4D9BF"/>
</g>
<path d="M22.0787 153.32C29.3348 145.313 37.1623 137.844 45.4995 130.97C61.4968 117.275 68.2902 135.927 67.4137 142.337C66.5371 148.746 46.0473 172.465 46.0473 172.465C41.7741 154.525 22.0787 153.32 22.0787 153.32Z" fill="#065D89"/>
<g style="mix-blend-mode:multiply" opacity="0.5">
<g style="mix-blend-mode:multiply" opacity="0.5">
<path d="M42.8702 165.152C48.8911 157.541 54.4351 149.564 59.4702 141.268C61.5806 137.994 63.0838 134.366 63.9078 130.559C66.3679 133.976 67.5857 138.132 67.3593 142.336C66.4279 148.745 45.993 172.465 45.993 172.465C45.3781 169.866 44.3218 167.393 42.8702 165.152Z" fill="#065D89"/>
</g>
</g>
<path d="M121.706 62.4688C120.644 61.8354 119.455 61.4433 118.224 61.3202C116.993 61.1971 115.751 61.3461 114.584 61.7567C114.584 61.7567 111.653 62.1402 110.941 60.579C110.666 60.175 110.52 59.6979 110.52 59.2095C110.52 58.7211 110.666 58.244 110.941 57.84C111.845 56.4706 111.735 59.4286 114.31 59.1273C116.885 58.8261 120.884 59.5656 121.706 62.4688Z" fill="#A95B17"/>
<path d="M84.8357 70.1653C85.6131 69.2036 86.593 68.4252 87.7057 67.8855C88.8184 67.3458 90.0364 67.0581 91.273 67.0429C91.273 67.0429 94.1767 66.413 94.3136 64.6874C94.4196 64.2291 94.3906 63.7499 94.2302 63.3076C94.0698 62.8653 93.7848 62.4789 93.4097 62.195C92.0674 61.1816 93.1631 63.9479 90.6704 64.5231C88.1777 65.0983 84.507 67.1799 84.8357 70.1653Z" fill="#A95B17"/>
<path d="M93.4911 113.742C93.4911 113.742 99.6545 105.826 107.9 107.525C116.145 109.223 98.5862 120.945 94.2033 120.507C88.0126 119.959 93.4911 113.742 93.4911 113.742Z" fill="#F6BAC6"/>
<g style="mix-blend-mode:multiply">
<path d="M93.4918 113.742C94.1963 112.881 94.9754 112.083 95.8202 111.359L96.9981 111.797C97.7649 112.993 98.1884 114.376 98.2222 115.797C98.256 117.217 97.8989 118.619 97.1898 119.85C96.2625 120.279 95.2534 120.504 94.2314 120.507C88.0132 119.959 93.4918 113.742 93.4918 113.742Z" fill="#F6BAC6"/>
</g>
<path d="M97.6554 109.935C99.1028 108.865 100.752 108.1 102.504 107.686C104.255 107.272 106.072 107.217 107.845 107.525C108.513 107.627 109.128 107.944 109.599 108.428C107.895 109.663 105.907 110.448 103.82 110.711C101.733 110.975 99.6124 110.707 97.6554 109.935Z" fill="white"/>
<path d="M85.1361 148.143C85.1227 148.071 85.1227 147.996 85.1361 147.924C85.1708 147.608 85.235 147.296 85.3278 146.993C87.8753 138.475 101.49 150.526 104.503 160.03C104.669 160.549 104.797 161.08 104.886 161.619C104.886 161.975 104.886 162.331 105.051 162.687C105.242 164.385 105.215 166.111 105.379 167.863C105.379 168.055 105.379 168.247 105.379 168.466C105.38 168.959 105.38 168.959 105.38 169.452H105.379V170.164V171.287C105.394 171.414 105.394 171.543 105.379 171.671C105.764 173.656 105.403 175.714 104.366 177.45C103.654 177.998 102.585 177.998 100.942 177.066C98.389 175.652 95.6635 174.575 92.8334 173.862C92.1068 173.667 91.4074 173.381 90.7516 173.013C90.0387 172.607 89.3687 172.129 88.7519 171.588C87.1283 170.225 85.9936 168.369 85.5196 166.302C84.9169 163.098 86.4235 159.51 86.1496 156.113C86.1364 155.958 86.1364 155.803 86.1496 155.648V155.018V154.689C86.1496 154.114 85.9305 153.511 85.7935 152.909L85.547 151.649V151.211C85.4653 150.813 85.4104 150.41 85.3826 150.006C85.3826 149.732 85.3826 149.43 85.3826 149.156C85.3826 148.828 85.3826 148.526 85.3826 148.225L85.1361 148.143Z" fill="#EB8CA1"/>
<path d="M85.7932 150.964C85.7932 151.183 85.7932 151.375 85.9849 151.594C86.1767 151.813 85.9849 151.594 85.9849 151.758V152.087C86.1697 152.68 86.3161 153.284 86.4232 153.895C86.534 154.447 86.6163 155.005 86.6698 155.566C86.9163 157.62 86.9711 159.674 87.245 161.838C87.2828 162.875 87.5277 163.893 87.9652 164.834C88.4027 165.775 89.024 166.619 89.7925 167.316L90.313 167.562C90.4856 167.587 90.6608 167.587 90.8335 167.562C91.4982 167.631 92.1683 167.631 92.8331 167.562C93.4791 167.485 94.132 167.485 94.778 167.562C95.3509 167.678 95.8869 167.932 96.3394 168.302C96.942 168.767 97.4625 169.397 98.2569 170.137L98.8595 170.657C99.2411 170.957 99.6659 171.197 100.12 171.369C100.568 171.607 101.063 171.745 101.57 171.774C102.077 171.804 102.585 171.723 103.058 171.539C103.531 171.354 103.959 171.07 104.312 170.705C104.665 170.34 104.936 169.903 105.105 169.425C105.116 169.352 105.116 169.278 105.105 169.206C105.185 169.031 105.24 168.847 105.269 168.658C105.286 168.822 105.286 168.987 105.269 169.151V169.343V170.055V171.178C105.284 171.305 105.284 171.434 105.269 171.561C105.654 173.547 105.294 175.604 104.256 177.34C103.544 177.888 102.475 177.888 100.832 176.957C98.3082 175.589 95.6202 174.549 92.8331 173.862C92.1065 173.667 91.4071 173.382 90.7513 173.013C90.0384 172.607 89.3684 172.129 88.7516 171.588C87.128 170.225 85.9932 168.369 85.5193 166.302C84.9166 163.098 86.4232 159.51 86.1493 156.113C86.1361 155.958 86.1361 155.803 86.1493 155.648V155.018C86.1493 154.443 85.9302 153.84 85.7932 153.238L85.5466 151.978V151.539C85.465 151.142 85.4101 150.739 85.3823 150.334C85.3823 150.06 85.3823 149.759 85.3823 149.485C85.2727 149.732 85.5741 150.334 85.7932 150.964Z" fill="#D97C95"/>
<path d="M90.5055 157.045C92.7311 158.486 95.1466 159.611 97.6824 160.386L98.5863 160.66C99.9169 161.022 101.272 161.287 102.64 161.454C103.38 161.454 104.147 161.454 104.887 161.619C104.887 161.975 104.887 162.331 105.051 162.687C104.284 162.687 103.544 162.687 102.777 162.523C101.595 162.395 100.424 162.184 99.2711 161.893H98.8055C98.1207 161.728 97.4632 161.537 96.8058 161.317L95.6827 160.934C94.9705 160.66 94.2583 160.359 93.5734 160.03C92.8943 159.736 92.2354 159.398 91.6012 159.017C91.1629 158.798 90.7246 158.524 90.3137 158.277C89.0783 157.453 87.9063 156.537 86.8074 155.538L85.9857 154.771C85.9857 154.196 85.7665 153.594 85.6295 152.991C85.9309 153.32 86.2322 153.621 86.5609 153.922C87.7772 155.082 89.0976 156.127 90.5055 157.045Z" fill="#C66D89"/>
<path d="M96.3941 171.534L97.435 171.342L98.8868 170.986C101.112 170.375 103.268 169.54 105.324 168.493C105.325 168.986 105.325 168.986 105.325 169.479H105.324L104.995 169.644C103.387 170.421 101.72 171.071 100.01 171.588C99.3799 171.808 98.6951 171.972 98.0376 172.136H97.4076H97.1337C95.5214 172.481 93.8789 172.664 92.2304 172.684C91.6643 172.684 91.089 172.684 90.5046 172.684C89.7917 172.278 89.1218 171.801 88.505 171.26C88.7662 171.33 89.0315 171.385 89.2994 171.424C91.6322 171.942 94.0463 171.979 96.3941 171.534Z" fill="#C66D89"/>
<path d="M62.9205 161.482C64.2598 161.34 65.5872 161.102 66.8924 160.769L67.7142 160.55C69.4774 160.025 71.1914 159.347 72.8366 158.524L73.5214 158.167C74.0419 157.866 74.5624 157.565 75.0554 157.236C76.4256 156.386 77.7099 155.404 78.8904 154.306C79.2191 154.032 79.5205 153.73 79.8218 153.429C79.8218 153.922 79.63 154.415 79.5752 154.881C79.5648 154.972 79.5648 155.064 79.5752 155.155L78.7808 155.839C77.6891 156.74 76.5359 157.564 75.3294 158.304L74.0145 159.071C73.3297 159.427 72.6449 159.783 71.9327 160.085C71.2205 160.386 70.5904 160.66 69.8782 160.906C69.4758 161.068 69.0642 161.205 68.6455 161.317C68.0155 161.509 67.3855 161.701 66.7554 161.838H66.2898C65.1508 162.087 63.9984 162.27 62.8383 162.385C62.0987 162.385 61.3317 162.385 60.5647 162.385L60.729 161.317C61.4562 161.409 62.1877 161.464 62.9205 161.482Z" fill="#C66D89"/>
<path d="M60.0449 168.959V168.274C62.1127 169.42 64.2986 170.338 66.5644 171.013L67.9888 171.397H68.3997H69.1119C71.4682 171.939 73.9102 171.995 76.2888 171.561H76.5627C75.9733 172.075 75.3305 172.525 74.6453 172.903H73.3304C71.5862 172.892 69.8491 172.681 68.1532 172.273L67.2492 172.054C66.6107 171.913 65.9799 171.739 65.3591 171.534C63.5567 170.985 61.8059 170.28 60.1271 169.425H59.908C59.908 169.425 60.0175 169.069 60.0449 168.959Z" fill="#C66D89"/>
<path d="M82.8076 143.405C83.3655 143.42 83.9185 143.512 84.4512 143.679C84.4512 144.528 84.4512 145.432 84.7251 146.418C84.1082 146.204 83.4604 146.093 82.8076 146.089C82.0942 146.063 81.3815 146.156 80.6984 146.363C80.8331 145.455 80.9154 144.541 80.9449 143.624C81.5524 143.464 82.1795 143.39 82.8076 143.405Z" fill="#D1E9F5"/>
<path d="M84.4512 141.597C84.4512 142.227 84.4512 142.939 84.4512 143.679C83.9186 143.512 83.3655 143.42 82.8076 143.405C82.1795 143.39 81.5524 143.464 80.9449 143.624C80.9449 142.912 80.9449 142.227 80.9449 141.597H84.4512Z" fill="#ABCDDB"/>
<path d="M82.8077 146.034C83.4605 146.038 84.1083 146.149 84.7252 146.363C84.8874 147.335 85.1443 148.289 85.4922 149.211C84.6296 148.823 83.6986 148.609 82.7529 148.581C81.816 148.56 80.8844 148.728 80.0137 149.074C80.2904 148.178 80.501 147.263 80.6437 146.335C81.3427 146.113 82.0745 146.011 82.8077 146.034Z" fill="#ABCDDB"/>
<path d="M80.3152 147.842C81.0726 147.542 81.884 147.402 82.6983 147.431C83.4714 147.453 84.2333 147.62 84.9445 147.924C85.3828 149.129 86.0128 149.184 86.8894 150.088L86.5059 150.499C86.232 150.827 85.9581 151.238 85.6841 151.567L85.5472 151.731L85.3006 151.95C85.2213 151.669 85.1206 151.394 84.9993 151.129C84.6432 150.526 84.068 150.143 82.4792 150.006C80.8904 149.869 80.3973 150.389 79.9317 151.211C79.8615 151.452 79.8156 151.7 79.7947 151.95L79.4112 151.567L78.6716 150.608C78.6716 150.608 78.425 150.307 78.2881 150.197C79.2742 149.211 79.7947 149.211 80.3152 147.842Z" fill="#D1E9F5"/>
<g style="mix-blend-mode:overlay">
<path d="M91.9293 146.993C94.8131 148.439 97.2122 150.695 98.8322 153.484C99.2701 154.137 99.6724 154.814 100.038 155.511C101.274 157.592 102.197 159.844 102.777 162.194C103.051 164.686 101.161 164.44 99.5992 162.358C98.6405 161.071 98.2022 159.455 97.2982 158.14C96.0951 156.729 94.6359 155.558 92.9976 154.689C91.3731 153.81 90.0116 152.515 89.053 150.937C87.656 148.116 89.0804 146.061 91.9293 146.993Z" fill="#8BA3AB"/>
</g>
<g style="mix-blend-mode:overlay">
<path d="M65.4953 155.511C65.8788 154.826 66.2623 154.141 66.7006 153.484C68.3281 150.701 70.7252 148.447 73.6035 146.993C76.3428 146.062 77.9042 148.116 76.4798 150.91C75.525 152.498 74.1632 153.803 72.5352 154.689C70.9127 155.57 69.472 156.75 68.2894 158.168C67.358 159.482 66.9197 161.098 65.961 162.386C64.3996 164.467 62.5095 164.714 62.7834 162.221C63.3523 159.863 64.2661 157.602 65.4953 155.511Z" fill="#8BA3AB"/>
</g>
<path d="M88.396 153.676L88.0399 153.21L88.2316 153.429L88.396 153.676Z" fill="#D1E9F5"/>
<path d="M90.0119 153.237C92.7511 154.278 95.9013 151.895 99.0241 155.1C98.668 154.716 97.3531 154.607 96.8327 154.443C94.2851 153.593 92.3128 154.716 89.9297 154.032C91.0107 155.778 91.8146 157.681 92.3128 159.674C93.9838 162.577 97.7914 161.071 99.0789 168.986C99.0789 169.023 99.0644 169.057 99.0387 169.083C99.013 169.109 98.9782 169.123 98.9419 169.123C98.9056 169.123 98.8707 169.109 98.845 169.083C98.8194 169.057 98.8049 169.023 98.8049 168.986C96.6957 161.427 93.8194 164.138 91.4911 160.769C91.1769 161.735 91.0017 162.74 90.9706 163.755C91.1624 166.494 94.1482 167.672 90.9706 171.232C90.9706 171.232 90.7789 171.232 90.9706 171.232C93.1072 167.124 90.2858 167.042 90.1214 163.864C90.1214 162.44 90.7515 161.126 90.7515 159.208C90.2663 157.294 89.5294 155.451 88.56 153.73L88.3409 153.484L86.1221 150.06C88.697 150.553 88.0122 152.525 90.0119 153.237Z" fill="#D1E9F5"/>
<path d="M88.0122 153.21C87.144 152.374 86.2295 151.588 85.2729 150.855C86.3263 151.46 87.2557 152.259 88.0122 153.21Z" fill="#D1E9F5"/>
<path d="M85.8212 149.951C85.8212 149.951 85.8212 149.951 85.8212 149.732L85.9856 150.005H85.7939L85.8212 149.951Z" fill="#D1E9F5"/>
<path d="M85.273 149.869C85.4335 149.818 85.6056 149.818 85.7661 149.869C85.7051 150.178 85.541 150.458 85.3004 150.663L84.8074 150.334C84.8074 150.334 85.273 149.896 85.273 149.869Z" fill="#D1E9F5"/>
<path d="M85.8206 149.951H86.0124L88.2312 153.374L88.0395 153.155C87.2934 152.165 86.3633 151.328 85.3002 150.69C85.5509 150.508 85.734 150.248 85.8206 149.951Z" fill="#D1E9F5"/>
<path d="M79.5204 150.005L79.7122 149.732C79.6988 149.804 79.6988 149.878 79.7122 149.951H79.5204V150.005Z" fill="#D1E9F5"/>
<path d="M73.2209 159.674C73.7191 157.681 74.523 155.778 75.6041 154.032C73.2483 154.716 71.2486 153.593 68.7011 154.443C68.1806 154.607 66.8658 154.716 66.5097 155.1C69.6325 151.895 72.7004 154.278 75.5219 153.237C77.4394 152.525 76.8367 150.498 79.5212 150.005L77.3024 153.429L77.1107 153.676C76.1214 155.39 75.3747 157.234 74.8919 159.154C74.8919 161.153 75.6041 162.385 75.5219 163.81C75.3575 166.987 72.5361 167.069 74.6727 171.177C71.5225 167.617 74.5084 166.33 74.6727 163.7C74.6387 162.688 74.4729 161.684 74.1796 160.715C71.8513 164.193 68.975 161.482 66.8384 168.932C66.8384 168.968 66.824 169.003 66.7983 169.028C66.7726 169.054 66.7378 169.069 66.7014 169.069C66.6651 169.069 66.6303 169.054 66.6046 169.028C66.5789 169.003 66.5645 168.968 66.5645 168.932C67.6328 161.071 71.5773 162.577 73.2209 159.674Z" fill="#D1E9F5"/>
<path d="M77.0553 153.676L77.2196 153.429L77.4114 153.21L77.0553 153.676Z" fill="#D1E9F5"/>
<path d="M79.5756 149.978C79.6366 150.288 79.8007 150.568 80.0413 150.772C78.9841 151.418 78.0554 152.254 77.302 153.238L77.1102 153.457L79.3291 150.033L79.5756 149.978Z" fill="#D1E9F5"/>
<path d="M79.7942 149.951C79.9639 149.9 80.1449 149.9 80.3147 149.951C80.3147 149.951 80.7255 150.526 80.7529 150.499L80.2599 150.827C80.0026 150.602 79.8369 150.29 79.7942 149.951Z" fill="#D1E9F5"/>
<path d="M80.1777 150.745C79.2212 151.478 78.3066 152.265 77.4384 153.1C78.2018 152.156 79.1299 151.358 80.1777 150.745Z" fill="#D1E9F5"/>
<path d="M101.901 196.54C101.901 196.54 105.188 192.486 107.38 189.611L117.762 198.731L107.462 184.817L102.175 190.706L88.4789 181.613L101.901 196.54Z" fill="#DD2655"/>
<path d="M123.624 144.884C123.624 144.884 122.254 139.817 121.241 136.311L134.581 133.243L117.214 133.49L118.912 141.213L103.6 146.965L123.624 144.884Z" fill="#DD2655"/>
<path d="M77.1927 212.015L89.7934 210.235L91.6287 229.928L94.6145 205.25L81.8221 207.112L77.9597 183.311L77.1927 212.015Z" fill="#DD2655"/>
</svg>
