<svg width="74" height="74" viewBox="0 0 74 74" fill="none" xmlns="http://www.w3.org/2000/svg">
<path d="M73.1227 35.0718C70.7493 32.6994 67.5309 31.3666 64.175 31.3666C60.8192 31.3666 57.6007 32.6994 55.2274 35.0718L50.5219 39.7773C50.5153 38.0086 49.8081 36.3145 48.5551 35.0661C47.3021 33.8176 45.6055 33.1166 43.8367 33.1164H26.1805C25.4279 33.1143 24.6823 33.2616 23.987 33.5496C23.2917 33.8377 22.6604 34.2608 22.1297 34.7945L11.3141 45.6125L9.72503 44.0242C9.46866 43.768 9.12106 43.6241 8.75863 43.6241C8.39619 43.6241 8.04859 43.768 7.79222 44.0242L0.877375 50.939C0.750312 51.0659 0.649511 51.2166 0.580737 51.3825C0.511962 51.5484 0.476563 51.7262 0.476563 51.9058C0.476562 52.0854 0.511962 52.2632 0.580737 52.4291C0.649511 52.595 0.750312 52.7457 0.877375 52.8726L21.1274 73.1226C21.2543 73.2497 21.405 73.3505 21.5709 73.4193C21.7368 73.488 21.9146 73.5234 22.0942 73.5234C22.2738 73.5234 22.4516 73.488 22.6175 73.4193C22.7834 73.3505 22.9341 73.2497 23.061 73.1226L29.9758 66.2078C30.232 65.9514 30.3759 65.6038 30.3759 65.2414C30.3759 64.8789 30.232 64.5313 29.9758 64.275L28.7688 63.0679L33.5477 58.289C33.7105 58.1257 33.904 57.9963 34.1171 57.9082C34.3301 57.8201 34.5585 57.7751 34.7891 57.7757H49.3438C50.2988 57.7782 51.2448 57.5913 52.127 57.2257C53.0093 56.8602 53.8103 56.3232 54.4836 55.6461L73.1242 37.0054C73.2512 36.8784 73.3519 36.7276 73.4205 36.5617C73.4892 36.3957 73.5244 36.2179 73.5243 36.0383C73.5241 35.8587 73.4886 35.6809 73.4197 35.5151C73.3508 35.3493 73.2498 35.1986 73.1227 35.0718ZM22.0938 70.2226L3.77738 51.9062L8.75863 46.9218L27.0782 65.2414L22.0938 70.2226ZM52.5469 53.7125C51.6954 54.5591 50.5446 55.0363 49.3438 55.0406H34.7891C34.1992 55.0389 33.6149 55.1542 33.0699 55.3799C32.5249 55.6056 32.03 55.9372 31.6141 56.3554L26.8375 61.1328L13.268 47.5257L24.0657 36.7273C24.3431 36.4486 24.6731 36.2276 25.0365 36.0771C25.3999 35.9267 25.7895 35.8497 26.1828 35.8507H43.8391C44.3911 35.8508 44.937 35.9664 45.4416 36.1903C45.9462 36.4141 46.3984 36.7412 46.7689 37.1504C47.1394 37.5596 47.42 38.0419 47.5928 38.5662C47.7656 39.0905 47.8266 39.6452 47.7719 40.1945C47.6371 41.1956 47.1382 42.112 46.3705 42.7686C45.6028 43.4252 44.6201 43.776 43.6102 43.7539H34.9844C34.6218 43.7539 34.2741 43.8979 34.0177 44.1543C33.7613 44.4107 33.6172 44.7585 33.6172 45.1211C33.6172 45.4837 33.7613 45.8314 34.0177 46.0878C34.2741 46.3442 34.6218 46.4882 34.9844 46.4882H47.111C47.4737 46.4881 47.8216 46.344 48.0782 46.0875L57.161 37.0054C58.854 35.3126 61.102 34.2889 63.4905 34.1234C65.8789 33.9578 68.2467 34.6615 70.1571 36.1047L52.5469 53.7125Z" fill="#987A8C"/>
<path d="M24.0469 21.6094H44.8453L52.4234 26.0469C52.6312 26.1682 52.8674 26.2326 53.108 26.2335C53.3486 26.2345 53.5853 26.1719 53.794 26.0522C54.0027 25.9324 54.1762 25.7598 54.2968 25.5516C54.4175 25.3434 54.4811 25.107 54.4813 24.8664V17.2812C54.4813 17.2492 54.4813 17.2172 54.4813 17.1852C54.4813 17.1531 54.4813 17.1117 54.4813 17.075V5.04688C54.4796 3.84562 54.0017 2.69404 53.1523 1.84462C52.3028 0.995208 51.1513 0.517278 49.95 0.515625H24.0469C22.8456 0.517072 21.6939 0.994935 20.8444 1.8444C19.9949 2.69386 19.5171 3.84556 19.5156 5.04688V17.0781C19.5171 18.2794 19.9949 19.4311 20.8444 20.2806C21.6939 21.1301 22.8456 21.6079 24.0469 21.6094ZM22.25 5.04688C22.25 4.57031 22.4393 4.11327 22.7763 3.77629C23.1133 3.43931 23.5703 3.25 24.0469 3.25H49.9531C50.4297 3.25 50.8867 3.43931 51.2237 3.77629C51.5607 4.11327 51.75 4.57031 51.75 5.04688V17.0188C51.7422 17.0766 51.7352 17.1336 51.7313 17.1914C51.7245 17.298 51.7308 17.4051 51.75 17.5102V22.4805L45.9063 19.0602C45.6972 18.9371 45.459 18.8723 45.2164 18.8727H24.0469C23.5703 18.8727 23.1133 18.6833 22.7763 18.3464C22.4393 18.0094 22.25 17.5523 22.25 17.0758V5.04688Z" fill="#987A8C"/>
<path d="M37.3418 12.9766C37.8247 12.9766 38.2967 12.8334 38.6982 12.5651C39.0997 12.2968 39.4126 11.9156 39.5974 11.4694C39.7822 11.0233 39.8305 10.5325 39.7363 10.0589C39.6421 9.58528 39.4096 9.15026 39.0681 8.80882C38.7267 8.46739 38.2917 8.23486 37.8181 8.14066C37.3445 8.04646 36.8536 8.09481 36.4075 8.27959C35.9614 8.46438 35.5801 8.7773 35.3118 9.17879C35.0436 9.58027 34.9004 10.0523 34.9004 10.5352C34.9012 11.1824 35.1587 11.8029 35.6164 12.2606C36.0741 12.7183 36.6945 12.9757 37.3418 12.9766ZM37.3418 10.2422C37.3997 10.2422 37.4564 10.2594 37.5046 10.2916C37.5527 10.3238 37.5903 10.3695 37.6125 10.423C37.6346 10.4766 37.6404 10.5355 37.6291 10.5923C37.6178 10.6491 37.5899 10.7013 37.549 10.7423C37.508 10.7833 37.4558 10.8112 37.399 10.8225C37.3421 10.8338 37.2832 10.828 37.2297 10.8058C37.1762 10.7837 37.1304 10.7461 37.0982 10.6979C37.066 10.6497 37.0488 10.5931 37.0488 10.5352C37.0488 10.4575 37.0797 10.3829 37.1346 10.328C37.1896 10.2731 37.2641 10.2422 37.3418 10.2422Z" fill="#987A8C"/>
<path d="M45.1055 12.9766C45.5883 12.9766 46.0604 12.8334 46.4618 12.5651C46.8633 12.2968 47.1762 11.9156 47.361 11.4694C47.5458 11.0233 47.5942 10.5325 47.5 10.0589C47.4058 9.58528 47.1732 9.15026 46.8318 8.80882C46.4904 8.46739 46.0553 8.23486 45.5818 8.14066C45.1082 8.04646 44.6173 8.09481 44.1712 8.27959C43.7251 8.46438 43.3438 8.7773 43.0755 9.17879C42.8072 9.58027 42.6641 10.0523 42.6641 10.5352C42.6649 11.1824 42.9224 11.8029 43.38 12.2606C43.8377 12.7183 44.4582 12.9757 45.1055 12.9766ZM45.1055 10.2422C45.1634 10.2422 45.2201 10.2594 45.2682 10.2916C45.3164 10.3238 45.354 10.3695 45.3761 10.423C45.3983 10.4766 45.4041 10.5355 45.3928 10.5923C45.3815 10.6491 45.3536 10.7013 45.3126 10.7423C45.2717 10.7833 45.2195 10.8112 45.1626 10.8225C45.1058 10.8338 45.0469 10.828 44.9934 10.8058C44.9398 10.7837 44.8941 10.7461 44.8619 10.6979C44.8297 10.6497 44.8125 10.5931 44.8125 10.5352C44.8125 10.4575 44.8434 10.3829 44.8983 10.328C44.9532 10.2731 45.0278 10.2422 45.1055 10.2422Z" fill="#987A8C"/>
<path d="M29.5781 12.9766C30.061 12.9766 30.533 12.8334 30.9345 12.5651C31.336 12.2968 31.6489 11.9156 31.8337 11.4694C32.0185 11.0233 32.0668 10.5325 31.9726 10.0589C31.8784 9.58528 31.6459 9.15026 31.3045 8.80882C30.963 8.46739 30.528 8.23486 30.0544 8.14066C29.5808 8.04646 29.0899 8.09481 28.6438 8.27959C28.1977 8.46438 27.8164 8.7773 27.5482 9.17879C27.2799 9.58027 27.1367 10.0523 27.1367 10.5352C27.1375 11.1824 27.395 11.8029 27.8527 12.2606C28.3104 12.7183 28.9309 12.9757 29.5781 12.9766ZM29.5781 10.2422C29.6361 10.2422 29.6927 10.2594 29.7409 10.2916C29.7891 10.3238 29.8266 10.3695 29.8488 10.423C29.871 10.4766 29.8768 10.5355 29.8655 10.5923C29.8542 10.6491 29.8263 10.7013 29.7853 10.7423C29.7443 10.7833 29.6921 10.8112 29.6353 10.8225C29.5784 10.8338 29.5195 10.828 29.466 10.8058C29.4125 10.7837 29.3667 10.7461 29.3345 10.6979C29.3023 10.6497 29.2852 10.5931 29.2852 10.5352C29.2852 10.4575 29.316 10.3829 29.371 10.328C29.4259 10.2731 29.5004 10.2422 29.5781 10.2422Z" fill="#987A8C"/>
</svg>
