<svg width="26" height="27" viewBox="0 0 26 27" fill="none" xmlns="http://www.w3.org/2000/svg">
<path fill-rule="evenodd" clip-rule="evenodd" d="M13 2.48364C9.98316 2.48364 7.08989 3.68208 4.95666 5.8153C2.82344 7.94853 1.625 10.8418 1.625 13.8586C1.625 16.8755 2.82344 19.7688 4.95666 21.902C7.08989 24.0352 9.98316 25.2336 13 25.2336C16.0168 25.2336 18.9101 24.0352 21.0433 21.902C23.1766 19.7688 24.375 16.8755 24.375 13.8586C24.375 10.8418 23.1766 7.94853 21.0433 5.8153C18.9101 3.68208 16.0168 2.48364 13 2.48364ZM13 26.8586C9.55219 26.8586 6.24559 25.489 3.80761 23.051C1.36964 20.6131 1.15261e-06 17.3065 1.31082e-06 13.8586C1.46903e-06 10.4108 1.36964 7.10423 3.80761 4.66625C6.24559 2.22828 9.55219 0.858642 13 0.858642C16.4478 0.858642 19.7544 2.22828 22.1924 4.66625C24.6304 7.10423 26 10.4108 26 13.8586C26 17.3065 24.6304 20.6131 22.1924 23.051C19.7544 25.489 16.4478 26.8586 13 26.8586ZM18.6875 14.6711C18.903 14.6711 19.1097 14.5855 19.262 14.4332C19.4144 14.2808 19.5 14.0741 19.5 13.8586C19.5 13.6432 19.4144 13.4365 19.262 13.2841C19.1097 13.1317 18.903 13.0461 18.6875 13.0461L9.27388 13.0461L12.7628 9.55889C12.9153 9.40633 13.001 9.1994 13.001 8.98364C13.001 8.76788 12.9153 8.56096 12.7628 8.40839C12.6102 8.25583 12.4033 8.17012 12.1875 8.17012C11.9717 8.17012 11.7648 8.25583 11.6123 8.40839L6.73725 13.2834C6.66159 13.3589 6.60155 13.4485 6.56059 13.5472C6.51963 13.6459 6.49855 13.7518 6.49855 13.8586C6.49855 13.9655 6.51963 14.0713 6.56059 14.17C6.60155 14.2688 6.66159 14.3584 6.73725 14.4339L11.6123 19.3089C11.7648 19.4615 11.9717 19.5472 12.1875 19.5472C12.4033 19.5472 12.6102 19.4615 12.7628 19.3089C12.9153 19.1563 13.001 18.9494 13.001 18.7336C13.001 18.5179 12.9153 18.311 12.7628 18.1584L9.27388 14.6711L18.6875 14.6711Z" fill="#009D9A"/>
</svg>
