<svg width="26" height="27" viewBox="0 0 26 27" fill="none" xmlns="http://www.w3.org/2000/svg">
<path fill-rule="evenodd" clip-rule="evenodd" d="M13 1.85742C9.98316 1.85742 7.08989 3.05586 4.95666 5.18908C2.82344 7.32231 1.625 10.2156 1.625 13.2324C1.625 16.2493 2.82344 19.1425 4.95666 21.2758C7.08989 23.409 9.98316 24.6074 13 24.6074C16.0168 24.6074 18.9101 23.409 21.0433 21.2758C23.1766 19.1425 24.375 16.2493 24.375 13.2324C24.375 10.2156 23.1766 7.32231 21.0433 5.18908C18.9101 3.05586 16.0168 1.85742 13 1.85742ZM13 26.2324C9.55219 26.2324 6.24559 24.8628 3.80761 22.4248C1.36964 19.9868 1.15261e-06 16.6802 1.31082e-06 13.2324C1.46903e-06 9.78461 1.36964 6.47801 3.80761 4.04003C6.24559 1.60206 9.55219 0.232421 13 0.232421C16.4478 0.232421 19.7544 1.60206 22.1924 4.04003C24.6304 6.47801 26 9.78461 26 13.2324C26 16.6802 24.6304 19.9868 22.1924 22.4248C19.7544 24.8628 16.4478 26.2324 13 26.2324ZM18.6875 14.0449C18.903 14.0449 19.1097 13.9593 19.262 13.8069C19.4144 13.6546 19.5 13.4479 19.5 13.2324C19.5 13.0169 19.4144 12.8103 19.262 12.6579C19.1097 12.5055 18.903 12.4199 18.6875 12.4199L9.27388 12.4199L12.7628 8.93267C12.9153 8.78011 13.001 8.57318 13.001 8.35742C13.001 8.14166 12.9153 7.93474 12.7628 7.78217C12.6102 7.62961 12.4033 7.54389 12.1875 7.54389C11.9717 7.54389 11.7648 7.62961 11.6123 7.78217L6.73725 12.6572C6.66159 12.7326 6.60155 12.8223 6.56059 12.921C6.51963 13.0197 6.49855 13.1255 6.49855 13.2324C6.49855 13.3393 6.51963 13.4451 6.56059 13.5438C6.60155 13.6425 6.66159 13.7322 6.73725 13.8077L11.6123 18.6827C11.7648 18.8352 11.9717 18.9209 12.1875 18.9209C12.4033 18.9209 12.6102 18.8352 12.7628 18.6827C12.9153 18.5301 13.001 18.3232 13.001 18.1074C13.001 17.8917 12.9153 17.6847 12.7628 17.5322L9.27388 14.0449L18.6875 14.0449Z" fill="#987A8C"/>
</svg>
