<svg width="26" height="27" viewBox="0 0 26 27" fill="none" xmlns="http://www.w3.org/2000/svg">
<path fill-rule="evenodd" clip-rule="evenodd" d="M13 25.001C16.0168 25.001 18.9101 23.8025 21.0433 21.6693C23.1766 19.5361 24.375 16.6428 24.375 13.626C24.375 10.6091 23.1766 7.71586 21.0433 5.58264C18.9101 3.44941 16.0168 2.25098 13 2.25098C9.98316 2.25098 7.08989 3.44941 4.95666 5.58264C2.82343 7.71586 1.625 10.6091 1.625 13.626C1.625 16.6428 2.82343 19.5361 4.95666 21.6693C7.08989 23.8025 9.98316 25.001 13 25.001ZM13 0.625977C16.4478 0.625977 19.7544 1.99562 22.1924 4.43359C24.6304 6.87156 26 10.1782 26 13.626C26 17.0738 24.6304 20.3804 22.1924 22.8184C19.7544 25.2563 16.4478 26.626 13 26.626C9.55219 26.626 6.24558 25.2563 3.80761 22.8184C1.36964 20.3804 1.19578e-07 17.0738 1.62739e-07 13.626C2.059e-07 10.1782 1.36964 6.87156 3.80761 4.43359C6.24558 1.99562 9.55219 0.625977 13 0.625977ZM7.3125 12.8135C7.09701 12.8135 6.89035 12.8991 6.73798 13.0515C6.5856 13.2038 6.5 13.4105 6.5 13.626C6.5 13.8415 6.5856 14.0481 6.73798 14.2005C6.89035 14.3529 7.09701 14.4385 7.3125 14.4385L16.7261 14.4385L13.2372 17.9257C13.0847 18.0783 12.999 18.2852 12.999 18.501C12.999 18.7167 13.0847 18.9237 13.2372 19.0762C13.3898 19.2288 13.5967 19.3145 13.8125 19.3145C14.0283 19.3145 14.2352 19.2288 14.3877 19.0762L19.2627 14.2012C19.3384 14.1258 19.3984 14.0361 19.4394 13.9374C19.4804 13.8387 19.5015 13.7328 19.5015 13.626C19.5015 13.5191 19.4804 13.4133 19.4394 13.3146C19.3984 13.2159 19.3384 13.1262 19.2627 13.0507L14.3877 8.17573C14.2352 8.02316 14.0283 7.93745 13.8125 7.93745C13.5967 7.93745 13.3898 8.02316 13.2372 8.17573C13.0847 8.32829 12.999 8.53522 12.999 8.75098C12.999 8.96674 13.0847 9.17366 13.2372 9.32623L16.7261 12.8135L7.3125 12.8135Z" fill="#009D9A"/>
</svg>
