<svg width="102" height="122" viewBox="0 0 102 122" fill="none" xmlns="http://www.w3.org/2000/svg">
<path d="M90.524 47.2261L74.2056 63.5446L84.8589 74.1979L101.177 57.8794V47.2261H90.524Z" fill="#F6D993"/>
<path d="M49.7168 58.9356L47.9951 55.3957C45.7204 56.5035 43.0895 57.0643 40.1772 57.0643C31.6116 57.0643 28.174 52.2296 28.0323 52.0229L24.7659 54.219C24.9508 54.4964 29.4097 60.9998 40.1772 60.9998C43.6916 60.9998 46.901 60.3052 49.7168 58.9356Z" fill="#343E48"/>
<path d="M55.5886 54.2209L52.3221 52.0249C52.3162 52.0347 51.6846 52.9399 50.3347 53.9651L52.7176 57.0977C54.5988 55.6652 55.4922 54.3645 55.5886 54.2209Z" fill="#343E48"/>
<path d="M42.145 37.3867H38.2095V41.3222H42.145V37.3867Z" fill="#343E48"/>
<path d="M50.016 25.5806H46.0806V29.5161H50.016V25.5806Z" fill="#343E48"/>
<path d="M34.2739 25.5806H30.3384V29.5161H34.2739V25.5806Z" fill="#343E48"/>
<path d="M85.6045 74.1288L74.2742 62.7985C73.1152 61.6376 71.5725 61 69.9314 61C69.3096 61 68.7213 61.12 68.1565 61.2932L63.7212 51.1534C62.1549 47.5721 58.6169 45.2581 54.707 45.2581H51.2851C53.8353 43.1978 55.7912 40.445 56.8912 37.2887C60.7677 36.8046 63.7901 33.5244 63.7901 29.5161V23.6129C63.7901 10.5924 53.1978 0 40.1772 0C27.1567 0 16.5643 10.5924 16.5643 23.6129V29.5161C16.5643 33.5244 19.5868 36.8046 23.4652 37.2887C24.5651 40.445 26.5211 43.1978 29.0713 45.2581H25.366C21.6155 45.2581 18.2428 47.3419 16.5663 50.6969L12.8374 58.1527L16.3577 59.9138L20.0866 52.458C21.0901 50.445 23.1149 49.1936 25.364 49.1936H34.274V48.1605C36.1237 48.8177 38.1052 49.1936 40.1772 49.1936C42.2492 49.1936 44.2308 48.8177 46.0804 48.1605V49.1936H54.707C57.0526 49.1936 59.1758 50.5808 60.1163 52.7296L61.6886 56.3227C59.3056 58.4085 50.9998 64.9355 40.1772 64.9355C36.8753 64.9355 33.5105 64.3215 30.1771 63.1153L28.8371 66.8167C32.6014 68.1783 36.4169 68.871 40.1772 68.871C44.5613 68.871 48.5421 67.9422 51.9837 66.6455V74.7742H46.0804H34.274H30.3385V78.7097H34.274V86.5806H46.0804V78.7097H52.6192L59.3214 95.465C56.8184 96.5158 50.8561 98.3871 40.1772 98.3871C30.0119 98.3871 25.0689 96.6968 23.052 95.7149L26.6037 88.6133L23.0834 86.8522L18.105 96.809L19.1086 97.8125C19.39 98.0939 21.2082 99.7193 26.2476 100.939L24.6616 108.867L19.6674 111.364C17.7528 112.319 16.5643 114.245 16.5643 116.384C16.5643 119.481 19.083 122 22.1802 122H31.0469C33.8509 122 36.287 120.005 36.836 117.256L39.823 102.317C39.945 102.317 40.0532 102.323 40.1772 102.323C40.2992 102.323 40.4094 102.317 40.5314 102.317L43.5184 117.256C44.0674 120.005 46.5015 122 49.3075 122H58.1742C61.2714 122 63.7901 119.481 63.7901 116.384C63.7901 114.245 62.6016 112.321 60.685 111.36L55.6909 108.863L54.1324 101.069C60.1321 99.8511 62.7472 98.1667 62.9125 98.0565L64.2407 97.171L59.3371 84.912L65.7579 91.3308L68.6327 88.4559C72.2416 88.0348 75.085 85.1914 75.5061 81.5826L75.5966 81.4921L76.9189 82.8144C78.0779 83.9753 79.6206 84.6129 81.2617 84.6129C84.6482 84.6129 87.403 81.8581 87.403 78.4716C87.403 76.8541 86.7478 75.272 85.6045 74.1288ZM57.8121 32.9439C57.8534 32.4618 57.8869 31.9778 57.8869 31.4839V26.1277C59.0577 26.8105 59.8546 28.0659 59.8546 29.5161C59.8546 30.9959 59.0243 32.2729 57.8121 32.9439ZM20.4998 29.5161C20.4998 28.0659 21.2967 26.8105 22.4675 26.1277V31.4839C22.4675 31.9778 22.501 32.4618 22.5423 32.9439C21.3302 32.2729 20.4998 30.9959 20.4998 29.5161ZM22.7725 21.8301C21.9736 22.0033 21.2338 22.3201 20.545 22.7156C21.0193 12.2826 29.6301 3.93548 40.1772 3.93548C50.7243 3.93548 59.3352 12.2826 59.8094 22.7156C59.1207 22.3201 58.3808 22.0033 57.5819 21.8301C56.8204 19.4492 54.6126 17.7097 51.9837 17.7097C51.2399 17.7097 50.5413 17.4224 50.0159 16.895L46.0804 12.9595L42.145 16.895C41.6196 17.4224 40.921 17.7097 40.1772 17.7097H28.3708C25.7419 17.7097 23.534 19.4492 22.7725 21.8301ZM40.1772 45.2581C32.5817 45.2581 26.403 39.0774 26.403 31.4839V23.6129C26.403 22.5267 27.2865 21.6452 28.3708 21.6452H40.1772C41.9738 21.6452 43.6601 20.9466 44.9273 19.6774L46.0804 18.5243L47.2316 19.6774C48.5008 20.9466 50.1871 21.6452 51.9837 21.6452C53.0679 21.6452 53.9514 22.5267 53.9514 23.6129V31.4839C53.9514 39.0774 47.7727 45.2581 40.1772 45.2581ZM42.145 82.6452H38.2095V78.7097H42.145V82.6452ZM32.9772 116.482C32.7942 117.399 31.9816 118.065 31.0469 118.065H22.1802C21.2534 118.065 20.4998 117.309 20.4998 116.384C20.4998 115.745 20.856 115.168 21.4286 114.881L28.1445 111.524L28.8037 108.226H34.6301L32.9772 116.482ZM35.4153 104.29H29.5908L30.1142 101.675C31.771 101.915 33.6876 102.094 35.8344 102.205L35.4153 104.29ZM44.522 102.206C46.6255 102.102 48.5421 101.933 50.2481 101.711L50.7637 104.29H44.9391L44.522 102.206ZM58.9239 114.881C59.4985 115.166 59.8546 115.743 59.8546 116.384C59.8546 117.309 59.101 118.065 58.1742 118.065H49.3075C48.3729 118.065 47.5602 117.399 47.3772 116.482L45.7262 108.226H51.5527L52.2119 111.524L58.9239 114.881ZM58.0443 81.6731L55.9192 76.3622V72.8064L59.1522 80.5653L58.0443 81.6731ZM58.0089 67.5939L56.7161 64.4888C59.6264 62.9264 61.8834 61.2755 63.3336 60.087L64.8921 63.6466C64.7386 63.869 64.6166 64.109 64.4926 64.3511L58.0089 67.5939ZM59.528 71.2342L64.0971 68.9497C64.3922 69.8962 64.8842 70.7777 65.5906 71.4841L66.911 72.8064L62.1608 77.5566L59.528 71.2342ZM62.637 82.6452L69.6933 75.5888L72.8142 78.7097L65.7579 85.766L62.637 82.6452ZM81.2617 80.6774C80.6714 80.6774 80.1184 80.4492 79.7013 80.032L68.371 68.7017C67.9617 68.2905 67.7256 67.7218 67.7256 67.1413C67.7256 65.9253 68.7154 64.9355 69.9314 64.9355C70.5218 64.9355 71.0747 65.1637 71.4919 65.5809L82.8221 76.9112C83.2314 77.3224 83.4675 77.8911 83.4675 78.4716C83.4675 79.6877 82.4778 80.6774 81.2617 80.6774Z" fill="#343E48"/>
<path d="M16.5644 92.4837C7.88474 92.4837 0.82251 85.4214 0.82251 76.7417V67.3674C0.82251 65.1163 2.07399 63.0935 4.08503 62.086L11.956 58.1505C14.8033 56.7278 18.3236 56.7278 21.1729 58.1505L29.0439 62.086C31.0549 63.0935 32.3064 65.1183 32.3064 67.3674V76.7417C32.3064 85.4214 25.2442 92.4837 16.5644 92.4837Z" fill="#F6D993"/>
<path d="M16.5643 84.613C12.2235 84.613 8.69336 81.0829 8.69336 76.7421V68.8711H24.4353V76.7421C24.4353 81.0829 20.9052 84.613 16.5643 84.613ZM12.6288 72.8066V76.7421C12.6288 78.9125 14.3939 80.6775 16.5643 80.6775C18.7347 80.6775 20.4998 78.9125 20.4998 76.7421V72.8066H12.6288Z" fill="#343E48"/>
</svg>
