<svg width="96" height="80" viewBox="0 0 96 80" fill="none" xmlns="http://www.w3.org/2000/svg">
<path d="M20.5106 4L10 31H88L76.9362 4H20.5106Z" fill="#F6D993"/>
<path d="M87.825 29.2751L76.875 3.64385C75.9375 1.43135 73.7625 0.00634766 71.3625 0.00634766H24.6375C22.2375 0.00634766 20.0812 1.43135 19.125 3.64385L8.175 29.2751C3.35625 31.4876 0 36.3626 0 42.0063V58.0001C0 61.3001 2.7 64.0001 6 64.0001H8.00625V73.9938C8.00625 77.2938 10.7062 79.9938 14.0062 79.9938H22.0125C25.3125 79.9938 28.0125 77.2938 28.0125 73.9938V64.0001H68.0063V73.9938C68.0063 77.2938 70.7063 79.9938 74.0063 79.9938H82.0125C85.3125 79.9938 88.0125 77.2938 88.0125 73.9938V64.0001H90C93.3 64.0001 96 61.3001 96 58.0001V42.0063C96 36.3626 92.6437 31.4876 87.825 29.2751ZM22.8 5.21885C23.1187 4.4876 23.8312 4.0001 24.6375 4.0001H71.3625C72.1688 4.0001 72.8812 4.46885 73.2 5.2001L82.95 28.0188C82.6312 28.0001 82.3125 27.9813 82.0125 27.9813H14.0062C13.6875 27.9813 13.3687 28.0001 13.0687 28.0188L22.8 5.21885ZM24 73.9938C24 75.1001 23.1 76.0001 21.9938 76.0001H14.0062C12.9 76.0001 12 75.1001 12 73.9938V64.0001H24V73.9938ZM81.9937 76.0001H73.9875C72.8812 76.0001 71.9812 75.1001 71.9812 73.9938V64.0001H83.9812V73.9938H84C84 75.1001 83.1 76.0001 81.9937 76.0001ZM90 60.0063H86.0063H70.0125H26.0062H9.99375H6C4.89375 60.0063 3.99375 59.1063 3.99375 58.0001V42.0063C3.99375 36.4938 8.475 32.0126 13.9875 32.0126H81.9937C87.5062 32.0126 91.9875 36.4938 91.9875 42.0063V58.0001H92.0063C92.0063 59.1063 91.1062 60.0063 90 60.0063Z" fill="#2B3B46"/>
<path d="M18 36.0063C12.4875 36.0063 8.00623 40.4876 8.00623 46.0001C8.00623 51.5126 12.4875 55.9939 18 55.9939C23.5125 55.9939 27.9937 51.5126 27.9937 46.0001C27.9937 40.4876 23.5125 36.0063 18 36.0063ZM18 52.0001C14.7 52.0001 12 49.3001 12 46.0001C12 42.7001 14.7 40.0001 18 40.0001C21.3 40.0001 24 42.7001 24 46.0001C24 49.3001 21.3 52.0001 18 52.0001Z" fill="#2B3B46"/>
<path d="M78 36.0063C72.4875 36.0063 68.0063 40.4876 68.0063 46.0001C68.0063 51.5126 72.4875 55.9939 78 55.9939C83.5125 55.9939 87.9938 51.5126 87.9938 46.0001C87.9938 40.4876 83.5125 36.0063 78 36.0063ZM78 52.0001C74.7 52.0001 72 49.3001 72 46.0001C72 42.7001 74.7 40.0001 78 40.0001C81.3 40.0001 84 42.7001 84 46.0001C84 49.3001 81.3 52.0001 78 52.0001Z" fill="#2B3B46"/>
<path d="M62.0062 48.0061H33.9937C32.8875 48.0061 31.9875 48.9061 31.9875 50.0123C31.9875 51.1186 32.8875 52.0186 33.9937 52.0186H61.9875C63.0937 52.0186 63.9937 51.1186 63.9937 50.0123C63.9937 48.9061 63.1125 48.0061 62.0062 48.0061Z" fill="#2B3B46"/>
<path d="M62.0062 40H33.9937C32.8875 40 31.9875 40.9 31.9875 42.0063C31.9875 43.1125 32.8875 44.0125 33.9937 44.0125H61.9875C63.0937 44.0125 63.9937 43.1125 63.9937 42.0063C63.9937 40.9 63.1125 40 62.0062 40Z" fill="#2B3B46"/>
</svg>
