<svg width="40" height="40" viewBox="0 0 40 40" fill="none" xmlns="http://www.w3.org/2000/svg">
<path d="M12.6328 10.625C12.3218 10.6242 12.0137 10.685 11.7263 10.8041C11.439 10.9231 11.1781 11.0979 10.9587 11.3185L10.2681 12.0092L9.57738 11.3185C9.13335 10.8744 8.53112 10.625 7.90317 10.625C7.27522 10.625 6.673 10.8745 6.22898 11.3185C5.78496 11.7625 5.53552 12.3648 5.53552 12.9927C5.53553 13.6206 5.78499 14.2229 6.22902 14.6669L9.82613 18.264C9.88416 18.322 9.95307 18.3681 10.0289 18.3995C10.1047 18.4309 10.186 18.4471 10.2681 18.4471C10.3502 18.4471 10.4314 18.4309 10.5073 18.3995C10.5831 18.3681 10.652 18.322 10.71 18.264L14.3071 14.6669C14.6383 14.3358 14.8638 13.9139 14.9552 13.4546C15.0465 12.9953 14.9996 12.5192 14.8204 12.0866C14.6412 11.6539 14.3377 11.2841 13.9483 11.024C13.5589 10.7638 13.1011 10.625 12.6328 10.625V10.625ZM13.4232 13.783L10.2681 16.9382L7.11292 13.783C6.90332 13.5734 6.78557 13.2891 6.78557 12.9927C6.78557 12.6963 6.90332 12.412 7.11292 12.2024C7.32253 11.9928 7.60681 11.875 7.90324 11.875C8.19966 11.875 8.48395 11.9928 8.69355 12.2024L9.82636 13.3352C9.8844 13.3932 9.9533 13.4393 10.0291 13.4707C10.105 13.5021 10.1862 13.5182 10.2683 13.5182C10.3504 13.5182 10.4317 13.5021 10.5075 13.4707C10.5833 13.4393 10.6522 13.3932 10.7103 13.3352L11.8431 12.2024C12.0533 11.9955 12.3367 11.8801 12.6315 11.8813C12.9264 11.8825 13.2089 12.0001 13.4174 12.2086C13.6259 12.4172 13.7436 12.6996 13.7448 12.9945C13.746 13.2894 13.6306 13.5728 13.4238 13.783H13.4232Z" fill="#009D9A"/>
<path d="M33.2588 6.74277C31.5216 4.98432 29.4538 3.58673 27.1744 2.6304C24.895 1.67407 22.4491 1.17788 19.9772 1.17037C17.5054 1.16287 15.0564 1.6442 12.7713 2.58668C10.4861 3.52915 8.40991 4.91416 6.66204 6.66204C4.91416 8.40991 3.52915 10.4861 2.58668 12.7713C1.6442 15.0564 1.16287 17.5054 1.17037 19.9772C1.17788 22.4491 1.67407 24.895 2.6304 27.1744C3.58673 29.4538 4.98432 31.5216 6.74277 33.2588C8.48 35.0172 10.5478 36.4148 12.8272 37.3712C15.1065 38.3275 17.5525 38.8237 20.0244 38.8312C22.4962 38.8387 24.9451 38.3574 27.2303 37.4149C29.5154 36.4724 31.5916 35.0874 33.3395 33.3395C35.0874 31.5916 36.4724 29.5154 37.4149 27.2303C38.3574 24.9451 38.8387 22.4962 38.8312 20.0244C38.8237 17.5525 38.3275 15.1065 37.3712 12.8272C36.4148 10.5478 35.0172 8.48 33.2588 6.74277V6.74277ZM12.5893 20.8818C12.5814 20.8705 12.5728 20.8603 12.5646 20.8496C12.564 20.8487 12.5636 20.8478 12.5631 20.8471C12.437 20.6582 12.388 20.4282 12.4262 20.2043C12.4644 19.9805 12.5869 19.7797 12.7686 19.6434L12.8003 19.6196C12.9029 19.5416 13.0205 19.4856 13.1457 19.4551C13.2709 19.4246 13.401 19.4202 13.528 19.4423C13.6532 19.4633 13.7728 19.5099 13.8793 19.5791C13.9857 19.6484 14.0767 19.7389 14.1466 19.8449C14.5856 20.5043 15.0841 21.2523 15.4026 21.7303L13.9042 22.8542L12.5893 20.8818ZM11.5396 23.4119L12.11 22.416L13.2309 24.0973C13.278 24.168 13.3391 24.2283 13.4104 24.2746C13.4816 24.3208 13.5615 24.3521 13.6453 24.3664C13.729 24.3808 13.8148 24.3779 13.8974 24.358C13.9799 24.3381 14.0576 24.3015 14.1256 24.2506L16.3 22.6198C16.4788 22.749 16.6244 22.919 16.7245 23.1156C16.8246 23.3123 16.8764 23.5299 16.8756 23.7506C16.8756 23.8666 16.9079 23.9804 16.9689 24.0791C17.0299 24.1779 17.1172 24.2577 17.2211 24.3096L17.3531 24.3756C17.5858 24.491 17.7815 24.6692 17.918 24.8902C18.0546 25.1111 18.1265 25.3659 18.1256 25.6256C18.1256 25.7077 18.1417 25.7889 18.1732 25.8648C18.2046 25.9406 18.2506 26.0095 18.3086 26.0675L18.3412 26.1001C18.4714 26.2296 18.5746 26.3836 18.6449 26.5532C18.7152 26.7229 18.7511 26.9048 18.7506 27.0884V27.5006C18.7506 27.5976 18.7732 27.6933 18.8166 27.7801L18.9893 28.1256C19.0859 28.3198 19.1361 28.5337 19.1361 28.7506C19.1361 28.9675 19.0859 29.1814 18.9893 29.3756C18.9424 29.4693 18.8644 29.5438 18.7687 29.5865L13.4968 31.9296C13.3643 31.9886 13.2565 32.0917 13.1916 32.2213L11.564 35.3407C10.3865 34.6904 9.28772 33.9066 8.28957 33.0048L10.5432 29.0608C10.5766 29.0025 10.6003 28.9392 10.6136 28.8733L11.2386 25.7483C11.2466 25.7079 11.2506 25.6668 11.2506 25.6256V24.4986C11.2507 24.1174 11.3504 23.7428 11.5396 23.4119ZM16.8756 31.7956V37.2231C15.4466 36.9673 14.0555 36.5328 12.735 35.9298L14.2096 32.9807L16.8756 31.7956ZM18.1256 37.4008V31.24L19.2763 30.7286C19.6368 30.568 19.9305 30.2874 20.1073 29.9346C20.2902 29.5667 20.3853 29.1614 20.3853 28.7506C20.3853 28.3397 20.2902 27.9344 20.1073 27.5665L20.0006 27.353V27.0884C20.0024 26.4559 19.776 25.8439 19.363 25.3649C19.2995 24.6984 18.9839 24.0813 18.4807 23.6397C18.5726 23.5762 18.6459 23.4893 18.6928 23.3879C18.7397 23.2866 18.7586 23.1745 18.7475 23.0633L17.6343 11.9414C17.6255 11.854 17.6352 11.7658 17.6626 11.6825C17.6901 11.5991 17.7346 11.5224 17.7935 11.4573C17.8524 11.3923 17.9243 11.3402 18.0045 11.3046C18.0847 11.269 18.1715 11.2506 18.2593 11.2506H18.2899C18.4463 11.2496 18.5981 11.3038 18.7185 11.4038C18.8388 11.5037 18.92 11.6429 18.9478 11.7969C19.4223 14.4881 20.6353 21.3594 20.6353 21.3594C20.6608 21.504 20.7365 21.635 20.849 21.7294C20.9616 21.8238 21.1037 21.8756 21.2506 21.8756H21.2584C21.4067 21.8737 21.5495 21.8191 21.6612 21.7216C21.773 21.6241 21.8464 21.49 21.8684 21.3433L23.5505 10.1157C23.5803 9.90942 23.6837 9.72085 23.8416 9.58482C23.9996 9.4488 24.2014 9.3745 24.4099 9.37566H24.4496C24.5836 9.37451 24.7162 9.40275 24.8382 9.45839C24.9601 9.51403 25.0684 9.59571 25.1553 9.69769C25.2424 9.79741 25.3064 9.91499 25.3431 10.0422C25.3797 10.1693 25.3881 10.303 25.3675 10.4337C24.8486 13.8841 23.7575 21.1579 23.7575 21.1579C23.7351 21.3078 23.7678 21.4607 23.8497 21.5883C23.9316 21.7158 24.057 21.8092 24.2026 21.8512C24.3483 21.8931 24.5042 21.8807 24.6414 21.8163C24.7785 21.7518 24.8876 21.6398 24.9483 21.5009L28.7452 12.8111C28.7851 12.7197 28.8433 12.6374 28.916 12.5692C28.9888 12.501 29.0747 12.4483 29.1685 12.4143C29.2622 12.3803 29.3619 12.3658 29.4615 12.3715C29.5611 12.3773 29.6585 12.4033 29.7477 12.4478L29.7789 12.4635C29.9577 12.5517 30.0956 12.7052 30.1643 12.8923C30.233 13.0794 30.227 13.2858 30.1478 13.4686C28.9793 16.1336 26.3032 22.2499 26.3032 22.2499C26.2449 22.3833 26.235 22.5329 26.2752 22.6729C26.3154 22.8129 26.4032 22.9344 26.5235 23.0165C26.6438 23.0986 26.789 23.1362 26.934 23.1226C27.0791 23.1091 27.2148 23.0453 27.3178 22.9423L31.8902 18.37C31.9525 18.3077 32.0278 18.26 32.1107 18.2303C32.1937 18.2007 32.2821 18.1898 32.3698 18.1985C32.4574 18.2071 32.5421 18.2351 32.6176 18.2805C32.6931 18.3258 32.7576 18.3873 32.8065 18.4606C32.8682 18.5538 32.9025 18.6624 32.9057 18.7741C32.9088 18.8859 32.8806 18.9962 32.8243 19.0928L28.1046 27.1162C27.3991 28.3121 26.4334 29.3338 25.2791 30.1055C25.1934 30.1626 25.1232 30.2399 25.0746 30.3306C25.026 30.4213 25.0006 30.5227 25.0006 30.6256V36.7787C23.3774 37.259 21.6933 37.5021 20.0006 37.5006C19.3743 37.5003 18.7484 37.467 18.1256 37.4008V37.4008ZM32.375 32.375C30.6371 34.119 28.55 35.4757 26.2506 36.3559V30.9537C27.4399 30.1016 28.4383 29.0106 29.1819 27.7506L33.9015 19.7271C34.1292 19.3401 34.208 18.8834 34.1231 18.4424C34.0382 18.0015 33.7955 17.6067 33.4403 17.3319C33.0852 17.0571 32.6421 16.9212 32.1939 16.9497C31.7458 16.9782 31.3234 17.1691 31.006 17.4866L28.7763 19.7164C29.6214 17.7852 30.6703 15.3893 31.2919 13.9708C31.5001 13.4944 31.5171 12.9561 31.3394 12.4675C31.1618 11.9788 30.803 11.5772 30.3374 11.3458L30.3061 11.3302C30.0651 11.2102 29.8022 11.1403 29.5334 11.1247C29.2646 11.1091 28.9954 11.1481 28.7421 11.2394C28.4883 11.3302 28.2559 11.4721 28.0593 11.6564C27.8627 11.8408 27.7061 12.0635 27.5992 12.3109L25.6946 16.6703C26.0114 14.5599 26.3665 12.1927 26.6033 10.62C26.6497 10.3105 26.6287 9.99466 26.5417 9.69404C26.4547 9.39342 26.3037 9.11515 26.0992 8.87827C25.8947 8.64139 25.6414 8.45149 25.3567 8.32158C25.072 8.19167 24.7625 8.12482 24.4496 8.12558H24.4099C23.9016 8.12291 23.4096 8.30412 23.0245 8.63581C22.6394 8.96749 22.3872 9.42725 22.3146 9.93027L21.2002 17.3686C20.8378 15.3147 20.4162 12.9252 20.1791 11.58C20.1006 11.1364 19.8681 10.7348 19.5226 10.4458C19.177 10.1569 18.7406 9.99924 18.2901 10.0006H18.2595C17.9971 10.0006 17.7375 10.0556 17.4976 10.162C17.2578 10.2684 17.0429 10.424 16.8668 10.6186C16.6907 10.8132 16.5573 11.0425 16.4753 11.2918C16.3933 11.5411 16.3644 11.8048 16.3905 12.0659L17.3749 21.9028C17.1723 21.6957 16.9373 21.5231 16.679 21.3918C16.4377 21.0297 15.7613 20.015 15.1868 19.1521C15.0216 18.9043 14.8074 18.6928 14.5575 18.5307C14.3075 18.3686 14.0271 18.2592 13.7334 18.2093C13.4397 18.1594 13.1389 18.1701 12.8495 18.2406C12.56 18.3111 12.288 18.44 12.0502 18.6194L12.0184 18.6432C11.6306 18.9343 11.3533 19.3485 11.2318 19.8179C11.1103 20.2872 11.1519 20.784 11.3498 21.2266L10.4544 22.7909C10.1572 23.311 10.0008 23.8996 10.0006 24.4986V25.5637L9.40761 28.5286L7.36347 32.1057C4.18255 28.7763 2.44206 24.3273 2.51931 19.7232C2.59657 15.1191 4.48535 10.731 7.7762 7.51017C11.067 4.28931 15.4947 2.49529 20.0994 2.51701C24.7041 2.53873 29.1146 4.37445 32.375 7.62621C34 9.25123 35.289 11.1804 36.1685 13.3036C37.0479 15.4268 37.5006 17.7024 37.5006 20.0006C37.5006 22.2987 37.0479 24.5743 36.1685 26.6975C35.289 28.8207 34 30.7499 32.375 32.375Z" fill="#009D9A"/>
</svg>
