<svg width="101" height="102" viewBox="0 0 101 102" fill="none" xmlns="http://www.w3.org/2000/svg">
<rect x="13" y="37" width="75" height="45" fill="#F6D993"/>
<path d="M90.9001 33.6768H10.1001V84.1768H90.9001V33.6768ZM87.5334 80.8101H13.4668V37.0434H87.5334V80.8101Z" fill="#2B3B46"/>
<path d="M97.6333 87.5436V31.9936C97.6333 29.2045 95.3724 26.9436 92.5833 26.9436H8.41667C5.62759 26.9436 3.36667 29.2045 3.36667 31.9936V87.5436H0V92.5936C0.00547083 97.2396 3.77067 101.005 8.41667 101.01H92.5833C97.2293 101.005 100.995 97.2396 101 92.5936V87.5436H97.6333ZM6.73333 31.9936C6.73333 31.064 7.48705 30.3103 8.41667 30.3103H92.5833C93.513 30.3103 94.2667 31.064 94.2667 31.9936V87.5436H57.2333V89.2269C57.2333 90.1566 56.4796 90.9103 55.55 90.9103H45.45C44.5204 90.9103 43.7667 90.1566 43.7667 89.2269V87.5436H6.73333V31.9936ZM97.6333 92.5936C97.6333 95.3827 95.3724 97.6436 92.5833 97.6436H8.41667C5.62759 97.6436 3.36667 95.3827 3.36667 92.5936V90.9103H40.6878C40.708 90.9692 40.74 91.0214 40.7636 91.0786C40.7989 91.1678 40.8377 91.2469 40.8781 91.3395C40.9671 91.5302 41.0679 91.7151 41.1794 91.8933C41.2299 91.9725 41.277 92.0532 41.3326 92.1307C41.475 92.3314 41.632 92.5216 41.8022 92.6997C41.8376 92.735 41.8645 92.7754 41.8998 92.8107C42.1084 93.0159 42.3335 93.2034 42.5732 93.3713C42.6405 93.4167 42.7129 93.4555 42.7836 93.4992C42.9669 93.6148 43.1575 93.7181 43.3542 93.809C43.4468 93.8511 43.5394 93.8881 43.6337 93.9251C43.8323 94.0007 44.0352 94.0642 44.2414 94.1153C44.3339 94.1372 44.4232 94.1642 44.5174 94.181C44.8246 94.2424 45.1369 94.2746 45.45 94.2769H55.55C55.8614 94.2748 56.172 94.2433 56.4775 94.1827C56.5718 94.1658 56.661 94.1389 56.7536 94.1153C56.96 94.0655 57.1628 94.0025 57.3613 93.9268C57.4555 93.8898 57.5481 93.8527 57.6407 93.8107C57.8374 93.7197 58.0281 93.6162 58.2113 93.5009C58.2821 93.4571 58.3544 93.4184 58.4218 93.373C58.6614 93.2051 58.8866 93.0176 59.0951 92.8124C59.1305 92.7771 59.1574 92.7367 59.1927 92.7013C59.363 92.5233 59.5199 92.3331 59.6624 92.1324C59.7179 92.0549 59.7651 91.9741 59.8156 91.895C59.9267 91.7166 60.0266 91.5316 60.1152 91.3412C60.1556 91.2537 60.196 91.1729 60.233 91.0786C60.2549 91.0214 60.2869 90.9692 60.3071 90.9103H97.6333V92.5936Z" fill="#2B3B46"/>
<path d="M36.2152 9.29196L36.2203 9.29701C44.0966 1.41059 56.8748 1.40217 64.7612 9.27849C64.7673 9.28459 64.7736 9.2909 64.7797 9.29701C65.4383 9.95561 66.5064 9.95561 67.165 9.29701C67.8236 8.6384 67.8236 7.57033 67.165 6.91172C57.978 -2.29211 43.0691 -2.30558 33.8653 6.88142C33.8552 6.89152 33.8451 6.90162 33.835 6.91172C33.1892 7.58043 33.2078 8.64619 33.8765 9.29196C34.5287 9.92195 35.5629 9.92195 36.2152 9.29196Z" fill="#2B3B46"/>
<path d="M60.016 15.7442C60.3316 16.0598 60.7596 16.2374 61.2061 16.2374C62.1357 16.2372 62.8892 15.4835 62.889 14.5537C62.889 14.1074 62.7116 13.6796 62.3962 13.364C55.8449 6.79393 45.2079 6.77878 38.6379 13.3301C38.6265 13.3415 38.6152 13.3526 38.604 13.364C37.9353 14.0098 37.9168 15.0755 38.5625 15.7442C39.2083 16.4129 40.2741 16.4314 40.9428 15.7857C40.9569 15.772 40.9706 15.7583 40.9842 15.7442C46.2219 10.4886 54.7282 10.4743 59.9838 15.712C59.9945 15.7228 60.0053 15.7335 60.016 15.7442Z" fill="#2B3B46"/>
<path d="M43.3051 22.1676C43.9477 22.8392 45.0133 22.8628 45.6851 22.2202C45.6984 22.2074 45.7116 22.1945 45.7245 22.1813C48.401 19.6396 52.5992 19.6396 55.2757 22.1813C55.9476 22.8239 57.0131 22.8003 57.6557 22.1287C58.2834 21.4726 58.2777 20.4367 57.6425 19.7876C53.69 15.8618 47.3102 15.8618 43.3577 19.7876C42.686 20.4302 42.6625 21.4957 43.3051 22.1676Z" fill="#2B3B46"/>
</svg>
