<svg width="31" height="31" viewBox="0 0 31 31" fill="none" xmlns="http://www.w3.org/2000/svg">
<path d="M30.7974 15.4806C30.7974 6.92998 23.9041 0 15.3987 0C6.89332 0 0 6.92998 0 15.4806C0 24.0312 6.89332 30.9612 15.3987 30.9612C15.4889 30.9612 15.5791 30.9612 15.6694 30.9551V18.9093H12.3611V15.0331H15.6694V12.1789C15.6694 8.8711 17.6784 7.06907 20.6138 7.06907C22.0213 7.06907 23.2304 7.17187 23.5792 7.22024V10.6792H21.5582C19.9642 10.6792 19.6514 11.4411 19.6514 12.5598V15.0271H23.471L22.9717 18.9033H19.6514V30.3625C26.0876 28.5061 30.7974 22.5497 30.7974 15.4806Z" fill="#009D9A"/>
</svg>
