<svg width="32" height="31" viewBox="0 0 32 31" fill="none" xmlns="http://www.w3.org/2000/svg">
<path d="M18.9473 15.4805C18.9473 17.117 17.6277 18.4436 15.9999 18.4436C14.3721 18.4436 13.0525 17.117 13.0525 15.4805C13.0525 13.8439 14.3721 12.5173 15.9999 12.5173C17.6277 12.5173 18.9473 13.8439 18.9473 15.4805Z" fill="#009D9A"/>
<path d="M22.8928 10.2378C22.7511 9.85182 22.5251 9.50246 22.2314 9.21569C21.9461 8.92042 21.5989 8.69318 21.2147 8.55074C20.9031 8.42909 20.4351 8.28429 19.573 8.24484C18.6404 8.20208 18.3608 8.19287 15.9999 8.19287C13.6387 8.19287 13.3591 8.20185 12.4268 8.2446C11.5647 8.28429 11.0964 8.42909 10.7851 8.55074C10.4009 8.69318 10.0534 8.92042 9.76837 9.21569C9.47466 9.50246 9.24862 9.85159 9.1067 10.2378C8.9857 10.551 8.84166 11.0218 8.80242 11.8885C8.7599 12.8258 8.75073 13.1069 8.75073 15.4806C8.75073 17.8542 8.7599 18.1353 8.80242 19.0728C8.84166 19.9395 8.9857 20.41 9.1067 20.7232C9.24862 21.1095 9.47443 21.4586 9.76813 21.7454C10.0534 22.0406 10.4007 22.2679 10.7848 22.4103C11.0964 22.5322 11.5647 22.677 12.4268 22.7164C13.3591 22.7592 13.6385 22.7682 15.9996 22.7682C18.361 22.7682 18.6407 22.7592 19.5728 22.7164C20.4349 22.677 20.9031 22.5322 21.2147 22.4103C21.9859 22.1113 22.5954 21.4985 22.8928 20.7232C23.0138 20.41 23.1579 19.9395 23.1973 19.0728C23.2399 18.1353 23.2488 17.8542 23.2488 15.4806C23.2488 13.1069 23.2399 12.8258 23.1973 11.8885C23.1581 11.0218 23.0141 10.551 22.8928 10.2378ZM15.9999 20.0451C13.4921 20.0451 11.4592 18.0016 11.4592 15.4804C11.4592 12.9593 13.4921 10.9157 15.9999 10.9157C18.5074 10.9157 20.5404 12.9593 20.5404 15.4804C20.5404 18.0016 18.5074 20.0451 15.9999 20.0451ZM20.7199 11.802C20.1339 11.802 19.6588 11.3244 19.6588 10.7353C19.6588 10.1462 20.1339 9.66852 20.7199 9.66852C21.3059 9.66852 21.781 10.1462 21.781 10.7353C21.7807 11.3244 21.3059 11.802 20.7199 11.802Z" fill="#009D9A"/>
<path d="M16 0C7.49685 0 0.601318 6.9322 0.601318 15.4806C0.601318 24.029 7.49685 30.9612 16 30.9612C24.5032 30.9612 31.3987 24.029 31.3987 15.4806C31.3987 6.9322 24.5032 0 16 0ZM24.7889 19.1455C24.7461 20.0917 24.5965 20.7378 24.3779 21.3033C23.9186 22.4974 22.9797 23.4413 21.7919 23.9031C21.2296 24.1228 20.5868 24.273 19.6457 24.3162C18.7028 24.3594 18.4016 24.3698 16.0002 24.3698C13.5987 24.3698 13.2977 24.3594 12.3545 24.3162C11.4135 24.273 10.7706 24.1228 10.2083 23.9031C9.61812 23.6799 9.08381 23.33 8.64207 22.8777C8.19235 22.4338 7.84436 21.8964 7.62232 21.3033C7.4038 20.738 7.25413 20.0917 7.21137 19.1457C7.1679 18.1975 7.15779 17.8947 7.15779 15.4806C7.15779 13.0665 7.1679 12.7636 7.21113 11.8157C7.25389 10.8694 7.40333 10.2234 7.62185 9.65789C7.84389 9.06475 8.19211 8.52736 8.64207 8.08352C9.08357 7.63116 9.61812 7.28133 10.2081 7.05811C10.7706 6.83843 11.4133 6.68819 12.3545 6.64497C13.2974 6.60174 13.5987 6.59135 16 6.59135C18.4014 6.59135 18.7026 6.60174 19.6455 6.6452C20.5868 6.68819 21.2294 6.83843 21.7919 7.05787C22.3819 7.28109 22.9165 7.63116 23.3582 8.08352C23.8079 8.5276 24.1561 9.06475 24.3779 9.65789C24.5967 10.2234 24.7461 10.8694 24.7891 11.8157C24.8321 12.7636 24.8422 13.0665 24.8422 15.4806C24.8422 17.8947 24.8321 18.1975 24.7889 19.1455Z" fill="#009D9A"/>
</svg>
