<svg width="23" height="23" viewBox="0 0 23 23" fill="none" xmlns="http://www.w3.org/2000/svg">
<path d="M22.0616 9.38291C22.0608 9.38139 22.0598 9.3797 22.0588 9.37835L19.4174 5.48104C19.2088 5.17336 18.7859 5.10401 18.4899 5.32593L17.9422 5.73662C16.5216 4.21887 14.426 3.5756 12.3271 4.05023C11.6444 4.20466 11.0055 4.48409 10.4358 4.86145V4.81494C10.4358 3.44773 9.85617 2.13413 8.84535 1.21093C6.48965 -0.940783 2.85045 -0.0820251 1.19265 2.659C-0.562926 5.56155 0.90679 8.20345 0.938082 8.39273C1.40053 9.58809 1.11585 10.9484 0.213288 11.8582L0.188423 11.8832C-0.0233484 12.0967 -0.0608989 12.4279 0.0975916 12.6833C0.255744 12.938 0.568496 13.0524 0.854861 12.957C3.38682 12.1131 4.90136 9.50318 4.37785 6.88597L4.3584 6.78837C4.1539 5.76588 4.76875 4.73849 5.7887 4.3985C6.5436 4.14681 7.36227 4.34015 7.92503 4.9029L9.10263 6.0805C8.59569 6.71429 8.21985 7.45549 8.02059 8.26147C7.52313 10.273 8.0688 12.3453 9.47999 13.8053C10.0096 14.3531 10.334 15.0683 10.415 15.8494C8.84569 16.6855 7.83775 18.3879 7.83775 20.2218C7.83775 20.4306 7.93805 20.6266 8.10737 20.7487C8.44786 20.9942 8.78091 20.7963 8.84772 20.7863C10.7719 20.1449 12.9157 20.3135 14.8841 21.2612C16.1549 21.8729 17.4617 22.1704 18.8796 22.1704C19.2384 22.1704 19.5292 21.8795 19.5292 21.5209C19.5292 19.6437 18.7902 17.8281 17.5018 16.5397L16.9377 15.9754C17.0003 15.0015 17.5014 14.2389 17.9419 13.7484L18.4899 14.1594C18.7878 14.3829 19.2102 14.31 19.4174 14.0043L22.0588 10.107C22.2066 9.88917 22.2074 9.6023 22.0616 9.38291ZM18.7244 6.774L20.2962 9.09317H15.632C16.0349 8.79107 18.2809 7.10654 18.7244 6.774ZM14.333 9.74269C14.333 10.1008 14.0415 10.3922 13.6835 10.3922C13.3254 10.3922 13.0339 10.1008 13.0339 9.74269C13.0339 9.38461 13.3254 9.09317 13.6835 9.09317C14.0415 9.09317 14.333 9.38461 14.333 9.74269ZM8.84366 3.98426C7.93061 3.07138 6.60264 2.75795 5.37785 3.1661C3.7378 3.71278 2.75184 5.37972 3.08472 7.04345L3.10417 7.14105C3.33286 8.28397 3.0465 9.42503 2.3946 10.3073C2.52451 9.52043 2.4489 8.69753 2.14985 7.92419C2.11737 7.73661 0.908312 5.63902 2.30411 3.33135C3.53804 1.29145 6.22138 0.573587 7.96934 2.17016C8.56508 2.71448 8.95682 3.44333 9.08808 4.22885L8.84366 3.98426ZM18.1895 20.8431C17.2323 20.7636 16.3296 20.5155 15.4477 20.0907C13.4443 19.1261 11.2736 18.8632 9.24928 19.3262C9.50689 18.3083 10.1875 17.413 11.1014 16.9561L11.2386 16.8876H16.0124L16.5831 17.4583C17.4602 18.3352 18.0366 19.5647 18.1895 20.8431ZM15.6726 15.5886H11.6933C11.5613 14.5678 11.1187 13.6312 10.414 12.9023C9.31575 11.7662 8.89238 10.1478 9.28175 8.57321C9.67975 6.9631 10.9878 5.68503 12.6138 5.31731C14.2046 4.95753 15.7909 5.41693 16.8944 6.52264L14.7628 8.12142C14.4536 7.91489 14.0825 7.79412 13.6835 7.79412C12.609 7.79412 11.7349 8.66827 11.7349 9.74269C11.7349 10.8173 12.609 11.6913 13.6835 11.6913C14.0825 11.6913 14.4536 11.5707 14.7628 11.3641L16.8998 12.967C16.2239 13.7499 15.7998 14.6593 15.6726 15.5886ZM18.7244 12.7114L15.632 10.3922H20.2962L18.7244 12.7114Z" fill="#009D9A"/>
</svg>
