<svg width="109" height="109" viewBox="0 0 109 109" fill="none" xmlns="http://www.w3.org/2000/svg">
<path d="M36.228 29.3156C34.0311 29.3156 39.9635 33.4905 35.1578 34.5077L36.228 39.8483C41.0337 40.6112 51.1943 42.3278 53.3912 43.0908C55.5881 43.8537 67.1218 41.247 72.614 39.8483V29.3157C69.639 28.807 63.0026 32.8292 60.2565 32.2189C56.8238 31.4559 38.9741 29.3156 36.228 29.3156Z" fill="#F6D993" stroke="#F6D993"/>
<path d="M107.391 94.9362C107.409 94.9158 107.428 94.8966 107.445 94.8759C108.667 93.4533 109.205 91.5732 108.921 89.7178C107.739 81.9944 104.105 74.9878 98.4092 69.4533C98.3959 69.4026 98.3849 69.3518 98.3703 69.3013C97.7934 67.2819 96.341 65.687 94.3858 64.9256L83.0933 60.5281C81.763 60.0101 80.3486 59.9531 79.0385 60.2911L73.1513 57.9962C73.6951 57.6056 74.0314 56.9719 74.0314 56.2822V40.5222L74.4314 40.3909C75.2978 40.1064 75.8836 39.2974 75.8836 38.3854V27.7501C75.8836 27.6326 75.8736 27.5154 75.8542 27.3995C75.683 26.3828 75.4269 25.3864 75.1 24.4149C78.1426 27.26 82.1672 28.8804 86.4526 28.8804C90.4762 28.8804 94.3596 27.425 97.3881 24.7825C100.386 22.1667 102.351 18.5674 102.92 14.6479C103.035 13.8548 102.692 13.0648 102.033 12.6087C101.374 12.1525 100.514 12.1086 99.8117 12.4957C97.988 13.5014 95.918 14.033 93.8249 14.033C92.4139 14.033 91.0308 13.7988 89.7137 13.3372C88.6132 12.9515 87.4089 13.5307 87.0232 14.6308C86.6375 15.7308 87.2166 16.9356 88.3168 17.3215C90.0838 17.9411 91.937 18.255 93.8249 18.255C95.0765 18.255 96.322 18.1129 97.5352 17.8357C95.463 21.903 91.2123 24.6581 86.4528 24.6581C82.2065 24.6581 78.3024 22.5258 76.0007 18.952C75.9992 18.9495 75.9976 18.947 75.9963 18.9444C72.937 13.9988 67.4581 11.0471 61.6488 11.0471V8.24032C61.6488 7.90784 61.6236 7.58126 61.5768 7.26165C63.7499 5.56545 66.4165 4.64293 69.2047 4.64293C70.6782 4.64293 72.1194 4.89795 73.4878 5.40058C74.5817 5.80252 75.7953 5.24141 76.1973 4.14706C76.5992 3.0527 76.0381 1.8395 74.9437 1.43756C73.1074 0.762883 71.1766 0.420898 69.2047 0.420898C65.7422 0.420898 62.4201 1.48316 59.6338 3.44768C58.4202 2.25558 56.7582 1.51842 54.9268 1.51842C51.2203 1.51842 48.2049 4.5338 48.2049 8.24032V11.3821C45.647 12.2065 43.2536 13.4932 41.171 15.1995C37.3429 18.3358 34.7962 22.6687 33.9995 27.3999C33.9801 27.5156 33.9701 27.633 33.9701 27.7504V38.3857C33.9701 39.2976 34.5557 40.1066 35.4223 40.3911L35.8221 40.5224V56.2827C35.8221 56.9725 36.1584 57.6061 36.7022 57.9966L30.837 60.283C29.5359 59.9541 28.1336 60.0147 26.8138 60.5286L15.5215 64.926C13.5663 65.6872 12.1139 67.2821 11.537 69.3017C11.5226 69.3524 11.5114 69.4031 11.4981 69.4537C5.80261 74.9882 2.16786 81.9949 0.986532 89.7182C0.7026 91.5736 1.24049 93.4535 2.46192 94.8761C2.47966 94.8968 2.49865 94.916 2.51681 94.9365C1.82313 96.9459 1.30783 99.0187 0.986532 101.118C0.7026 102.973 1.24049 104.853 2.46192 106.276C3.6804 107.695 5.45197 108.509 7.32233 108.509H102.585C104.455 108.509 106.227 107.695 107.445 106.276C108.667 104.853 109.205 102.973 108.921 101.118C108.6 99.0194 108.084 96.9466 107.391 94.9362ZM104.747 90.3564C104.846 91.0026 104.667 91.6308 104.242 92.1254C103.82 92.6164 103.232 92.8869 102.585 92.8869H88.6364C87.4306 92.8869 86.4498 91.9059 86.4498 90.7003V83.1549C90.7152 81.6138 94.5108 78.8537 97.2952 75.1353C97.3942 75.0032 97.486 74.8672 97.5743 74.7298C101.397 79.209 103.86 84.5551 104.747 90.3564V90.3564ZM27.6793 102.1V84.2494C28.5125 84.3847 29.3555 84.4766 30.2056 84.5213C31.0014 88.0592 34.1627 90.7104 37.9329 90.7104C42.3013 90.7104 45.8554 87.1521 45.8554 82.7783C45.8554 79.86 44.2719 77.3065 41.9213 75.9289C40.9243 74.0129 39.7522 71.7944 38.5656 69.6247C43.1638 72.072 48.3229 74.2559 52.8424 75.3884V104.286H27.2947C27.5434 103.604 27.6793 102.867 27.6793 102.1V102.1ZM41.6336 82.7783C41.6336 84.8241 39.9737 86.4884 37.9332 86.4884C35.8926 86.4884 34.2327 84.8241 34.2327 82.7783C34.2327 80.7325 35.8926 79.0681 37.9332 79.0681C39.9737 79.0681 41.6336 80.7325 41.6336 82.7783ZM57.0645 75.3756C61.5958 74.2329 66.7642 72.0382 71.3632 69.5842C70.1692 71.7668 68.9888 74.0011 67.9856 75.9289C65.635 77.3063 64.0515 79.8598 64.0515 82.7783C64.0515 87.1521 67.6056 90.7104 71.974 90.7104C75.7442 90.7104 78.9057 88.059 79.7013 84.5211C80.5514 84.4764 81.3946 84.3845 82.2278 84.249V102.1C82.2278 102.867 82.3638 103.604 82.6124 104.286H57.0645V75.3756ZM71.974 79.0684C74.0145 79.0684 75.6744 80.7327 75.6744 82.7785C75.6744 84.8243 74.0145 86.4886 71.974 86.4886C69.9334 86.4886 68.2736 84.8243 68.2736 82.7785C68.2736 80.7327 69.9334 79.0684 71.974 79.0684ZM92.8536 68.8601C93.5684 69.1383 94.0993 69.722 94.3106 70.4615C94.523 71.2048 94.379 71.9859 93.9159 72.6046C90.4813 77.1908 85.1775 79.9983 79.4993 80.3035C78.589 77.5364 76.1975 75.438 73.2678 74.9538C74.9302 71.8242 77.0005 68.0372 78.5962 65.4791C79.2274 64.4671 80.4746 64.0396 81.5614 64.4629L92.8536 68.8601ZM38.1922 36.8571V31.1856C43.4275 33.7083 49.176 34.9747 54.9266 34.9747C60.6773 34.9747 66.4262 33.7083 71.6613 31.1856V36.8571L54.9266 42.354L38.1922 36.8571ZM52.427 8.24032C52.427 6.86183 53.5484 5.74045 54.9268 5.74045C56.3053 5.74045 57.4267 6.86183 57.4267 8.24032V10.4617C56.6098 10.3693 55.7854 10.318 54.9558 10.318C54.1069 10.318 53.2629 10.3712 52.427 10.4679V8.24032ZM43.8467 18.4652C46.9362 15.9339 50.8813 14.54 54.9556 14.54C59.0246 14.54 62.9582 15.9331 66.0323 18.4625C68.6428 20.6105 70.4975 23.4587 71.3586 26.5994C61.2437 32.1453 48.6105 32.1455 38.4955 26.5998C39.3583 23.4631 41.2217 20.616 43.8467 18.4652ZM54.2678 46.5815C54.4818 46.6518 54.7041 46.687 54.9266 46.687C55.1491 46.687 55.3714 46.6518 55.5855 46.5815L69.8093 41.9094V54.8556L65.5345 56.5725V54.4663C65.5345 53.3004 64.5892 52.3553 63.4235 52.3553C62.2578 52.3553 61.3125 53.3004 61.3125 54.4663V58.2683L57.0377 59.9852V56.6852C57.0377 55.5193 56.0923 54.5742 54.9266 54.5742C53.7609 54.5742 52.8156 55.5193 52.8156 56.6852V59.9852L48.5408 58.2683V54.4663C48.5408 53.3004 47.5955 52.3553 46.4298 52.3553C45.2641 52.3553 44.3188 53.3004 44.3188 54.4663V56.5725L40.044 54.8556V41.9094L54.2678 46.5815ZM42.3435 60.3291L54.1396 65.067C54.3921 65.1684 54.6594 65.2192 54.9266 65.2192C55.1939 65.2192 55.4609 65.1686 55.7136 65.067L67.5098 60.3291L74.3142 62.9813C68.3878 66.8084 60.4583 70.3541 54.9266 71.5392C49.3949 70.3541 41.4657 66.8084 35.539 62.9813L42.3435 60.3291ZM15.5963 70.4615C15.8076 69.7222 16.3387 69.1383 17.0533 68.8601L28.3453 64.4626C29.4325 64.0398 30.6795 64.4671 31.3105 65.4789C32.9062 68.037 34.9767 71.824 36.6391 74.9538C33.709 75.4378 31.3172 77.5366 30.4072 80.3041C24.7321 80.001 19.4254 77.1906 15.9908 72.6046C15.5279 71.9859 15.3839 71.2048 15.5963 70.4615V70.4615ZM5.15959 90.3564C6.04707 84.5551 8.5102 79.209 12.3326 74.7298C12.4209 74.8672 12.5127 75.003 12.6117 75.1353C15.3963 78.8539 19.192 81.6142 23.4573 83.1553V90.7001C23.4573 91.9057 22.4765 92.8867 21.2707 92.8867H7.32212C6.67509 92.8867 6.08633 92.6162 5.66476 92.1252C5.24023 91.6308 5.06101 91.0026 5.15959 90.3564V90.3564ZM21.2456 104.287H7.32212C6.67509 104.287 6.08633 104.016 5.66476 103.525C5.24002 103.031 5.0608 102.402 5.15938 101.756C5.40468 100.154 5.77876 98.5687 6.27126 97.0221C6.61577 97.0794 6.96705 97.1089 7.32191 97.1089H21.2703C22.0378 97.1089 22.7741 96.973 23.4568 96.7243V102.1C23.4568 103.305 22.4761 104.286 21.2703 104.286H21.2456V104.287ZM104.242 103.525C103.821 104.016 103.232 104.287 102.585 104.287H88.6366C87.4308 104.287 86.4501 103.306 86.4501 102.1V96.7245C87.1328 96.9732 87.8691 97.1091 88.6366 97.1091H102.585C102.94 97.1091 103.291 97.0796 103.636 97.0224C104.128 98.5695 104.502 100.154 104.747 101.756C104.846 102.402 104.667 103.031 104.242 103.525V103.525Z" fill="#2B3B46"/>
<path d="M81.5728 11.5415C82.7387 11.5415 83.6838 10.5963 83.6838 9.43042C83.6838 8.2645 82.7387 7.31934 81.5728 7.31934C80.4068 7.31934 79.4617 8.2645 79.4617 9.43042C79.4617 10.5963 80.4068 11.5415 81.5728 11.5415Z" fill="#2B3B46"/>
</svg>
