<svg width="55" height="73" viewBox="0 0 55 73" fill="none" xmlns="http://www.w3.org/2000/svg">
<path d="M51.3789 4.9561H49.9096V3.48681C49.9098 1.56434 48.3454 0 46.4227 0H8.89675C8.61872 0 8.35165 0.108308 8.15213 0.30198L0.45912 7.77197C0.251767 7.97319 0.134908 8.24995 0.134908 8.53882V49.4591C0.134908 50.0495 0.613459 50.5279 1.20374 50.5279C1.79402 50.5279 2.27257 50.0495 2.27257 49.4591V9.6105L7.93865 9.6256H7.94421C8.47734 9.6256 8.97884 9.41868 9.35707 9.04259C9.73657 8.66522 9.94635 8.16245 9.94777 7.62732L9.96259 2.13766H35.6048V13.2271C35.6048 15.0101 37.0555 16.4606 38.8384 16.4606C40.6214 16.4606 42.0718 15.0099 42.0718 13.2271V7.71952C42.0718 7.1291 41.5933 6.65069 41.003 6.65069C40.4127 6.65069 39.9342 7.1291 39.9342 7.71952V13.2271C39.9342 13.8314 39.4425 14.3229 38.8384 14.3229C38.2342 14.3229 37.7425 13.8314 37.7425 13.2271V2.13766H46.4228C47.1669 2.13766 47.7721 2.7429 47.7721 3.48695V19.3175C47.7721 19.9079 48.2507 20.3863 48.841 20.3863C49.4312 20.3863 49.9098 19.9079 49.9098 19.3175V7.09376H51.3791C52.1231 7.09376 52.7285 7.69914 52.7285 8.44319V69.513C52.7285 70.2571 52.1231 70.8623 51.3791 70.8623H8.5781C7.83405 70.8623 7.22881 70.2571 7.22881 69.513V68.0438H46.4228C48.3456 68.0438 49.9098 66.4794 49.9098 64.5567V24.2595C49.9098 23.669 49.4312 23.1906 48.841 23.1906C48.2507 23.1906 47.7721 23.669 47.7721 24.2595V64.5569C47.7721 65.301 47.1667 65.9064 46.4228 65.9064H3.62186C2.87781 65.9064 2.27243 65.301 2.27243 64.5569V54.4348C2.27243 53.8444 1.79388 53.366 1.2036 53.366C0.613317 53.366 0.134766 53.8444 0.134766 54.4348V64.5568C0.134766 66.4796 1.69911 68.0439 3.62186 68.0439H5.09115V69.5132C5.09115 71.4358 6.65549 73.0001 8.5781 73.0001H51.3789C53.3017 73.0001 54.866 71.4358 54.866 69.5132V8.44319C54.866 6.52044 53.3017 4.9561 51.3789 4.9561ZM7.81025 7.48752L3.8315 7.47697L6.47607 4.90893L7.8208 3.60324L7.81025 7.48752Z" fill="#2B3B46"/>
<path d="M26.4571 14.9967H23.5883C22.3689 14.9967 21.3767 15.9888 21.3767 17.2083V20.4147C21.3767 20.4554 21.3435 20.4886 21.3027 20.4886H18.0964C16.8769 20.4886 15.8848 21.4808 15.8848 22.7002V25.569C15.8848 26.7886 16.8769 27.7808 18.0964 27.7808H21.3027C21.3435 27.7808 21.3767 27.8138 21.3767 27.8547V31.0611C21.3767 32.2805 22.3687 33.2727 23.5883 33.2727H26.4571C27.6765 33.2727 28.6687 32.2805 28.6687 31.0611V27.8547C28.6687 27.814 28.7019 27.7808 28.7427 27.7808H31.949C33.1685 27.7808 34.1606 26.7886 34.1606 25.569V22.7002C34.1606 21.4808 33.1685 20.4886 31.949 20.4886H28.7427C28.7019 20.4886 28.6687 20.4556 28.6687 20.4147V17.2083C28.6687 15.9888 27.6765 14.9967 26.4571 14.9967ZM28.7427 22.6263H31.949C31.9898 22.6263 32.023 22.6593 32.023 22.7002V25.569C32.023 25.6097 31.9898 25.6431 31.949 25.6431H28.7427C27.5232 25.6431 26.531 26.6353 26.531 27.8547V31.0611C26.531 31.1018 26.4978 31.135 26.4571 31.135H23.5883C23.5476 31.135 23.5144 31.102 23.5144 31.0611V27.8547C23.5144 26.6353 22.5222 25.6431 21.3027 25.6431H18.0964C18.0556 25.6431 18.0224 25.6099 18.0224 25.569V22.7002C18.0224 22.6595 18.0556 22.6263 18.0964 22.6263H21.3027C22.5222 22.6263 23.5144 21.6341 23.5144 20.4147V17.2083C23.5144 17.1676 23.5474 17.1344 23.5883 17.1344H26.4571C26.4978 17.1344 26.531 17.1674 26.531 17.2083V20.4147C26.531 21.6341 27.5232 22.6263 28.7427 22.6263Z" fill="#2B3B46"/>
<path d="M21.1313 38.0025H8.75828C8.168 38.0025 7.68945 38.4809 7.68945 39.0713C7.68945 39.6617 8.168 40.1401 8.75828 40.1401H21.1313C21.7216 40.1401 22.2002 39.6617 22.2002 39.0713C22.2002 38.4809 21.7216 38.0025 21.1313 38.0025Z" fill="#2B3B46"/>
<path d="M27.5005 40.1401H41.2863C41.8765 40.1401 42.3551 39.6617 42.3551 39.0713C42.3551 38.4809 41.8765 38.0025 41.2863 38.0025H27.5005C26.9102 38.0025 26.4316 38.4809 26.4316 39.0713C26.4316 39.6617 26.9102 40.1401 27.5005 40.1401Z" fill="#2B3B46"/>
<path d="M21.1313 43.7725H8.75828C8.168 43.7725 7.68945 44.2509 7.68945 44.8413C7.68945 45.4317 8.168 45.9101 8.75828 45.9101H21.1313C21.7216 45.9101 22.2002 45.4317 22.2002 44.8413C22.2002 44.2509 21.7216 43.7725 21.1313 43.7725Z" fill="#2B3B46"/>
<path d="M41.2863 43.7725H27.5005C26.9102 43.7725 26.4316 44.2509 26.4316 44.8413C26.4316 45.4317 26.9102 45.9101 27.5005 45.9101H41.2863C41.8765 45.9101 42.3551 45.4317 42.3551 44.8413C42.3551 44.2509 41.8767 43.7725 41.2863 43.7725Z" fill="#2B3B46"/>
<path d="M21.1313 49.5427H8.75828C8.168 49.5427 7.68945 50.0211 7.68945 50.6116C7.68945 51.202 8.168 51.6804 8.75828 51.6804H21.1313C21.7216 51.6804 22.2002 51.202 22.2002 50.6116C22.2002 50.0211 21.7216 49.5427 21.1313 49.5427Z" fill="#2B3B46"/>
<path d="M41.2863 49.5427H27.5005C26.9102 49.5427 26.4316 50.0211 26.4316 50.6116C26.4316 51.202 26.9102 51.6804 27.5005 51.6804H41.2863C41.8765 51.6804 42.3551 51.202 42.3551 50.6116C42.3551 50.0211 41.8767 49.5427 41.2863 49.5427Z" fill="#2B3B46"/>
<path d="M21.1313 55.3127H8.75828C8.168 55.3127 7.68945 55.7911 7.68945 56.3815C7.68945 56.972 8.168 57.4504 8.75828 57.4504H21.1313C21.7216 57.4504 22.2002 56.972 22.2002 56.3815C22.2002 55.7911 21.7216 55.3127 21.1313 55.3127Z" fill="#2B3B46"/>
<path d="M41.2863 55.3127H27.5005C26.9102 55.3127 26.4316 55.7911 26.4316 56.3815C26.4316 56.972 26.9102 57.4504 27.5005 57.4504H41.2863C41.8765 57.4504 42.3551 56.972 42.3551 56.3815C42.3551 55.7911 41.8767 55.3127 41.2863 55.3127Z" fill="#2B3B46"/>
</svg>
