<svg width="63" height="61" viewBox="0 0 63 61" fill="none" xmlns="http://www.w3.org/2000/svg">
<path d="M22.9688 46.2312V58.406C22.9688 59.2565 23.5147 60.0098 24.3232 60.2776C24.5254 60.3432 24.7327 60.3747 24.9375 60.3747C25.5517 60.3747 26.145 60.086 26.523 59.5715L33.6446 49.88L22.9688 46.2312Z" fill="#FFE3DF"/>
<path d="M62.1728 0.364131C61.569 -0.0637439 60.7763 -0.121494 60.12 0.222381L1.0575 31.0661C0.359253 31.431 -0.0528715 32.1765 0.00487847 32.9614C0.0652535 33.7489 0.587629 34.4209 1.3305 34.6755L17.7499 40.2878L52.7175 10.389L25.659 42.9889L53.1769 52.3943C53.3816 52.4625 53.5969 52.4993 53.8121 52.4993C54.1691 52.4993 54.5235 52.4021 54.8359 52.2131C55.3346 51.9086 55.6733 51.3968 55.7599 50.8219L62.9786 2.25938C63.0863 1.52438 62.7765 0.794631 62.1728 0.364131Z" fill="#FFE3DF"/>
</svg>
