<svg width="99" height="129" viewBox="0 0 99 129" fill="none" xmlns="http://www.w3.org/2000/svg">
<path d="M46.8888 37.4908C42.9185 41.5985 35.3086 62.479 32 72.4058L39.4444 76L65.748 53.9214L86.5924 23.114C90.3973 16.7813 96.9153 3.91057 92.5479 3.08904C87.0887 2.06213 81.1332 10.2777 78.1554 9.25074C75.1776 8.22383 51.8518 32.3563 46.8888 37.4908Z" fill="#F6D993"/>
<path d="M98.1925 0.636957C97.7672 0.121011 97.0845 -0.107522 96.435 0.0481369C84.0829 3.00856 72.7703 9.02764 62.8114 17.9378C54.8795 25.0342 47.79 33.9674 41.7389 44.4898C32.1216 61.2137 28.2881 76.3429 27.7121 78.7658C26.0696 81.2494 24.4666 83.7271 22.9302 86.1523H14.4281C10.4504 86.1523 7.21392 89.3888 7.21392 93.3665C7.21392 97.0484 9.98662 100.095 13.5536 100.528V103.204H12.8981C5.78618 103.204 0 108.99 0 116.102C0 123.214 5.78618 129 12.8981 129H34.759C41.8709 129 47.6571 123.214 47.6571 116.102C47.6571 108.99 41.8709 103.204 34.759 103.204H34.1032V100.528C37.6702 100.095 40.4429 97.0481 40.4429 93.3665C40.4429 89.3888 37.2064 86.1523 33.2287 86.1523H27.0773C28.2036 84.3946 29.3603 82.6168 30.5379 80.8352C32.7087 79.7808 42.0214 74.9484 54.0907 64.2121C66.5209 53.1548 84.3042 33.4683 98.4335 2.47483C98.7113 1.86619 98.6175 1.1529 98.1925 0.636957ZM34.7593 106.702C39.9424 106.702 44.1595 110.919 44.1595 116.102C44.1595 121.285 39.9424 125.502 34.7593 125.502H12.8984C7.71529 125.502 3.49823 121.285 3.49823 116.102C3.49823 110.919 7.71529 106.702 12.8984 106.702H34.7593ZM17.0519 100.581H30.6055V103.204H17.0519V100.581ZM36.9453 93.3665C36.9453 95.4157 35.2782 97.0828 33.229 97.0828H14.4284C12.3792 97.0828 10.7122 95.4157 10.7122 93.3665C10.7122 91.3173 12.3792 89.6503 14.4284 89.6503H33.229C35.2782 89.6503 36.9453 91.3173 36.9453 93.3665ZM51.8943 61.4842C45.0549 67.5826 39.0662 71.7554 34.8762 74.3645C46.7541 56.9457 66.5716 30.164 87.9557 10.9197C88.6737 10.2735 88.732 9.16756 88.0857 8.44961C87.4395 7.73166 86.3336 7.67307 85.6156 8.3196C65.355 26.5529 46.5311 51.4014 34.381 68.913C36.5625 62.7721 39.9229 54.6644 44.771 46.2338C50.6359 36.0353 57.4901 27.3921 65.1436 20.5446C73.6941 12.8946 83.2758 7.4766 93.6731 4.40599C80.1096 32.8233 63.5768 51.0677 51.8943 61.4842Z" fill="#2B3B46"/>
<path d="M31.5573 109.594C31.5573 110.56 32.3405 111.343 33.3062 111.343C36.5657 111.343 39.2175 113.995 39.2175 117.255C39.2175 118.22 40.0007 119.004 40.9664 119.004C41.9321 119.004 42.7154 118.22 42.7154 117.255C42.7154 112.066 38.4945 107.845 33.3062 107.845C32.3402 107.845 31.5573 108.628 31.5573 109.594Z" fill="#2B3B46"/>
</svg>
