<svg width="120" height="121" viewBox="0 0 120 121" fill="none" xmlns="http://www.w3.org/2000/svg">
<path d="M100.827 18.6812H88.3725V31.1354H100.827V18.6812ZM96.6753 26.984H92.5239V22.8326H96.6753V26.984Z" fill="#2B3B46"/>
<path d="M61.3885 110.75C74.9614 103.525 84.0094 95.4962 90.4647 85.0078L94.502 78.4486C92.6816 67.2025 92.0402 55.8111 92.5612 44.4529L61.3885 76.5161V110.75Z" fill="#2B3B46"/>
<path d="M15.8253 79.3889L17.8221 82.5917L20.3108 80.1714L19.7753 79.3017L19.904 78.5337C22.6252 62.2126 22.8162 45.6361 20.4748 29.2631L19.684 23.721L59.313 3.90645L72.805 10.6524L73.6976 10.2062C74.7043 9.70178 75.7691 9.32192 76.8547 9.01472L59.313 0.244934L15.9145 21.9442L17.1039 30.3175C19.2439 45.3082 18.9492 60.6247 16.1968 77.1409L15.8253 79.3889Z" fill="#2B3B46"/>
<path d="M84.2204 14.5299H89.0463C86.8772 13.1869 84.3781 12.4542 81.7627 12.4542C80.3056 12.4542 78.8485 12.6887 77.464 13.1391L84.2204 19.8976V14.5299Z" fill="#2B3B46"/>
<path d="M0 119.508L17.799 114.653V101.709H4.85296L0 119.508Z" fill="#F6D993"/>
<path d="M91.9404 35.2867H84.2209V27.5672L79.8765 28.6528L78.3073 41.1983L90.8548 39.6311L91.9404 35.2867Z" fill="#F6D993"/>
<path d="M74.6895 16.2361L61.3885 9.58557V40.2331L76.9479 25.1055L82.2367 23.7833L74.6895 16.2361Z" fill="#2B3B46"/>
<path d="M57.237 44.2703V9.58557L24.217 26.0956L24.5865 28.6757C26.8407 44.4447 26.7763 60.3964 24.4536 76.1425L57.237 44.2703Z" fill="#2B3B46"/>
<path d="M100.37 41.9164L97.1052 38.6514C95.9947 51.9545 96.5261 65.3489 98.7222 78.5337L98.8509 79.3017L94 87.1831C86.65 99.1266 76.2383 108.021 60.241 116.021L59.3132 116.483L58.3853 116.019C49.5408 111.595 42.6412 107.031 36.8314 101.775L34.5232 104.15C40.5116 109.547 47.7433 114.352 56.5898 118.781L59.3132 120.145L62.0365 118.781C78.2621 110.659 89.3318 101.163 96.8769 88.8914L102.801 79.3888L102.427 77.1409C100.374 64.7947 99.7081 53.2621 100.37 41.9164Z" fill="#2B3B46"/>
<path d="M104.979 35.2867H99.6108L106.369 42.0452C106.822 40.6586 107.054 39.2015 107.054 37.7464C107.054 35.1311 106.322 32.6319 104.979 30.4628V35.2867Z" fill="#2B3B46"/>
<path d="M99.6108 14.5299H104.979V19.8976L114.498 10.3785L109.13 5.01074L99.6108 14.5299Z" fill="#2B3B46"/>
<path d="M115.714 0C114.716 0 113.738 0.40476 113.03 1.11049L112.065 2.07569L117.433 7.44342L118.398 6.47823C119.114 5.76211 119.508 4.80937 119.508 3.79644C119.508 1.70207 117.806 0 115.714 0Z" fill="#2B3B46"/>
<path d="M57.2379 80.7858L39.7253 98.7987C44.5555 103.145 50.2221 107.012 57.2379 110.744V80.7858Z" fill="#2B3B46"/>
<path d="M75.2012 32.5945L8.38062 97.5574H19.0144L73.9475 42.6242L75.2012 32.5945Z" fill="#F6D993"/>
<path d="M76.8815 45.5614L21.9504 100.492V111.126L86.9133 44.3077L76.8815 45.5614Z" fill="#F6D993"/>
</svg>
