<svg width="31" height="31" viewBox="0 0 31 31" fill="none" xmlns="http://www.w3.org/2000/svg">
<path d="M15.3987 0C6.89452 0 0 6.93087 0 15.4806C0 24.0303 6.89452 30.9612 15.3987 30.9612C23.9029 30.9612 30.7974 24.0303 30.7974 15.4806C30.7974 6.93087 23.9029 0 15.3987 0ZM23.2097 17.1549C23.9274 17.8596 24.6867 18.5229 25.331 19.3005C25.6165 19.6444 25.8856 20.0001 26.0903 20.4002C26.3827 20.9706 26.1187 21.5962 25.6108 21.6301L22.4561 21.6294C21.6413 21.6972 20.9929 21.3669 20.4463 20.8069C20.01 20.3606 19.6051 19.8839 19.1848 19.4224C19.0131 19.233 18.8322 19.0547 18.6167 18.9144C18.1867 18.6331 17.813 18.7192 17.5666 19.1709C17.3155 19.6305 17.2582 20.1398 17.2342 20.6513C17.1999 21.3992 16.9756 21.5946 16.2292 21.6298C14.6344 21.7048 13.1211 21.4616 11.7147 20.6532C10.4739 19.9403 9.51364 18.934 8.67683 17.7947C7.04732 15.5737 5.79936 13.1361 4.67805 10.6285C4.42569 10.0637 4.61031 9.76156 5.23004 9.74984C6.25967 9.72989 7.28929 9.73242 8.31892 9.74889C8.73795 9.75554 9.01521 9.99658 9.1762 10.3941C9.7326 11.7703 10.4147 13.0797 11.2695 14.2941C11.4973 14.6175 11.7298 14.9399 12.0609 15.1683C12.4264 15.4204 12.7049 15.3371 12.8772 14.9269C12.9875 14.6663 13.0351 14.3875 13.059 14.1082C13.141 13.1513 13.1507 12.1947 13.0089 11.2417C12.9207 10.6453 12.5871 10.2601 11.9957 10.1473C11.6945 10.09 11.7386 9.97789 11.8851 9.80495C12.1394 9.50595 12.3776 9.32098 12.8536 9.32098L16.4179 9.32034C16.9797 9.4312 17.1057 9.6846 17.1819 10.2535L17.1851 14.2355C17.1785 14.4556 17.2951 15.1081 17.6883 15.2522C18.0033 15.3567 18.2113 15.1027 18.3997 14.9022C19.2544 13.9903 19.8634 12.9141 20.4088 11.8001C20.6495 11.3088 20.8572 10.8005 21.0588 10.2911C21.2088 9.91455 21.4419 9.72925 21.8647 9.73559L25.297 9.73971C25.3982 9.73971 25.5009 9.74066 25.6011 9.75808C26.1795 9.85753 26.338 10.1078 26.159 10.675C25.8774 11.5663 25.3301 12.3088 24.7951 13.0531C24.2217 13.85 23.6102 14.6191 23.0424 15.4195C22.5207 16.1511 22.562 16.5195 23.2097 17.1549Z" fill="#009D9A"/>
</svg>
