<svg width="99" height="99" viewBox="0 0 99 99" fill="none" xmlns="http://www.w3.org/2000/svg">
<path d="M59.5792 12.375C57.4434 12.375 55.7121 14.1063 55.7121 16.2422V17.209C55.7121 27.354 47.4879 35.5781 37.3429 35.5781H28.0371C17.8921 35.5781 9.66797 27.354 9.66797 17.209V16.2422C9.66797 14.1063 7.93663 12.375 5.80078 12.375C3.66493 12.375 1.93359 14.1063 1.93359 16.2422V17.209C1.93359 29.1176 9.9495 39.1889 20.8689 42.3115V63.7179H44.072V42.4333C55.2151 39.4581 63.4464 29.2767 63.4464 17.209V16.2422C63.4464 14.1063 61.7151 12.375 59.5792 12.375Z" fill="#009D9A"/>
<path d="M41.7173 63.7177H23.1548V97.0663H41.7173V63.7177Z" fill="#343E48"/>
<path d="M32.4201 19.4539C28.3402 19.4539 25.033 22.7613 25.033 26.841V28.184C25.033 32.2639 28.3404 35.5711 32.4201 35.5711C36.4999 35.5711 39.8072 32.2637 39.8072 28.184V26.841C39.8072 22.7611 36.4998 19.4539 32.4201 19.4539Z" fill="#F6D993"/>
<path d="M66.0401 52.8024C61.9602 52.8024 58.653 56.1098 58.653 60.1895V61.5325C58.653 65.6124 61.9604 68.9197 66.0401 68.9197C70.1199 68.9197 73.4272 65.6122 73.4272 61.5325V60.1895C73.4272 56.1098 70.1197 52.8024 66.0401 52.8024Z" fill="#F6D993"/>
<path d="M93.1992 45.7235C91.0634 45.7235 89.332 47.4549 89.332 49.5907V50.5575C89.332 60.7025 81.1079 68.9266 70.9629 68.9266H61.6571C51.5121 68.9266 43.288 60.7025 43.288 50.5575V49.5907C43.288 47.4549 41.5566 45.7235 39.4208 45.7235C37.2849 45.7235 35.5536 47.4549 35.5536 49.5907V50.5575C35.5536 62.4661 43.5695 72.5374 54.4889 75.66V97.0664H77.692V75.7818C88.8351 72.8066 97.0664 62.6252 97.0664 50.5575V49.5907C97.0664 47.455 95.3351 45.7235 93.1992 45.7235Z" fill="#987A8C"/>
<path d="M59.7724 30.6918C58.9013 30.074 57.6943 30.2786 57.0764 31.1496L57.0388 31.2024C56.4209 32.0733 56.6258 33.2803 57.4967 33.8982C57.8365 34.1392 58.227 34.2552 58.6141 34.2552C59.2196 34.2552 59.8157 33.9717 60.1927 33.4404L60.2302 33.3876C60.8482 32.5167 60.6433 31.3097 59.7724 30.6918Z" fill="#1A1A1A"/>
<path d="M52.6461 35.9029C49.9598 38.1064 46.9072 39.675 43.5731 40.5652C42.5414 40.8407 41.9282 41.9003 42.2038 42.9321C42.4346 43.7968 43.2162 44.3674 44.0706 44.3674C44.2358 44.3674 44.4036 44.3461 44.5707 44.3013C48.4411 43.2678 51.9831 41.4481 55.0985 38.8926C55.9243 38.2155 56.0446 36.9969 55.3673 36.1715C54.6901 35.3456 53.4718 35.2256 52.6461 35.9029Z" fill="#1A1A1A"/>
<path d="M93.1992 43.7901C90.0007 43.7901 87.3984 46.3923 87.3984 49.5907V50.5577C87.3984 58.6666 81.4942 65.4181 73.7598 66.7502C74.7699 65.2603 75.3608 63.4642 75.3608 61.5326V60.1895C75.3608 55.05 71.1795 50.8688 66.04 50.8688C60.9005 50.8688 56.7193 55.05 56.7193 60.1895V61.5326C56.7193 63.4151 57.2819 65.1677 58.2455 66.6347C50.8148 65.0596 45.2213 58.4506 45.2213 50.5577V49.5907C45.2213 46.3923 42.6191 43.7901 39.4206 43.7901C36.222 43.7901 33.6198 46.3923 33.6198 49.5907V50.5577C33.6198 54.4823 34.4184 58.2777 35.959 61.7843H23.1554H22.8023V42.3115C22.8023 41.4483 22.2303 40.6896 21.4004 40.4525C11.0772 37.5001 3.86719 27.9422 3.86719 17.209V16.2422C3.86719 15.176 4.7346 14.3086 5.80078 14.3086C6.86696 14.3086 7.73438 15.176 7.73438 16.2422V17.209C7.73438 28.4039 16.8422 37.5117 28.0371 37.5117H37.3429C48.5378 37.5117 57.6457 28.4039 57.6457 17.209V16.2422C57.6457 15.176 58.5131 14.3086 59.5792 14.3086C60.6454 14.3086 61.5128 15.176 61.5128 16.2422V17.209C61.5128 20.1811 60.9774 23.0844 59.9213 25.8376C59.5388 26.8346 60.0371 27.953 61.0343 28.3355C62.0308 28.7181 63.1496 28.2194 63.5321 27.2225C64.7584 24.0255 65.38 20.6564 65.38 17.209V16.2422C65.38 13.0436 62.7778 10.4414 59.5792 10.4414C56.3807 10.4414 53.7785 13.0436 53.7785 16.2422V17.209C53.7785 25.3177 47.8742 32.0692 40.1401 33.4015C41.1502 31.9116 41.7409 30.1157 41.7409 28.1843V26.8412C41.7409 21.7017 37.5595 17.5203 32.42 17.5203C27.2805 17.5203 23.0993 21.7017 23.0993 26.8412V28.1843C23.0993 30.0666 23.662 31.8192 24.6255 33.286C17.1949 31.7109 11.6016 25.1019 11.6016 17.209V16.2422C11.6016 13.0436 8.99933 10.4414 5.80078 10.4414C2.60223 10.4414 0 13.0436 0 16.2422V17.209C0 23.417 1.99586 29.3032 5.77158 34.231C9.12521 38.6077 13.7591 41.9412 18.9353 43.7284V63.7177C18.9353 64.7854 19.801 65.6513 20.8689 65.6513H21.222V97.0664C21.222 98.1341 22.0876 99 23.1556 99C24.2235 99 25.0892 98.1341 25.0892 97.0664V65.6513H38.0365C38.4592 66.3085 38.9107 66.9518 39.3916 67.5795C39.5196 67.7466 39.6528 67.909 39.7845 68.0729V97.0664C39.7845 98.1341 40.6501 99 41.7181 99C42.786 99 43.6517 98.1341 43.6517 97.0664V72.0244C46.2862 74.2324 49.3144 75.9577 52.5553 77.0769V97.0664C52.5553 98.1341 53.4209 99 54.4889 99C55.5568 99 56.4225 98.1341 56.4225 97.0664V75.66C56.4225 74.7968 55.8505 74.0381 55.0206 73.801C44.6971 70.8486 37.4872 61.2909 37.4872 50.5577V49.5907C37.4872 48.5245 38.3546 47.6573 39.4208 47.6573C40.4869 47.6573 41.3544 48.5245 41.3544 49.5907V50.5577C41.3544 61.7526 50.4622 70.8604 61.6571 70.8604H70.9629C82.1578 70.8604 91.2656 61.7526 91.2656 50.5577V49.5907C91.2656 48.5245 92.133 47.6573 93.1992 47.6573C94.2654 47.6573 95.1328 48.5245 95.1328 49.5907V50.5577C95.1328 61.4891 87.7558 71.0934 77.1933 73.9137C76.3472 74.1396 75.7586 74.9061 75.7586 75.7818V89.7831C75.7586 90.8509 76.6243 91.7167 77.6922 91.7167C78.7601 91.7167 79.6258 90.8509 79.6258 89.7831V77.2258C91.1063 73.4961 99 62.7372 99 50.5577V49.5907C99 46.3923 96.3978 43.7901 93.1992 43.7901ZM26.9665 26.841C26.9665 23.8337 29.4129 21.3873 32.42 21.3873C35.4271 21.3873 37.8737 23.8337 37.8737 26.841V28.1841C37.8737 31.1912 35.4273 33.6376 32.42 33.6376C29.4129 33.6376 26.9665 31.1912 26.9665 28.1841V26.841ZM60.5865 60.1895C60.5865 57.1824 63.0328 54.736 66.04 54.736C69.0471 54.736 71.4937 57.1824 71.4937 60.1895V61.5326C71.4937 64.5397 69.0473 66.9861 66.04 66.9861C63.0328 66.9861 60.5865 64.5397 60.5865 61.5326V60.1895Z" fill="#1A1A1A"/>
<path d="M77.6918 95.1328C77.1832 95.1328 76.6844 95.3395 76.3247 95.6994C75.9651 96.059 75.7582 96.5579 75.7582 97.0664C75.7582 97.5749 75.9651 98.0738 76.3247 98.4333C76.6844 98.7929 77.1832 99 77.6918 99C78.2003 99 78.6992 98.7931 79.0588 98.4333C79.4185 98.0738 79.6254 97.5749 79.6254 97.0664C79.6254 96.5579 79.4185 96.059 79.0588 95.6994C78.6992 95.3395 78.2003 95.1328 77.6918 95.1328Z" fill="#1A1A1A"/>
<path d="M32.42 72.3164C31.3521 72.3164 30.4865 73.1823 30.4865 74.25V97.0664C30.4865 98.1341 31.3521 99 32.42 99C33.488 99 34.3536 98.1341 34.3536 97.0664V74.25C34.3536 73.1823 33.488 72.3164 32.42 72.3164Z" fill="#1A1A1A"/>
<path d="M90.1055 22.1261C91.1734 22.1261 92.0391 21.2602 92.0391 20.1925V17.7891C92.0391 16.7213 91.1734 15.8555 90.1055 15.8555C89.0375 15.8555 88.1719 16.7213 88.1719 17.7891V20.1925C88.1719 21.2602 89.0375 22.1261 90.1055 22.1261Z" fill="#1A1A1A"/>
<path d="M90.1055 33.6445C91.1734 33.6445 92.0391 32.7787 92.0391 31.7109V29.3075C92.0391 28.2398 91.1734 27.3739 90.1055 27.3739C89.0375 27.3739 88.1719 28.2398 88.1719 29.3075V31.7109C88.1719 32.7787 89.0375 33.6445 90.1055 33.6445Z" fill="#1A1A1A"/>
<path d="M94.663 26.6836H97.0664C98.1344 26.6836 99 25.8177 99 24.75C99 23.6823 98.1344 22.8164 97.0664 22.8164H94.663C93.595 22.8164 92.7294 23.6823 92.7294 24.75C92.7294 25.8177 93.595 26.6836 94.663 26.6836Z" fill="#1A1A1A"/>
<path d="M83.1445 26.6836H85.548C86.6159 26.6836 87.4816 25.8177 87.4816 24.75C87.4816 23.6823 86.6159 22.8164 85.548 22.8164H83.1445C82.0766 22.8164 81.2109 23.6823 81.2109 24.75C81.2109 25.8177 82.0766 26.6836 83.1445 26.6836Z" fill="#1A1A1A"/>
<path d="M42.5145 6.27064C43.5825 6.27064 44.4481 5.40478 44.4481 4.33705V1.93359C44.4481 0.865863 43.5825 0 42.5145 0C41.4466 0 40.5809 0.865863 40.5809 1.93359V4.33705C40.5809 5.40478 41.4466 6.27064 42.5145 6.27064Z" fill="#1A1A1A"/>
<path d="M42.5145 17.7891C43.5825 17.7891 44.4481 16.9232 44.4481 15.8555V13.452C44.4481 12.3843 43.5825 11.5184 42.5145 11.5184C41.4466 11.5184 40.5809 12.3843 40.5809 13.452V15.8555C40.5809 16.9232 41.4466 17.7891 42.5145 17.7891Z" fill="#1A1A1A"/>
<path d="M47.072 10.8281H49.4755C50.5434 10.8281 51.4091 9.96226 51.4091 8.89453C51.4091 7.8268 50.5434 6.96094 49.4755 6.96094H47.072C46.0041 6.96094 45.1384 7.8268 45.1384 8.89453C45.1384 9.96226 46.0041 10.8281 47.072 10.8281Z" fill="#1A1A1A"/>
<path d="M35.5536 10.8281H37.957C39.025 10.8281 39.8906 9.96226 39.8906 8.89453C39.8906 7.8268 39.025 6.96094 37.957 6.96094H35.5536C34.4857 6.96094 33.62 7.8268 33.62 8.89453C33.62 9.96226 34.4857 10.8281 35.5536 10.8281Z" fill="#1A1A1A"/>
</svg>
